<svg width="163" height="69" viewBox="0 0 163 69" fill="none" xmlns="http://www.w3.org/2000/svg">
<g clip-path="url(#clip0_22_652)">
<path d="M162.548 48.8215C160.968 48.5192 159.388 48.2169 157.356 47.9146C157.356 52.2223 157.356 56.5301 157.356 61.0646C155.475 61.2913 154.045 61.5181 152.163 61.7448C152.163 64.012 152.163 66.3549 152.163 69C104.829 69 57.9455 69 10.9871 69C8.72946 66.8083 13.3199 61.2158 6.77285 61.0646C6.77285 57.5126 6.84811 54.1873 6.6976 50.7864C6.6976 49.8795 6.09557 49.0482 5.79455 48.1413C5.04201 48.5192 4.28947 49.0482 3.46168 49.3505C2.33287 49.7284 1.12881 49.9551 0 50.2574C0 36.6539 0 23.0504 0 9.44688C1.20406 9.82475 2.40813 10.1271 3.61219 10.5805C4.36473 10.8072 5.26777 11.563 5.7193 11.3363C6.24608 11.034 6.6976 9.9759 6.6976 9.22015C6.84811 6.19715 6.77285 3.24973 6.77285 0C56.9672 0 106.785 0 157.13 0C157.13 3.55203 157.13 7.10405 157.13 11.2607C159.313 10.1271 160.818 9.29573 163 8.08653C163 22.0679 163 35.0668 163 47.9901C163 48.2924 162.624 48.5947 162.473 48.9726C163.677 33.1774 162.849 11.1095 160.893 9.52245C160.667 9.9759 160.366 10.4294 160.366 10.8072C160.291 22.7481 160.216 34.6889 160.366 46.6298C160.366 47.3855 161.796 48.0657 162.548 48.8215ZM8.35319 1.28478C8.35319 21.0854 8.35319 40.5082 8.35319 60.0821C27.0914 60.0821 45.5286 60.0821 63.8906 60.0821C66.675 60.0821 66.7502 58.4951 66.7502 56.379C66.7502 39.299 66.7502 22.1435 66.7502 5.06353C66.7502 3.85433 66.5997 2.64513 66.4492 1.2092C47.0337 1.28478 27.9192 1.28478 8.35319 1.28478ZM155.926 30.23C155.926 22.0679 155.776 13.8302 156.001 5.66813C156.077 2.1161 155.249 0.831325 151.486 0.9069C140.951 1.13363 130.415 1.13363 119.955 0.9069C116.644 0.831325 115.665 1.8138 115.665 5.1391C115.816 22.2191 115.816 39.3746 115.665 56.4545C115.665 59.402 116.794 60.0066 119.428 60.0066C130.34 59.931 141.252 59.8554 152.088 60.0066C155.399 60.0821 156.001 58.6462 155.926 55.7744C155.776 47.31 155.926 38.77 155.926 30.23ZM96.4003 1.05805C91.8098 1.05805 87.8966 1.28478 84.0586 0.982475C80.8227 0.75575 79.7692 1.8138 79.7692 5.21468C79.9197 21.6145 79.7692 37.9387 79.8444 54.3384C79.8444 60.6867 79.0166 60.0821 85.7895 60.1577C87.8966 60.1577 90.0789 59.931 92.1861 60.1577C95.422 60.46 96.5508 59.402 96.4755 56.0011C96.2498 44.4381 96.4003 32.7996 96.4003 21.2366C96.4003 14.6616 96.4003 8.1621 96.4003 1.05805ZM114.01 60.0821C114.01 40.1303 114.01 20.7831 114.01 1.05805C109.193 1.05805 104.678 0.9069 100.163 1.13363C99.3352 1.2092 97.8301 2.64513 97.8301 3.47645C97.6796 21.4633 97.6796 39.4502 97.8301 57.3614C97.8301 58.2683 99.4857 59.7798 100.389 59.8554C104.829 60.2333 109.269 60.0821 114.01 60.0821ZM11.9654 68.0175C58.2465 68.0175 104.302 68.0175 150.282 68.0175C151.411 62.5005 150.884 61.8204 146.068 61.8204C102.947 61.8204 59.9021 61.8204 16.7816 61.8204C11.4386 61.8204 11.2128 62.1227 11.9654 68.0175ZM68.1048 59.8554C69.0078 59.931 69.5346 60.0066 69.9861 60.0066C78.3393 60.1577 78.4146 60.1577 78.4146 51.8445C78.4146 36.1249 78.3393 20.4053 78.4898 4.68565C78.4898 1.66265 77.5115 0.529025 74.5766 0.982475C73.8241 1.05805 73.0716 1.05805 72.319 0.982475C69.0078 0.45345 67.9543 1.88938 68.0295 5.1391C68.1801 19.7251 68.1048 34.3111 68.0295 48.897C68.1048 52.6002 68.1048 56.1522 68.1048 59.8554ZM1.58033 10.2782C0 14.057 0.376269 47.1588 2.03186 48.9726C3.68744 45.7229 3.31117 12.2432 1.58033 10.2782ZM4.13897 12.1676C4.13897 24.1084 4.13897 35.5203 4.13897 47.31C6.62234 44.5893 6.6976 15.7196 4.13897 12.1676ZM159.237 12.2432C158.936 12.2432 158.711 12.2432 158.41 12.2432C158.41 23.4283 158.41 34.6889 158.41 45.874C158.711 45.874 158.936 45.874 159.237 45.874C159.237 34.6889 159.237 23.5038 159.237 12.2432Z" fill="white"/>
<path d="M8.35315 1.28479C27.9192 1.28479 47.0337 1.28479 66.4492 1.28479C66.5997 2.64514 66.7502 3.92992 66.7502 5.13912C66.7502 22.2191 66.6749 39.3746 66.7502 56.4546C66.7502 58.5707 66.7502 60.1577 63.8905 60.1577C45.4533 60.0822 27.0914 60.1577 8.35315 60.1577C8.35315 40.4327 8.35315 21.0854 8.35315 1.28479ZM11.5891 11.6386C11.8901 9.29574 11.2881 6.19717 12.5674 4.91239C13.9219 3.62762 17.0073 4.08107 20.2433 3.70319C10.084 3.09859 10.4603 1.96496 11.5891 11.6386Z" fill="white"/>
<path d="M155.926 30.23C155.926 38.77 155.851 47.31 156.001 55.9255C156.077 58.873 155.475 60.2333 152.163 60.1577C141.252 60.0066 130.34 60.0066 119.503 60.1577C116.869 60.1577 115.74 59.5531 115.74 56.6057C115.891 39.5258 115.891 22.3702 115.74 5.29027C115.74 1.96497 116.719 0.982494 120.03 1.05807C130.566 1.28479 141.101 1.28479 151.561 1.05807C155.249 0.982494 156.152 2.26727 156.077 5.8193C155.7 13.8302 155.926 22.0679 155.926 30.23ZM118.374 4.3078C121.159 4.15665 123.567 4.08107 126.05 3.92992C117.547 3.02302 116.794 1.81382 118.374 11.4874C118.374 9.4469 118.374 7.25522 118.374 4.3078Z" fill="white"/>
<path d="M96.4003 1.05806C96.4003 8.16212 96.4003 14.6616 96.4003 21.161C96.4003 32.724 96.2498 44.3626 96.4755 55.9255C96.5508 59.3264 95.422 60.3845 92.1861 60.0822C90.079 59.8554 87.8966 60.0822 85.7895 60.0822C79.0166 60.0066 79.9197 60.6112 79.8444 54.2629C79.7692 37.8631 79.9197 21.5389 79.7692 5.13912C79.7692 1.73824 80.7475 0.755764 84.0586 0.982489C87.8966 1.28479 91.8098 1.05806 96.4003 1.05806Z" fill="white"/>
<path d="M114.01 60.0821C109.193 60.0821 104.829 60.2333 100.464 59.931C99.4857 59.8554 97.9054 58.3439 97.9054 57.437C97.7549 39.4501 97.7549 21.4633 97.9054 3.55198C97.9054 2.72066 99.3352 1.20916 100.238 1.20916C104.753 0.982434 109.193 1.13358 114.085 1.13358C114.01 20.7831 114.01 40.1303 114.01 60.0821Z" fill="#183693"/>
<path d="M11.9654 68.0175C11.2129 62.1226 11.4386 61.8203 16.8569 61.8203C59.9774 61.8203 103.023 61.8203 146.143 61.8203C150.959 61.8203 151.411 62.5005 150.357 68.0175C104.302 68.0175 58.2466 68.0175 11.9654 68.0175Z" fill="white"/>
<path d="M68.1049 59.8554C68.1049 56.1522 68.1049 52.5246 68.1049 48.9726C68.1049 34.3866 68.1801 19.8006 68.1049 5.21466C68.1049 1.88936 69.0832 0.529007 72.3943 1.05803C73.1469 1.20918 73.8994 1.20918 74.6519 1.05803C77.5116 0.680157 78.5651 1.73821 78.5651 4.76121C78.4146 20.4808 78.4899 36.2004 78.4899 51.92C78.4899 60.2333 78.4146 60.2333 70.0615 60.0821C69.5347 60.0821 69.0079 60.0065 68.1049 59.8554Z" fill="#183693"/>
<path d="M162.548 48.8215C161.796 48.0657 160.366 47.3855 160.366 46.6298C160.216 34.6889 160.291 22.7481 160.366 10.8072C160.366 10.3538 160.667 9.97591 160.893 9.52246C162.849 11.1095 163.677 33.1774 162.473 48.9726C162.473 48.8971 162.548 48.8215 162.548 48.8215Z" fill="white"/>
<path d="M1.58038 10.2782C3.23597 12.2431 3.61224 45.6473 2.03191 48.9726C0.376322 47.1588 5.22868e-05 14.0569 1.58038 10.2782Z" fill="white"/>
<path d="M4.13892 12.1676C6.7728 15.7196 6.69755 44.5893 4.13892 47.31C4.13892 35.5203 4.13892 24.1085 4.13892 12.1676Z" fill="white"/>
<path d="M159.237 12.2432C159.237 23.4283 159.237 34.6889 159.237 45.8741C158.936 45.8741 158.711 45.8741 158.41 45.8741C158.41 34.6889 158.41 23.4283 158.41 12.2432C158.635 12.3187 158.936 12.3187 159.237 12.2432Z" fill="white"/>
<path d="M11.5891 11.6386C10.4603 2.04057 10.084 3.09862 20.2433 3.7788C17.0074 4.15667 13.9219 3.70322 12.5674 4.988C11.2881 6.1972 11.8148 9.29577 11.5891 11.6386Z" fill="white"/>
<path d="M118.374 4.30781C118.374 7.25524 118.374 9.37134 118.374 11.563C116.794 1.81384 117.471 3.02304 126.05 4.00551C123.642 4.08109 121.234 4.23224 118.374 4.30781Z" fill="white"/>
<circle cx="35.5" cy="21.5" r="7.5" fill="#183693"/>
<circle cx="88" cy="22" r="6" fill="#183693"/>
<ellipse cx="136.194" cy="21.532" rx="7.5" ry="7.532" fill="#183693"/>
<path d="M1.5 10L1 10.5L1.5 24V48L2 49.5L2.5 49L5 46.5L2.5 10.5L1.5 10Z" fill="white"/>
<path d="M159.5 12H158.5L158 12.5H159.5V12Z" fill="white"/>
</g>
<defs>
<clipPath id="clip0_22_652">
<rect width="163" height="69" fill="white"/>
</clipPath>
</defs>
</svg>
