<svg width="151" height="80" viewBox="0 0 151 80" fill="none" xmlns="http://www.w3.org/2000/svg">
<rect x="100.667" y="17.6608" width="17.6608" height="54.7486" fill="#183693"/>
<rect x="74.1755" y="26.4912" width="17.6608" height="45.9182" fill="#183693"/>
<rect x="47.6843" y="39.7369" width="17.6608" height="32.6725" fill="#183693"/>
<rect x="21.1931" y="58.2807" width="17.6608" height="14.1287" fill="#183693"/>
<path d="M0 62.9324L0 16.5622C0 7.42589 7.34172 0 16.3745 0L122.974 0C132.007 0 139.348 7.42589 139.348 16.5622V62.9324C139.348 72.0687 132.007 79.4946 122.974 79.4946H16.3745C7.34172 79.4737 0 72.0479 0 62.9324ZM135.162 16.5622C135.162 9.76213 129.697 4.23443 122.974 4.23443H16.3745C9.65147 4.23443 4.18643 9.76213 4.18643 16.5622V62.9324C4.18643 69.7325 9.65147 75.2602 16.3745 75.2602H122.974C129.697 75.2602 135.162 69.7325 135.162 62.9324V16.5622Z" fill="#183693"/>
<path d="M136.337 48.2892V31.2054C136.337 29.2238 137.946 27.6176 139.884 27.6176H143.431C147.597 27.6176 151 31.0594 151 35.273V44.2633C151 48.4769 147.597 51.9187 143.431 51.9187H139.884C137.925 51.877 136.337 50.2708 136.337 48.2892Z" fill="#183693"/>
</svg>
