<svg width="165" height="130" viewBox="0 0 165 130" fill="none" xmlns="http://www.w3.org/2000/svg">
<g clip-path="url(#clip0_22_145)">
<path d="M152.616 65.8519H106.84V95.7536H152.616V65.8519Z" fill="#183693"/>
<path d="M154.324 125.059C154.324 126.166 154.324 126.848 154.324 127.529C154.239 129.063 153.47 129.915 151.933 130C151.592 130 151.25 130 150.908 130C105.303 130 59.7826 130 14.177 130C13.8354 130 13.4083 130 13.0667 130C11.7003 129.915 10.9316 129.063 10.8462 127.7C10.7608 126.933 10.8462 126.166 10.8462 125.059C8.71114 126.422 6.91766 127.615 5.03878 128.722C3.84313 129.404 2.81829 130.511 1.28102 129.659C-0.170845 128.807 0.17077 127.359 0.17077 126.081C0.17077 106.062 0.17077 86.0419 0.17077 66.0223C0.17077 65.7667 0.085366 65.426 0.17077 65.1704C0.597788 64.3185 0.853999 63.211 1.53723 62.8703C2.22046 62.5295 3.50151 62.7851 4.09934 63.2962C6.06363 64.7444 7.94251 66.363 9.82139 67.8965C10.0776 68.0668 10.3338 68.2372 10.8462 68.578C10.8462 67.3853 10.8462 66.4482 10.8462 65.5112C10.8462 63.211 11.6149 62.5295 13.8354 62.5295C24.4254 62.5295 34.9301 62.5295 45.5201 62.5295C48.6801 62.5295 51.84 62.5295 55.2562 62.5295C55.2562 61.848 55.2562 61.3368 55.2562 60.7405C55.2562 51.54 55.2562 42.3395 55.2562 33.1389C55.2562 26.5793 59.7826 22.0642 66.4441 22.0642C69.0916 22.0642 71.7391 22.0642 74.472 22.0642C74.472 21.4679 74.5574 21.042 74.5574 20.5308C74.5574 17.6344 74.472 14.8231 74.5574 11.9266C74.6428 5.45218 80.1087 0.1704 86.5993 2.04387e-05C90.5279 -0.0851696 94.4565 2.04387e-05 98.385 2.04387e-05C100.264 2.04387e-05 101.118 0.851921 101.118 2.7261C101.118 5.87813 101.118 9.03016 101.118 12.1822C101.118 14.0564 100.264 14.9083 98.385 14.9083C96.1646 14.9083 93.9441 14.9083 91.7236 14.9083C89.5885 14.9083 89.2469 15.1638 89.2469 17.2936C89.2469 18.7418 89.2469 20.1901 89.2469 21.6383C89.2469 21.8087 89.3323 21.8939 89.4177 22.1494C92.3214 22.1494 95.2251 22.1494 98.1288 22.1494C105.303 22.1494 109.744 26.4941 109.744 33.6501C109.744 42.6802 109.744 51.7104 109.744 60.8257C109.744 61.3368 109.744 61.848 109.744 62.6147C110.427 62.6147 111.025 62.6147 111.708 62.6147C124.604 62.6147 137.5 62.6147 150.481 62.6147C153.727 62.6147 154.239 63.1258 154.239 66.3631C154.239 67.0446 154.239 67.7261 154.239 68.578C154.666 68.3224 155.008 68.152 155.264 67.9817C157.143 66.4482 158.936 64.8296 160.901 63.4666C161.584 62.9554 162.779 62.6999 163.634 62.9554C164.658 63.211 165 64.3185 165 65.426C165 86.0419 165 106.743 164.915 127.359C164.915 128.211 164.402 129.233 163.804 129.744C162.95 130.511 161.925 130.085 160.986 129.489C158.936 128.041 156.801 126.678 154.324 125.059ZM59.9534 78.5452C59.9534 94.2202 59.9534 109.81 59.9534 125.315C75.0698 125.315 90.1863 125.315 105.217 125.315C105.217 109.64 105.217 94.135 105.217 78.5452C90.0155 78.5452 74.9844 78.5452 59.9534 78.5452ZM59.7826 73.7746C75.0698 73.7746 90.1009 73.7746 105.303 73.7746C105.303 73.0931 105.303 72.5819 105.303 72.0708C105.303 59.2071 105.303 46.3434 105.303 33.3945C105.303 29.135 102.911 26.7497 98.6413 26.7497C87.9658 26.7497 77.2049 26.7497 66.5295 26.7497C62.2593 26.7497 59.868 29.135 59.868 33.3945C59.868 44.8952 59.868 56.481 59.868 67.9817C59.7826 69.941 59.7826 71.73 59.7826 73.7746ZM109.915 93.8794C123.238 93.8794 136.475 93.8794 149.627 93.8794C149.627 84.9345 149.627 76.1599 149.627 67.3001C149.286 67.2149 149.029 67.215 148.773 67.215C136.219 67.215 123.665 67.215 111.025 67.215C110.171 67.215 109.829 67.5557 109.915 68.4076C110 70.8781 109.915 73.2634 109.915 75.734C109.915 81.6973 109.915 87.7457 109.915 93.8794ZM15.458 98.6501C15.458 107.595 15.458 116.455 15.458 125.229C28.6956 125.229 41.9332 125.229 55.0854 125.229C55.0854 116.284 55.0854 107.51 55.0854 98.6501C41.8478 98.6501 28.781 98.6501 15.458 98.6501ZM149.627 98.7353C136.39 98.7353 123.152 98.7353 110 98.7353C110 107.68 110 116.455 110 125.315C123.238 125.315 136.39 125.315 149.627 125.315C149.627 116.455 149.627 107.68 149.627 98.7353ZM55.0854 93.8794C55.0854 84.9345 55.0854 76.1599 55.0854 67.3001C41.8478 67.3001 28.6956 67.3001 15.5434 67.3001C15.5434 76.2451 15.5434 85.1049 15.5434 93.8794C28.781 93.8794 41.8478 93.8794 55.0854 93.8794ZM4.78257 69.8558C4.78257 87.8309 4.78257 105.465 4.78257 123.44C6.83226 122.163 8.62574 120.97 10.4192 119.777C10.6754 119.607 10.7608 119.01 10.7608 118.585C10.7608 104.358 10.7608 90.0459 10.7608 75.8191C10.7608 75.3932 10.6754 74.7969 10.3338 74.5413C8.62574 72.9227 6.74686 71.4745 4.78257 69.8558ZM160.303 69.8558C158.253 71.4745 156.46 72.9227 154.752 74.4561C154.41 74.7117 154.324 75.308 154.324 75.734C154.324 90.0459 154.324 104.358 154.324 118.67C154.324 119.096 154.41 119.607 154.666 119.862C156.46 121.055 158.338 122.248 160.303 123.526C160.303 105.465 160.303 87.8309 160.303 69.8558ZM90.3571 4.60028C89.076 4.60028 88.0512 4.60028 86.941 4.60028C83.1832 4.68547 79.767 7.24117 79.34 10.9895C78.913 14.5675 79.2546 18.3159 79.2546 22.0642C81.0481 22.0642 82.8416 22.0642 84.8059 22.0642C84.8059 20.1901 84.8059 18.3159 84.8059 16.5269C84.8059 14.3971 85.6599 12.6933 87.368 11.5007C88.222 10.9043 89.3323 10.5636 90.3571 10.1376C90.3571 8.34864 90.3571 6.64484 90.3571 4.60028ZM95.0543 7.24117C95.0543 8.00788 94.9689 8.77459 95.0543 9.5413C95.0543 9.79687 95.5667 10.2228 95.8229 10.2228C96.0791 10.2228 96.5062 9.79687 96.5062 9.5413C96.5916 8.17826 96.5916 6.73003 96.5062 5.36699C96.5062 5.11142 95.9937 4.68547 95.7375 4.68547C95.4813 4.68547 95.0543 5.11142 94.9689 5.36699C94.9689 6.04851 95.0543 6.64484 95.0543 7.24117Z" fill="white"/>
<path d="M59.9534 78.5452C75.0698 78.5452 90.1009 78.5452 105.217 78.5452C105.217 94.135 105.217 109.64 105.217 125.315C90.1863 125.315 75.1552 125.315 59.9534 125.315C59.9534 109.725 59.9534 94.2202 59.9534 78.5452ZM92.7484 120.714C94.7127 120.714 96.677 120.714 98.6413 120.714C100.179 120.714 101.203 119.692 101.203 118.329C101.203 116.966 100.179 116.114 98.5559 116.114C94.6273 116.114 90.7841 116.114 86.8555 116.114C85.1475 116.114 84.1226 117.051 84.208 118.414C84.208 119.777 85.2329 120.714 86.941 120.714C88.9052 120.714 90.8695 120.714 92.7484 120.714Z" fill="#183693"/>
<path d="M59.7826 73.7746C59.7826 71.8152 59.7826 69.9411 59.7826 68.0669C59.7826 56.5662 59.7826 44.9804 59.7826 33.4797C59.7826 29.2202 62.1739 26.8349 66.4441 26.8349C77.1196 26.8349 87.8804 26.8349 98.5559 26.8349C102.826 26.8349 105.217 29.2202 105.217 33.4797C105.217 46.3434 105.217 59.2071 105.217 72.156C105.217 72.6671 105.217 73.1783 105.217 73.8598C90.1009 73.7746 75.0699 73.7746 59.7826 73.7746ZM82.5 61.0813C88.222 61.0813 92.8338 56.5662 92.9192 50.8585C92.9192 45.1508 88.3074 40.5505 82.5854 40.5505C76.8633 40.5505 72.1661 45.1508 72.1661 50.7733C72.1661 56.481 76.7779 61.0813 82.5 61.0813Z" fill="#183693"/>
<path d="M15.458 98.6501C28.6956 98.6501 41.8478 98.6501 55.0853 98.6501C55.0853 107.51 55.0853 116.284 55.0853 125.229C41.9332 125.229 28.781 125.229 15.458 125.229C15.458 116.455 15.458 107.68 15.458 98.6501Z" fill="#183693"/>
<path d="M149.627 98.7353C149.627 107.68 149.627 116.455 149.627 125.315C136.39 125.315 123.323 125.315 110 125.315C110 116.455 110 107.68 110 98.7353C123.152 98.7353 136.304 98.7353 149.627 98.7353ZM125.543 110.917C122.896 110.917 120.846 112.962 120.846 115.603C120.846 118.244 122.896 120.288 125.458 120.288C128.106 120.288 130.241 118.329 130.241 115.688C130.241 112.962 128.191 110.917 125.543 110.917ZM143.564 115.518C143.564 112.877 141.429 110.832 138.781 110.832C136.219 110.917 134.169 112.962 134.084 115.518C134.084 118.159 136.219 120.203 138.781 120.288C141.514 120.288 143.649 118.159 143.564 115.518Z" fill="#183693"/>
<path d="M55.0854 93.8795C41.8478 93.8795 28.781 93.8795 15.5435 93.8795C15.5435 85.0197 15.5435 76.2451 15.5435 67.3002C28.6956 67.3002 41.8478 67.3002 55.0854 67.3002C55.0854 76.1599 55.0854 85.0197 55.0854 93.8795ZM32.1118 76.0747C32.1118 78.7156 34.3323 80.8454 36.8944 80.7602C39.4565 80.675 41.5916 78.6304 41.5916 76.0747C41.5916 73.4339 39.4565 71.3041 36.8944 71.3041C34.1615 71.3041 32.0264 73.519 32.1118 76.0747ZM28.0978 76.0747C28.0978 73.4339 26.0481 71.3041 23.4006 71.3041C20.7531 71.3041 18.618 73.4339 18.7034 76.0747C18.7034 78.6304 20.8385 80.7602 23.3152 80.7602C25.9627 80.8454 28.0978 78.7156 28.0978 76.0747Z" fill="#183693"/>
<path d="M4.78259 69.8558C6.83228 71.4744 8.62576 72.9227 10.4192 74.4561C10.6754 74.7117 10.8463 75.308 10.8463 75.7339C10.8463 89.9607 10.8463 104.273 10.8463 118.499C10.8463 118.925 10.7609 119.522 10.5046 119.692C8.71116 120.885 6.83228 122.077 4.868 123.355C4.78259 105.465 4.78259 87.8309 4.78259 69.8558Z" fill="white"/>
<path d="M160.303 69.8558C160.303 87.8309 160.303 105.465 160.303 123.44C158.253 122.163 156.46 121.055 154.666 119.777C154.41 119.607 154.324 119.01 154.324 118.585C154.324 104.273 154.324 89.9607 154.324 75.6488C154.324 75.2228 154.495 74.6265 154.751 74.3709C156.545 72.9227 158.338 71.4744 160.303 69.8558Z" fill="white"/>
<path d="M90.3571 4.60027C90.3571 6.55964 90.3571 8.34863 90.3571 10.0524C89.2468 10.5636 88.222 10.8191 87.368 11.4155C85.6599 12.6081 84.8059 14.3119 84.8059 16.4417C84.8059 18.2307 84.8059 20.1049 84.8059 21.979C82.927 21.979 81.1335 21.979 79.2546 21.979C79.2546 18.2307 78.913 14.5675 79.34 10.9043C79.767 7.15597 83.1832 4.60027 86.9409 4.51508C87.9658 4.60027 89.076 4.60027 90.3571 4.60027Z" fill="#183693"/>
<path d="M95.0543 7.24119C95.0543 6.64486 94.9689 5.96334 95.0543 5.36701C95.1397 5.11144 95.4813 4.68549 95.8229 4.68549C96.0792 4.68549 96.5916 5.11144 96.5916 5.36701C96.677 6.73005 96.677 8.17828 96.5916 9.54132C96.5916 9.79689 96.1646 10.2228 95.9084 10.2228C95.6521 10.2228 95.1397 9.79689 95.1397 9.54132C94.9689 8.77461 95.0543 8.0079 95.0543 7.24119Z" fill="white"/>
<path d="M92.7484 120.714C90.8695 120.714 88.9053 120.714 87.0264 120.714C85.3183 120.714 84.2935 119.862 84.2935 118.414C84.2935 116.966 85.2329 116.114 86.941 116.114C90.8695 116.114 94.7127 116.114 98.6413 116.114C100.179 116.114 101.203 117.051 101.289 118.329C101.289 119.692 100.349 120.629 98.7267 120.714C96.677 120.714 94.7127 120.714 92.7484 120.714Z" fill="white"/>
<path d="M82.5 61.0813C76.7779 61.0813 72.1661 56.481 72.1661 50.7733C72.1661 45.0656 76.8633 40.4653 82.5854 40.5505C88.3074 40.5505 92.9193 45.2359 92.9193 50.8585C92.8338 56.5662 88.222 61.0813 82.5 61.0813ZM82.7562 45.0656C79.5963 44.9804 76.8633 47.4509 76.8633 50.6029C76.7779 53.7549 79.2546 56.3106 82.4146 56.3958C85.5745 56.481 88.222 54.0105 88.3074 50.8585C88.3074 47.7916 85.8307 45.1507 82.7562 45.0656Z" fill="white"/>
<path d="M125.543 71.9174C128.191 71.9174 130.241 74.0472 130.241 76.6881C130.241 79.329 128.106 81.3736 125.458 81.2884C122.896 81.2884 120.846 79.1586 120.846 76.6029C120.761 73.962 122.896 71.8323 125.543 71.9174Z" fill="white"/>
<path d="M143.564 76.5177C143.564 79.1586 141.514 81.2884 138.866 81.2884C136.219 81.2884 134.084 79.1586 134.169 76.5177C134.169 73.962 136.219 71.9175 138.866 71.8323C141.429 71.8323 143.564 73.962 143.564 76.5177Z" fill="white"/>
<path d="M32.1118 76.0747C32.1118 73.4338 34.2469 71.3041 36.809 71.3041C39.4565 71.3041 41.5916 73.4338 41.5062 76.0747C41.5062 78.6304 39.3711 80.675 36.809 80.7602C34.3323 80.8454 32.1118 78.7156 32.1118 76.0747Z" fill="white"/>
<path d="M28.0978 76.0747C28.0978 78.7156 25.9627 80.8454 23.3152 80.7602C20.7531 80.675 18.7034 78.6304 18.7034 76.0747C18.7034 73.4338 20.8385 71.3041 23.4006 71.3041C26.0481 71.3041 28.1832 73.4338 28.0978 76.0747Z" fill="white"/>
<path d="M82.7561 45.0655C85.8307 45.1507 88.3928 47.7916 88.3074 50.8585C88.222 54.0105 85.5745 56.481 82.4145 56.3958C79.2546 56.3106 76.8633 53.7549 76.8633 50.6029C76.8633 47.5361 79.5108 44.9804 82.7561 45.0655Z" fill="#183693"/>
<rect x="112" y="104" width="36" height="19" fill="#183693"/>
</g>
<defs>
<clipPath id="clip0_22_145">
<rect width="165" height="130" fill="white"/>
</clipPath>
</defs>
</svg>
