<svg width="165" height="131" viewBox="0 0 165 131" fill="none" xmlns="http://www.w3.org/2000/svg">
<path d="M152.484 65.8898H106.707V95.7915H152.484V65.8898Z" fill="white"/>
<path d="M154.192 125.097C154.192 126.204 154.192 126.886 154.192 127.567C154.106 129.101 153.338 129.953 151.8 130.038C151.459 130.038 151.117 130.038 150.776 130.038C105.17 130.038 59.6498 130.038 14.0442 130.038C13.7026 130.038 13.2755 130.038 12.9339 130.038C11.5675 129.953 10.7988 129.101 10.7134 127.738C10.628 126.971 10.7134 126.204 10.7134 125.097C8.57833 126.46 6.78485 127.653 4.90597 128.76C3.71032 129.442 2.68547 130.549 1.14821 129.697C-0.303658 128.845 0.0379572 127.397 0.0379572 126.119C0.0379572 106.099 0.0379572 86.0798 0.0379572 66.0601C0.0379572 65.8046 -0.0474465 65.4638 0.0379572 65.2082C0.464976 64.3563 0.721187 63.2489 1.40442 62.9081C2.08765 62.5673 3.3687 62.8229 3.96653 63.3341C5.93081 64.7823 7.8097 66.4009 9.68858 67.9343C9.94479 68.1047 10.201 68.2751 10.7134 68.6158C10.7134 67.4232 10.7134 66.4861 10.7134 65.549C10.7134 63.2489 11.4821 62.5673 13.7026 62.5673C24.2926 62.5673 34.7973 62.5673 45.3873 62.5673C48.5473 62.5673 51.7072 62.5673 55.1234 62.5673C55.1234 61.8858 55.1234 61.3747 55.1234 60.7784C55.1234 51.5778 55.1234 42.3773 55.1234 33.1768C55.1234 26.6172 59.6498 22.1021 66.3112 22.1021C68.9588 22.1021 71.6063 22.1021 74.3392 22.1021C74.3392 21.5057 74.4246 21.0798 74.4246 20.5687C74.4246 17.6722 74.3392 14.8609 74.4246 11.9645C74.51 5.49002 79.9758 0.208242 86.4665 0.0378622C90.3951 -0.0473278 94.3237 0.0378622 98.2522 0.0378622C100.131 0.0378622 100.985 0.889763 100.985 2.76394C100.985 5.91597 100.985 9.06801 100.985 12.22C100.985 14.0942 100.131 14.9461 98.2522 14.9461C96.0317 14.9461 93.8112 14.9461 91.5907 14.9461C89.4557 14.9461 89.114 15.2017 89.114 17.3314C89.114 18.7797 89.114 20.2279 89.114 21.6761C89.114 21.8465 89.1994 21.9317 89.2848 22.1873C92.1886 22.1873 95.0923 22.1873 97.996 22.1873C105.17 22.1873 109.611 26.532 109.611 33.6879C109.611 42.7181 109.611 51.7482 109.611 60.8635C109.611 61.3747 109.611 61.8858 109.611 62.6525C110.294 62.6525 110.892 62.6525 111.575 62.6525C124.471 62.6525 137.367 62.6525 150.349 62.6525C153.594 62.6525 154.106 63.1637 154.106 66.4009C154.106 67.0824 154.106 67.7639 154.106 68.6158C154.533 68.3603 154.875 68.1899 155.131 68.0195C157.01 66.4861 158.803 64.8675 160.768 63.5044C161.451 62.9933 162.647 62.7377 163.501 62.9933C164.526 63.2489 164.867 64.3563 164.867 65.4638C164.867 86.0798 164.867 106.781 164.782 127.397C164.782 128.249 164.269 129.271 163.671 129.782C162.817 130.549 161.793 130.123 160.853 129.527C158.803 128.078 156.668 126.715 154.192 125.097ZM59.8206 78.5831C59.8206 94.258 59.8206 109.848 59.8206 125.352C74.937 125.352 90.0535 125.352 105.085 125.352C105.085 109.677 105.085 94.1728 105.085 78.5831C89.8827 78.5831 74.8516 78.5831 59.8206 78.5831ZM59.6498 73.8124C74.937 73.8124 89.9681 73.8124 105.17 73.8124C105.17 73.1309 105.17 72.6198 105.17 72.1086C105.17 59.2449 105.17 46.3812 105.17 33.4324C105.17 29.1729 102.779 26.7875 98.5084 26.7875C87.833 26.7875 77.0721 26.7875 66.3967 26.7875C62.1265 26.7875 59.7352 29.1729 59.7352 33.4324C59.7352 44.933 59.7352 56.5189 59.7352 68.0195C59.6498 69.9789 59.6498 71.7679 59.6498 73.8124ZM109.782 93.9173C123.105 93.9173 136.342 93.9173 149.494 93.9173C149.494 84.9723 149.494 76.1977 149.494 67.338C149.153 67.2528 148.897 67.2528 148.64 67.2528C136.086 67.2528 123.532 67.2528 110.892 67.2528C110.038 67.2528 109.696 67.5936 109.782 68.4455C109.867 70.916 109.782 73.3013 109.782 75.7718C109.782 81.7351 109.782 87.7836 109.782 93.9173ZM15.3252 98.6879C15.3252 107.633 15.3252 116.493 15.3252 125.267C28.5628 125.267 41.8004 125.267 54.9526 125.267C54.9526 116.322 54.9526 107.548 54.9526 98.6879C41.715 98.6879 28.6482 98.6879 15.3252 98.6879ZM149.494 98.7731C136.257 98.7731 123.019 98.7731 109.867 98.7731C109.867 107.718 109.867 116.493 109.867 125.352C123.105 125.352 136.257 125.352 149.494 125.352C149.494 116.493 149.494 107.718 149.494 98.7731ZM54.9526 93.9173C54.9526 84.9723 54.9526 76.1977 54.9526 67.338C41.715 67.338 28.5628 67.338 15.4106 67.338C15.4106 76.2829 15.4106 85.1427 15.4106 93.9173C28.6482 93.9173 41.715 93.9173 54.9526 93.9173ZM4.64976 69.8937C4.64976 87.8688 4.64976 105.503 4.64976 123.478C6.69945 122.2 8.49293 121.008 10.2864 119.815C10.5426 119.645 10.628 119.048 10.628 118.622C10.628 104.396 10.628 90.0837 10.628 75.857C10.628 75.431 10.5426 74.8347 10.201 74.5791C8.49293 72.9605 6.61404 71.5123 4.64976 69.8937ZM160.17 69.8937C158.12 71.5123 156.327 72.9605 154.619 74.4939C154.277 74.7495 154.192 75.3458 154.192 75.7718C154.192 90.0837 154.192 104.396 154.192 118.708C154.192 119.134 154.277 119.645 154.533 119.9C156.327 121.093 158.206 122.286 160.17 123.563C160.17 105.503 160.17 87.8688 160.17 69.8937ZM90.2243 4.63812C88.9432 4.63812 87.9184 4.63812 86.8081 4.63812C83.0504 4.72331 79.6342 7.27901 79.2072 11.0274C78.7802 14.6054 79.1218 18.3537 79.1218 22.1021C80.9153 22.1021 82.7088 22.1021 84.673 22.1021C84.673 20.2279 84.673 18.3537 84.673 16.5647C84.673 14.435 85.5271 12.7312 87.2352 11.5385C88.0892 10.9422 89.1994 10.6014 90.2243 10.1755C90.2243 8.38648 90.2243 6.68268 90.2243 4.63812ZM94.9215 7.27901C94.9215 8.04572 94.8361 8.81243 94.9215 9.57914C94.9215 9.83471 95.4339 10.2607 95.6901 10.2607C95.9463 10.2607 96.3734 9.83471 96.3734 9.57914C96.4588 8.2161 96.4588 6.76787 96.3734 5.40483C96.3734 5.14926 95.8609 4.72331 95.6047 4.72331C95.3485 4.72331 94.9215 5.14926 94.8361 5.40483C94.8361 6.08635 94.9215 6.68268 94.9215 7.27901Z" fill="#314C9F"/>
<path d="M59.8206 78.5831C74.937 78.5831 89.9681 78.5831 105.085 78.5831C105.085 94.1728 105.085 109.677 105.085 125.352C90.0535 125.352 75.0224 125.352 59.8206 125.352C59.8206 109.763 59.8206 94.258 59.8206 78.5831ZM92.6156 120.752C94.5799 120.752 96.5442 120.752 98.5084 120.752C100.046 120.752 101.071 119.73 101.071 118.367C101.071 117.004 100.046 116.152 98.423 116.152C94.4945 116.152 90.6513 116.152 86.7227 116.152C85.0147 116.152 83.9898 117.089 84.0752 118.452C84.0752 119.815 85.1001 120.752 86.8081 120.752C88.7724 120.752 90.7367 120.752 92.6156 120.752Z" fill="white"/>
<path d="M59.6497 73.8124C59.6497 71.8531 59.6497 69.9789 59.6497 68.1047C59.6497 56.604 59.6497 45.0182 59.6497 33.5175C59.6497 29.258 62.041 26.8727 66.3112 26.8727C76.9866 26.8727 87.7475 26.8727 98.423 26.8727C102.693 26.8727 105.084 29.258 105.084 33.5175C105.084 46.3812 105.084 59.2449 105.084 72.1938C105.084 72.7049 105.084 73.2161 105.084 73.8976C89.968 73.8124 74.9369 73.8124 59.6497 73.8124ZM82.3671 61.1191C88.0891 61.1191 92.7009 56.604 92.7863 50.8963C92.7863 45.1886 88.1745 40.5883 82.4525 40.5883C76.7304 40.5883 72.0332 45.1886 72.0332 50.8111C72.0332 56.5188 76.645 61.1191 82.3671 61.1191Z" fill="white"/>
<path d="M15.3252 98.6879C28.5628 98.6879 41.7149 98.6879 54.9525 98.6879C54.9525 107.548 54.9525 116.322 54.9525 125.267C41.8003 125.267 28.6482 125.267 15.3252 125.267C15.3252 116.493 15.3252 107.718 15.3252 98.6879Z" fill="white"/>
<path d="M149.494 98.7731C149.494 107.718 149.494 116.493 149.494 125.352C136.257 125.352 123.19 125.352 109.867 125.352C109.867 116.493 109.867 107.718 109.867 98.7731C123.019 98.7731 136.172 98.7731 149.494 98.7731ZM125.411 110.955C122.763 110.955 120.713 113 120.713 115.641C120.713 118.282 122.763 120.326 125.325 120.326C127.973 120.326 130.108 118.367 130.108 115.726C130.108 113 128.058 110.955 125.411 110.955ZM143.431 115.556C143.431 112.915 141.296 110.87 138.648 110.87C136.086 110.955 134.036 113 133.951 115.556C133.951 118.196 136.086 120.241 138.648 120.326C141.381 120.326 143.516 118.196 143.431 115.556Z" fill="white"/>
<path d="M54.9526 93.9173C41.715 93.9173 28.6482 93.9173 15.4106 93.9173C15.4106 85.0575 15.4106 76.2829 15.4106 67.338C28.5628 67.338 41.715 67.338 54.9526 67.338C54.9526 76.1977 54.9526 85.0575 54.9526 93.9173ZM31.979 76.1126C31.979 78.7535 34.1995 80.8832 36.7616 80.798C39.3237 80.7128 41.4588 78.6683 41.4588 76.1126C41.4588 73.4717 39.3237 71.3419 36.7616 71.3419C34.0287 71.3419 31.8936 73.5569 31.979 76.1126ZM27.965 76.1126C27.965 73.4717 25.9153 71.3419 23.2678 71.3419C20.6203 71.3419 18.4852 73.4717 18.5706 76.1126C18.5706 78.6683 20.7057 80.798 23.1824 80.798C25.8299 80.8832 27.965 78.7535 27.965 76.1126Z" fill="white"/>
<path d="M4.64966 69.8937C6.69935 71.5123 8.49283 72.9605 10.2863 74.4939C10.5425 74.7495 10.7133 75.3458 10.7133 75.7718C10.7133 89.9985 10.7133 104.31 10.7133 118.537C10.7133 118.963 10.6279 119.559 10.3717 119.73C8.57823 120.923 6.69935 122.115 4.73506 123.393C4.64966 105.503 4.64966 87.8688 4.64966 69.8937Z" fill="#314C9F"/>
<path d="M160.17 69.8937C160.17 87.8688 160.17 105.503 160.17 123.478C158.12 122.2 156.327 121.093 154.533 119.815C154.277 119.645 154.192 119.048 154.192 118.622C154.192 104.31 154.192 89.9985 154.192 75.6866C154.192 75.2607 154.362 74.6643 154.619 74.4088C156.412 72.9605 158.206 71.5123 160.17 69.8937Z" fill="#314C9F"/>
<path d="M90.2243 4.63811C90.2243 6.59748 90.2243 8.38647 90.2243 10.0903C89.114 10.6014 88.0892 10.857 87.2352 11.4533C85.5271 12.646 84.673 14.3498 84.673 16.4795C84.673 18.2685 84.673 20.1427 84.673 22.0169C82.7942 22.0169 81.0007 22.0169 79.1218 22.0169C79.1218 18.2685 78.7802 14.6053 79.2072 10.9422C79.6342 7.19381 83.0504 4.63811 86.8081 4.55292C87.833 4.63811 88.9432 4.63811 90.2243 4.63811Z" fill="white"/>
<path d="M94.9215 7.27903C94.9215 6.6827 94.8361 6.00118 94.9215 5.40485C95.0069 5.14928 95.3485 4.72333 95.6901 4.72333C95.9463 4.72333 96.4588 5.14928 96.4588 5.40485C96.5442 6.76789 96.5442 8.21612 96.4588 9.57916C96.4588 9.83473 96.0318 10.2607 95.7755 10.2607C95.5193 10.2607 95.0069 9.83473 95.0069 9.57916C94.8361 8.81245 94.9215 8.04574 94.9215 7.27903Z" fill="#314C9F"/>
<path d="M92.6156 120.752C90.7367 120.752 88.7724 120.752 86.8936 120.752C85.1855 120.752 84.1606 119.9 84.1606 118.452C84.1606 117.004 85.1001 116.152 86.8082 116.152C90.7367 116.152 94.5799 116.152 98.5085 116.152C100.046 116.152 101.071 117.089 101.156 118.367C101.156 119.73 100.217 120.667 98.5939 120.752C96.5442 120.752 94.5799 120.752 92.6156 120.752Z" fill="#314C9F"/>
<path d="M82.3671 61.1191C76.645 61.1191 72.0332 56.5189 72.0332 50.8111C72.0332 45.1034 76.7304 40.5031 82.4525 40.5883C88.1745 40.5883 92.7863 45.2738 92.7863 50.8963C92.7009 56.6041 88.0891 61.1191 82.3671 61.1191ZM82.6233 45.1034C79.4633 45.0182 76.7304 47.4887 76.7304 50.6408C76.645 53.7928 79.1217 56.3485 82.2817 56.4337C85.4416 56.5189 88.0891 54.0484 88.1745 50.8963C88.1745 47.8295 85.6978 45.1886 82.6233 45.1034Z" fill="#314C9F"/>
<path d="M125.411 71.9553C128.058 71.9553 130.108 74.085 130.108 76.7259C130.108 79.3668 127.973 81.4114 125.325 81.3262C122.763 81.3262 120.713 79.1965 120.713 76.6407C120.628 73.9999 122.763 71.8701 125.411 71.9553Z" fill="#314C9F"/>
<path d="M143.431 76.5556C143.431 79.1965 141.381 81.3262 138.734 81.3262C136.086 81.3262 133.951 79.1965 134.036 76.5556C134.036 73.9999 136.086 71.9553 138.734 71.8701C141.296 71.8701 143.431 73.9999 143.431 76.5556Z" fill="#314C9F"/>
<path d="M31.979 76.1126C31.979 73.4717 34.1141 71.3419 36.6762 71.3419C39.3237 71.3419 41.4588 73.4717 41.3734 76.1126C41.3734 78.6683 39.2383 80.7128 36.6762 80.798C34.1995 80.8832 31.979 78.7535 31.979 76.1126Z" fill="#314C9F"/>
<path d="M27.965 76.1126C27.965 78.7535 25.8299 80.8832 23.1824 80.798C20.6202 80.7128 18.5706 78.6683 18.5706 76.1126C18.5706 73.4717 20.7056 71.3419 23.2678 71.3419C25.9153 71.3419 28.0504 73.4717 27.965 76.1126Z" fill="#314C9F"/>
<path d="M82.6233 45.1034C85.6979 45.1886 88.26 47.8295 88.1746 50.8963C88.0892 54.0483 85.4416 56.5188 82.2817 56.4337C79.1218 56.3485 76.7305 53.7928 76.7305 50.6407C76.7305 47.5739 79.378 45.0182 82.6233 45.1034Z" fill="white"/>
</svg>
