<svg id="svg" xmlns="http://www.w3.org/2000/svg" xmlns:xlink="http://www.w3.org/1999/xlink" width="400" height="400" viewBox="0, 0, 400,400"><g id="svgg" stroke-width="20"><path id="path0" d="M135.783 92.501 C 105.657 97.029,81.752 122.732,78.584 154.000 L 77.977 160.000 81.996 160.000 L 86.015 160.000 86.647 154.102 C 89.646 126.093,109.856 105.039,138.042 100.560 L 146.750 99.176 146.486 95.588 C 146.182 91.449,145.015 91.113,135.783 92.501 M134.763 115.131 C 116.322 120.194,102.406 136.236,100.712 154.386 L 100.187 160.000 104.316 160.000 C 108.421 160.000,108.444 159.983,108.444 156.968 C 108.444 140.934,124.781 123.788,141.724 122.039 L 146.667 121.529 146.667 117.653 L 146.667 113.778 142.889 113.857 C 140.811 113.901,137.154 114.474,134.763 115.131 M141.623 136.088 C 131.883 137.887,123.422 146.901,122.517 156.444 L 122.222 159.556 126.182 159.556 C 130.062 159.556,130.157 159.486,130.854 156.130 C 132.165 149.820,136.767 145.441,143.556 144.042 C 145.891 143.561,146.257 143.068,146.505 140.074 C 146.862 135.765,146.217 135.239,141.623 136.088 M184.444 142.809 C 138.349 152.665,114.365 204.371,136.283 246.639 C 163.372 298.879,239.848 296.903,264.924 243.315 C 289.854 190.038,242.155 130.469,184.444 142.809 M213.149 150.748 C 242.071 156.720,263.396 183.107,263.367 212.889 C 263.311 269.551,194.981 298.175,155.100 258.243 C 110.100 213.186,150.773 137.869,213.149 150.748 M167.556 186.313 C 149.460 196.149,150.945 228.777,169.715 233.773 C 177.698 235.898,184.722 233.625,184.192 229.088 L 183.838 226.055 177.405 226.468 C 167.040 227.133,162.667 221.862,162.667 208.703 C 162.667 196.028,170.381 189.802,182.128 192.996 C 183.776 193.444,185.410 187.721,184.028 186.339 C 182.365 184.676,170.602 184.657,167.556 186.313 M198.667 186.239 C 183.417 193.898,183.599 226.315,198.929 233.097 C 213.272 239.441,225.827 224.095,223.001 203.672 C 220.998 189.192,209.371 180.863,198.667 186.239 M211.415 195.087 C 220.171 205.059,215.985 227.071,205.333 227.071 C 200.820 227.071,197.717 224.172,195.984 218.335 C 190.915 201.265,202.076 184.450,211.415 195.087 M229.067 217.420 C 227.102 218.486,226.705 219.179,227.178 220.718 C 227.971 223.302,227.745 223.221,230.876 222.039 C 238.626 219.114,238.436 226.801,230.529 236.096 C 224.411 243.288,224.964 244.444,234.519 244.444 C 243.308 244.444,243.468 244.385,242.880 241.312 C 242.509 239.369,242.003 239.111,238.563 239.111 C 233.968 239.111,233.778 238.518,237.292 235.150 C 247.605 225.270,240.970 210.967,229.067 217.420 " stroke="none" fill="blue" fill-rule="evenodd"></path></g></svg>