<svg width="136" height="140" viewBox="0 0 136 140" fill="none" xmlns="http://www.w3.org/2000/svg">
<path opacity="0.89" d="M89.7158 5.28513C91.428 5.28911 93.136 5.11483 94.8121 4.7651L94.7913 0.475885C93.1108 0.14095 91.4 -0.0179976 89.6867 0.00161627C84.8691 0.0265778 80.9793 1.24969 80.9876 2.68498C80.9959 4.12026 84.9065 5.31009 89.7158 5.28513ZM33.3236 104.931C33.8197 104.819 34.2713 104.562 34.6214 104.194C34.9715 103.825 35.2043 103.36 35.2904 102.859C35.3765 102.358 35.312 101.842 35.105 101.378C34.8981 100.913 34.558 100.52 34.1278 100.249C33.6976 99.9777 33.1966 99.8401 32.6882 99.8536C32.1798 99.8671 31.6868 100.031 31.2716 100.325C30.8564 100.618 30.5377 101.029 30.3557 101.504C30.1737 101.979 30.1366 102.497 30.2492 102.993C30.4 103.657 30.8086 104.235 31.3851 104.598C31.9616 104.962 32.6588 105.082 33.3236 104.931V104.931ZM36.1942 117.524C37.0271 117.335 37.7853 116.903 38.3727 116.283C38.9602 115.663 39.3506 114.883 39.4945 114.041C39.6384 113.199 39.5294 112.333 39.1813 111.553C38.8332 110.773 38.2616 110.114 37.5388 109.659C36.816 109.204 35.9744 108.973 35.1206 108.997C34.2667 109.02 33.439 109.296 32.7419 109.789C32.0449 110.283 31.51 110.972 31.2047 111.77C30.8995 112.568 30.8377 113.438 31.0271 114.271C31.2811 115.388 31.9681 116.358 32.937 116.968C33.906 117.578 35.0776 117.778 36.1942 117.524V117.524ZM27.0416 118.153C26.5459 118.266 26.0948 118.523 25.7454 118.893C25.3961 119.262 25.1641 119.727 25.0789 120.229C24.9937 120.73 25.0591 121.245 25.2668 121.709C25.4745 122.173 25.8151 122.566 26.2457 122.836C26.6763 123.107 27.1774 123.244 27.6857 123.229C28.194 123.215 28.6866 123.05 29.1014 122.756C29.5161 122.462 29.8342 122.051 30.0156 121.576C30.1969 121.101 30.2334 120.583 30.1202 120.087C29.9685 119.422 29.5589 118.845 28.9816 118.482C28.4042 118.12 27.7064 118.001 27.0416 118.153V118.153ZM26.0432 113.647C26.5388 113.534 26.9899 113.277 27.3394 112.908C27.6888 112.538 27.921 112.074 28.0065 111.573C28.092 111.072 28.027 110.556 27.8197 110.092C27.6125 109.628 27.2723 109.236 26.8421 108.965C26.4119 108.694 25.9111 108.557 25.4029 108.57C24.8947 108.584 24.402 108.748 23.987 109.042C23.572 109.335 23.2534 109.745 23.0714 110.22C22.8894 110.695 22.8522 111.213 22.9646 111.708C23.1164 112.373 23.5258 112.951 24.1029 113.314C24.6801 113.678 25.3779 113.798 26.0432 113.647V113.647ZM37.0262 121.235C36.5302 121.348 36.0785 121.604 35.7284 121.973C35.3783 122.342 35.1455 122.807 35.0594 123.308C34.9733 123.809 35.0379 124.325 35.2448 124.789C35.4517 125.254 35.7918 125.647 36.222 125.918C36.6522 126.189 37.1532 126.327 37.6616 126.313C38.17 126.3 38.663 126.136 39.0782 125.842C39.4934 125.548 39.8121 125.138 39.9941 124.663C40.1761 124.188 40.2132 123.67 40.1006 123.174C40.0265 122.845 39.888 122.533 39.6933 122.257C39.4985 121.982 39.2512 121.747 38.9657 121.567C38.6801 121.387 38.3618 121.265 38.029 121.208C37.6962 121.151 37.3554 121.16 37.0262 121.235ZM29.4878 88.0034C24.4822 89.14 19.926 91.7355 16.3956 95.4617C12.8651 99.1879 10.519 103.877 9.65388 108.937C8.78878 113.997 9.44357 119.199 11.5354 123.887C13.6273 128.574 17.0623 132.536 21.406 135.271C25.7497 138.006 30.8069 139.392 35.9381 139.253C41.0693 139.114 46.044 137.456 50.233 134.489C54.4219 131.523 57.6371 127.38 59.4717 122.586C61.3064 117.792 61.6781 112.562 60.5399 107.557C59.0141 100.846 54.8857 95.017 49.0626 91.3503C43.2395 87.6835 36.1984 86.4796 29.4878 88.0034V88.0034ZM38.5281 127.884C35.6471 128.536 32.6374 128.32 29.8792 127.262C27.1211 126.205 24.7384 124.353 23.0322 121.942C21.3261 119.53 20.3731 116.667 20.2938 113.715C20.2144 110.762 21.0122 107.852 22.5864 105.352C24.1605 102.852 26.4403 100.876 29.1377 99.6714C31.835 98.4672 34.8288 98.0897 37.7407 98.5865C40.6525 99.0834 43.3517 100.432 45.4971 102.463C47.6425 104.493 49.1378 107.114 49.794 109.994C50.2308 111.909 50.2857 113.891 49.9557 115.826C49.6257 117.762 48.9172 119.614 47.8708 121.275C46.8244 122.937 45.4606 124.376 43.8574 125.51C42.2543 126.644 40.4433 127.45 38.5281 127.884ZM44.9016 114.088C44.4059 114.201 43.9548 114.458 43.6054 114.828C43.2559 115.197 43.0238 115.661 42.9383 116.162C42.8528 116.664 42.9177 117.179 43.125 117.643C43.3322 118.107 43.6725 118.5 44.1026 118.771C44.5328 119.041 45.0337 119.179 45.5418 119.165C46.05 119.151 46.5428 118.987 46.9577 118.694C47.3727 118.4 47.6914 117.99 47.8733 117.515C48.0553 117.041 48.0925 116.523 47.9802 116.027C47.8284 115.362 47.419 114.784 46.8418 114.421C46.2646 114.057 45.5668 113.938 44.9016 114.088ZM43.8865 109.603C44.3825 109.491 44.8342 109.234 45.1843 108.865C45.5343 108.497 45.7672 108.032 45.8533 107.531C45.9393 107.03 45.8748 106.514 45.6679 106.05C45.461 105.585 45.1209 105.192 44.6907 104.921C44.2605 104.65 43.7595 104.512 43.2511 104.526C42.7427 104.539 42.2497 104.703 41.8345 104.997C41.4193 105.29 41.1006 105.701 40.9186 106.176C40.7366 106.651 40.6995 107.169 40.812 107.665C40.9629 108.329 41.3715 108.907 41.948 109.27C42.5245 109.634 43.2217 109.754 43.8865 109.603V109.603ZM115.526 44.4206C115.526 26.3235 115.526 11.9707 115.526 10.6893C115.617 10.0403 115.942 6.94507 113.833 4.40316C112.202 2.46448 109.623 1.60331 106.136 1.60331H97.3498C96.9338 1.60331 96.4554 1.18729 95.8605 0.995916V1.60331H95.8189V3.71672H95.8729V4.54877C96.6509 4.30747 97.2333 4.41148 97.7201 3.71672H106.132C108.903 3.71672 110.908 4.38236 112.081 5.77188C113.72 7.70224 113.288 10.4064 113.284 10.4272V10.6144C113.284 11.0013 113.284 25.3334 113.284 43.7882C111.538 43.4149 109.76 43.2101 107.975 43.1767H88.0766V31.5779C88.7797 34.9935 92.2785 37.4023 96.0851 37.4023C100.245 37.4023 103.553 34.7106 104.372 30.4796H107.979C108.89 30.4796 109.922 29.8264 109.922 28.9112V28.5617C109.922 27.6506 108.89 26.9559 107.979 26.9559H104.347C103.486 23.4363 100.037 20.183 95.9021 20.183C91.7668 20.183 88.3179 23.4363 87.4609 26.9559H84.478C83.6168 23.4363 80.168 20.183 76.0327 20.183C71.8974 20.183 68.4486 23.4363 67.5916 26.9559H63.4313V16.9297C63.4388 15.7382 63.2076 14.5573 62.7516 13.4566C62.2955 12.3558 61.6237 11.3575 60.7758 10.5204C59.9279 9.68337 58.921 9.0245 57.8144 8.58265C56.7079 8.1408 55.5241 7.92491 54.3329 7.94769H28.4103C23.339 7.94769 19.7279 11.8583 19.7279 16.9297V32.3517C19.7279 37.4231 23.339 41.7664 28.4103 41.7664H54.3329C59.4042 41.7664 63.4147 37.4231 63.4147 32.3517V30.4921H67.5749C68.407 34.7231 72.1179 37.4147 76.3114 37.4147C78.0646 37.4064 79.7781 36.8914 81.2454 35.9319C82.7127 34.9724 83.8715 33.6092 84.582 32.0064V43.16H28.2897C12.6888 43.16 1.53441e-07 56.2024 1.53441e-07 71.8034V87.995C-0.000671189 94.4273 2.20165 100.666 6.24037 105.672C8.0723 98.5953 12.4288 92.4328 18.4891 88.3453C24.5494 84.2578 31.8953 82.5275 39.1429 83.4804C46.3904 84.4333 53.0394 88.0035 57.8373 93.5186C62.6351 99.0336 65.2506 106.113 65.1911 113.422C65.1979 114.438 65.152 115.453 65.0538 116.464H107.992C109.773 116.454 111.549 116.276 113.296 115.931C113.296 119.709 113.296 122.367 113.267 123.536C113.221 128.112 112.169 131.54 110.222 133.317C109.26 134.236 107.987 134.76 106.656 134.785H106.548C106.548 134.785 104.094 134.702 102.03 134.702C101.735 134.702 101.431 134.661 101.198 134.669C100.283 134.703 99.3717 134.542 98.5243 134.195C97.677 133.849 96.9134 133.325 96.2848 132.659C92.8568 129.048 93.2021 121.706 93.2062 121.631V118.569H90.9098V121.585C90.9098 122.242 90.5977 129.955 94.6165 134.195C95.4616 135.077 96.4829 135.771 97.6139 136.233C98.745 136.694 99.9605 136.913 101.181 136.874H101.206C103.228 136.874 106.14 136.874 106.502 136.874C106.561 136.874 106.648 136.874 106.769 136.874C108.596 136.847 110.351 136.153 111.703 134.923C114.199 132.684 115.497 128.84 115.551 123.499C115.551 122.271 115.513 119.392 115.522 115.315C121.444 113.606 126.647 110.012 130.341 105.077C134.035 100.143 136.018 94.1381 135.99 87.9742V71.82C135.99 58.8567 127.399 47.7904 115.526 44.4206V44.4206ZM57.0537 34.02H24.9199C23.8632 34.02 23.0062 32.9633 23.0062 31.9066C23.0062 30.8499 23.8632 29.7932 24.9199 29.7932H57.0537C58.1104 29.7932 58.9674 30.8499 58.9674 31.9066C58.9674 32.9633 58.1104 34.0158 57.0537 34.0158V34.02ZM57.0537 26.2694H24.9199C24.6761 26.29 24.4306 26.2597 24.1991 26.1805C23.9676 26.1012 23.755 25.9748 23.5749 25.8092C23.3947 25.6436 23.2509 25.4424 23.1525 25.2184C23.0542 24.9943 23.0034 24.7523 23.0034 24.5076C23.0034 24.2629 23.0542 24.0208 23.1525 23.7968C23.2509 23.5727 23.3947 23.3715 23.5749 23.2059C23.755 23.0403 23.9676 22.9139 24.1991 22.8347C24.4306 22.7555 24.6761 22.7252 24.9199 22.7457H57.0537C57.2975 22.7252 57.5429 22.7555 57.7745 22.8347C58.006 22.9139 58.2185 23.0403 58.3987 23.2059C58.5788 23.3715 58.7226 23.5727 58.821 23.7968C58.9194 24.0208 58.9702 24.2629 58.9702 24.5076C58.9702 24.7523 58.9194 24.9943 58.821 25.2184C58.7226 25.4424 58.5788 25.6436 58.3987 25.8092C58.2185 25.9748 58.006 26.1012 57.7745 26.1805C57.5429 26.2597 57.2975 26.29 57.0537 26.2694ZM57.0537 18.5189H24.9199C24.6761 18.5394 24.4306 18.5091 24.1991 18.4299C23.9676 18.3507 23.755 18.2243 23.5749 18.0587C23.3947 17.8931 23.2509 17.6919 23.1525 17.4678C23.0542 17.2438 23.0034 17.0017 23.0034 16.757C23.0034 16.5123 23.0542 16.2703 23.1525 16.0462C23.2509 15.8222 23.3947 15.621 23.5749 15.4554C23.755 15.2898 23.9676 15.1633 24.1991 15.0841C24.4306 15.0049 24.6761 14.9746 24.9199 14.9952H57.0537C57.2975 14.9746 57.5429 15.0049 57.7745 15.0841C58.006 15.1633 58.2185 15.2898 58.3987 15.4554C58.5788 15.621 58.7226 15.8222 58.821 16.0462C58.9194 16.2703 58.9702 16.5123 58.9702 16.757C58.9702 17.0017 58.9194 17.2438 58.821 17.4678C58.7226 17.6919 58.5788 17.8931 58.3987 18.0587C58.2185 18.2243 58.006 18.3507 57.7745 18.4299C57.5429 18.5091 57.2975 18.5394 57.0537 18.5189Z" fill="#183693"/>
</svg>
