<svg width="160" height="118" viewBox="0 0 160 118" fill="none" xmlns="http://www.w3.org/2000/svg">
<path d="M134.985 27.4661H110.107V16.2217H132.433C133.842 16.2217 134.985 17.3627 134.985 18.7682V27.4661Z" fill="#314C9F"/>
<path d="M130.925 10.9302H114.052V16.2217H130.925V10.9302Z" fill="#314C9F"/>
<path d="M123.565 8.71442H121.427V10.9302H123.565V8.71442Z" fill="#314C9F"/>
<path d="M127.411 6.71356H117.599V8.13565C117.599 8.44983 117.864 8.7144 118.179 8.7144H126.831C127.146 8.7144 127.411 8.44983 127.411 8.13565V6.71356Z" fill="#314C9F"/>
<path opacity="0.5" d="M134.985 26.4243V19.7604C133.593 20.7525 131.869 21.2982 130.162 21.5132C127.908 21.7943 125.604 21.5793 123.333 21.5132C121.162 21.447 118.891 21.4966 116.952 20.5375C115.974 20.058 115.146 19.3139 114.516 18.421C114.019 17.7264 113.853 16.9823 113.588 16.2382H110.107V26.7054C110.356 26.9204 110.588 27.1354 110.869 27.3173C110.969 27.3834 111.085 27.433 111.201 27.4992H132.715C133.51 27.2015 134.289 26.8543 134.985 26.4243Z" fill="#314C9F"/>
<path opacity="0.5" d="M134.985 21.8274C134.969 21.8439 134.936 21.8604 134.919 21.8604C132.88 23.018 130.444 23.1337 128.09 23.2329C125.637 23.3321 123.184 23.4148 120.731 23.3156C119.19 23.2495 117.582 23.1006 116.24 22.34C114.798 21.5297 113.82 20.0746 113.223 18.5367C112.941 17.7761 112.742 16.9989 112.593 16.2052H110.09V21.8935C110.588 22.5715 111.168 23.1833 111.814 23.7125C114.002 25.4487 116.77 26.259 119.521 26.7385C123.416 27.4 127.394 27.4826 131.322 27.185C132.565 27.0858 133.842 26.937 134.969 26.4078V21.8274H134.985Z" fill="#314C9F"/>
<path opacity="0.5" d="M129.731 11.4263C129.483 12.7988 128.273 13.8405 126.947 14.3201C125.621 14.7831 124.195 14.7831 122.787 14.7831C121.013 14.7665 119.24 14.7665 117.483 14.75C116.588 14.75 115.659 14.7335 114.814 14.4027C114.582 14.3035 114.3 14.0886 114.052 13.9067V16.2382H130.941V10.9467H129.831C129.781 11.0956 129.764 11.2609 129.731 11.4263Z" fill="#314C9F"/>
<path opacity="0.5" d="M130.941 14.6342C130.444 14.9153 129.88 15.1138 129.333 15.2461C128.19 15.5106 127.013 15.5106 125.836 15.5272C123.35 15.5437 120.864 15.5602 118.361 15.5602C117.366 15.5602 116.339 15.5602 115.394 15.2295C114.847 15.0311 114.449 14.7334 114.068 14.3697V16.2217H130.941V14.6342Z" fill="#314C9F"/>
<path opacity="0.5" d="M121.427 9.35931C122.007 9.44199 122.505 9.57428 122.67 10.3349C122.703 10.5334 122.703 10.7318 122.737 10.9137H123.582V8.71442H121.444V9.35931H121.427Z" fill="#314C9F"/>
<path opacity="0.5" d="M121.427 9.07821C122.173 9.01206 122.853 9.01206 123.565 9.2601V8.71442H121.427V9.07821Z" fill="#314C9F"/>
<path opacity="0.5" d="M127.411 8.13565V6.71356H126.184C126.184 6.74663 126.201 6.76317 126.201 6.79624C126.251 7.14349 126.035 7.47421 125.737 7.67264C125.438 7.87107 125.09 7.93722 124.742 7.98682C123.698 8.13565 122.637 8.15218 121.577 8.11911C120.648 8.08604 119.72 7.98682 118.792 7.88761C118.262 7.838 117.914 7.73879 117.582 7.54036V8.13565C117.582 8.44983 117.847 8.7144 118.162 8.7144H126.814C127.146 8.7144 127.411 8.44983 127.411 8.13565Z" fill="#314C9F"/>
<path d="M40.5267 12.5838C41.4714 10.9467 43.2449 9.97113 45.151 9.97113H90.7477C92.6703 9.97113 94.4438 10.9964 95.4051 12.6499C96.814 15.0642 98.7532 19.0163 100.046 24.0101H114.648C111.35 13.5098 106.063 6.0852 103.096 2.48038C101.803 0.909473 99.8803 0 97.825 0H33.2836C31.0792 0 28.9742 1.0583 27.7145 2.86071C21.1676 12.3027 19.1289 21.3147 19.1289 21.3147V24.0101H35.4714C36.3665 21.2651 37.9576 16.9989 40.5267 12.5838Z" fill="#314C9F"/>
<path opacity="0.5" d="M114.632 24.0101C113.306 19.7935 111.665 16.0894 109.991 12.9145C110.057 13.146 110.09 13.3775 110.107 13.609C110.239 15.6926 107.952 17.3131 105.88 17.1808C103.792 17.032 102.018 15.6264 100.659 14.0224C99.3002 12.435 98.2229 10.5995 96.7146 9.17742C92.6206 5.29149 86.4052 5.02692 80.7532 4.97731C73.9742 4.9277 67.2118 4.86156 60.4328 4.81195C53.372 4.74581 45.8637 4.81195 39.93 8.63174C37.5101 10.1861 35.4881 12.2862 33.2505 14.0886C31.0129 15.891 28.3776 17.4454 25.5101 17.5776C24.0847 17.6438 22.709 17.28 21.4659 16.5855C21.2505 16.4697 21.035 16.3044 20.803 16.139C19.6096 19.2974 19.1455 21.3478 19.1455 21.3478V24.0432H35.4881C36.3665 21.2982 37.9742 17.032 40.5267 12.6169C41.4715 10.9798 43.245 10.0042 45.151 10.0042H90.7477C92.6704 10.0042 94.4438 11.0294 95.4052 12.683C96.814 15.0973 98.7532 19.0493 100.046 24.0432H114.632V24.0101Z" fill="#314C9F"/>
<path d="M4.29471 25.8952C1.6925 37.1727 -3.81026 67.4664 4.11239 95.6931C4.82509 98.2562 7.17869 100.026 9.83062 100.026H144.433C146.505 100.026 148.195 98.3554 148.195 96.2719V35.8498C148.195 33.7828 146.521 32.0962 144.433 32.0962H83.1069C79.7091 32.0962 76.3942 31.0048 73.6593 28.9874L67.7091 24.5889C64.8417 22.4723 61.3776 21.3148 57.7975 21.3148H10.0627C7.31128 21.3148 4.90797 23.1999 4.29471 25.8952Z" fill="#314C9F"/>
<path opacity="0.5" d="M144.449 32.0962H133.643C133.775 32.3442 133.908 32.6088 134.024 32.8403C137.936 40.5956 136.875 49.8557 135.35 58.4047C133.875 66.6065 131.753 75.2879 125.588 80.9101C118.03 87.8055 106.742 88.1032 96.5158 88.0205C80.0904 87.8882 63.6649 87.7394 47.2229 87.6071C39.118 87.5409 30.9467 87.4583 23.0241 85.7385C15.1014 84.0188 7.36107 80.5132 1.89145 74.5272C1.31134 73.8823 0.780956 73.2374 0.300293 72.5925C0.797531 80.1659 1.95775 88.0039 4.11245 95.6931C4.82516 98.2562 7.17875 100.026 9.83068 100.026H144.433C146.505 100.026 148.195 98.3554 148.195 96.2719V35.8498C148.195 33.7828 146.521 32.0962 144.449 32.0962Z" fill="#314C9F"/>
<path d="M67.7257 24.5889L73.676 28.9874C76.4108 31.0048 79.7257 32.0961 83.1235 32.0961H143.521L138.698 26.2755C137.505 24.8369 135.731 24.0101 133.875 24.0101H66.897C67.1787 24.192 67.4605 24.3739 67.7257 24.5889Z" fill="#314C9F"/>
<path d="M156.3 59.8103H153.217V72.3279H156.3V59.8103Z" fill="#314C9F"/>
<path d="M148.195 94.4529V37.6687C150.963 37.6687 153.217 39.9011 153.217 42.6791V89.4591C153.217 92.2206 150.98 94.4529 148.195 94.4529Z" fill="#314C9F"/>
<path d="M159.002 53.6424H156.3V78.4793H159.002V53.6424Z" fill="#314C9F"/>
<path d="M17.9854 21.3148H10.0627C7.31136 21.3148 4.90804 23.1999 4.27821 25.8952C1.7423 36.9246 -3.56157 66.1931 3.64837 93.9238L13.3942 87.359C16.2616 85.4243 17.9854 82.1833 17.9854 78.7273V21.3148Z" fill="#314C9F"/>
<path opacity="0.5" d="M10.2452 66.9703C10.0794 71.435 9.74793 76.3627 6.58219 79.5376C5.17335 80.9431 3.26727 81.7368 1.27832 81.9518C1.84186 85.937 2.62086 89.9552 3.64849 93.9238L13.3943 87.359C16.2617 85.4243 17.9855 82.1833 17.9855 78.7273V21.3148H10.0794C11.2894 36.4782 10.7756 51.7408 10.2452 66.9703Z" fill="#314C9F"/>
<path d="M11.8361 73.7665H0.399658C0.51568 75.2548 0.648277 76.743 0.814023 78.2478H11.8527C13.0958 78.2478 14.0903 77.2391 14.0903 76.0154C14.0737 74.7587 13.0792 73.7665 11.8361 73.7665Z" fill="white"/>
<path d="M11.8363 65.9616H0.0351562C0.0683054 67.4333 0.118029 68.9381 0.184328 70.4428H11.8363C13.0794 70.4428 14.0738 69.4342 14.0738 68.2105C14.0738 66.9703 13.0794 65.9616 11.8363 65.9616Z" fill="white"/>
<path d="M11.8362 58.1732H0.101428C0.0517039 59.6449 0.0185547 61.1331 0.0185547 62.6544H11.8362C13.0793 62.6544 14.0738 61.6458 14.0738 60.4221C14.0738 59.1819 13.0793 58.1732 11.8362 58.1732Z" fill="white"/>
<path d="M11.8364 50.3848H0.549075C0.433053 51.84 0.333605 53.3282 0.250732 54.866H11.8364C13.0795 54.866 14.0739 53.8574 14.0739 52.6337C14.0739 51.377 13.0795 50.3848 11.8364 50.3848Z" fill="white"/>
<path d="M11.8364 42.5799H1.34465C1.16233 44.0185 0.996583 45.5067 0.847412 47.0611H11.8364C13.0795 47.0611 14.0739 46.0524 14.0739 44.8288C14.0739 43.5886 13.0795 42.5799 11.8364 42.5799Z" fill="white"/>
<path d="M11.8362 34.7915H2.5213C2.27268 36.1971 2.04064 37.6853 1.80859 39.2727H11.8362C13.0793 39.2727 14.0738 38.264 14.0738 37.0404C14.0738 35.7837 13.0793 34.7915 11.8362 34.7915Z" fill="white"/>
<path d="M11.8364 26.9866H4.04634C3.76457 28.2764 3.44966 29.7977 3.11816 31.4678H11.8364C13.0795 31.4678 14.074 30.4591 14.074 29.2355C14.074 27.9953 13.0795 26.9866 11.8364 26.9866Z" fill="white"/>
<path opacity="0.5" d="M14.0739 29.2355C14.0739 27.9953 13.0628 27.0031 11.8363 27.0031H4.04623C3.91363 27.5819 3.78103 28.2268 3.64844 28.8882C3.79761 28.8717 3.94678 28.8551 4.0628 28.8386C6.18435 28.7228 8.33905 28.7063 10.4274 29.0866C11.4882 29.2851 12.7147 29.7315 12.9799 30.7898C13.0131 30.9056 13.0131 31.0213 13.0297 31.1371C13.6595 30.7237 14.0739 30.0292 14.0739 29.2355Z" fill="white"/>
<path opacity="0.5" d="M14.0739 37.0238C14.0739 35.7837 13.0628 34.7915 11.8363 34.7915H2.52138C2.40536 35.486 2.27276 36.2136 2.15674 36.9577C2.37221 36.9412 2.58768 36.9081 2.80315 36.8916C4.49375 36.7923 6.18436 36.6931 7.87497 36.5774C8.80315 36.5278 9.7479 36.4616 10.6429 36.6931C11.538 36.9246 12.4164 37.4703 12.781 38.3136C12.8639 38.5121 12.9302 38.727 13.0131 38.9255C13.6429 38.5286 14.0739 37.8341 14.0739 37.0238Z" fill="white"/>
<path opacity="0.5" d="M14.0738 44.8122C14.0738 43.572 13.0628 42.5799 11.8363 42.5799H1.34457C1.26169 43.2579 1.17882 43.9854 1.09595 44.6965C1.62633 44.6799 2.20644 44.5311 2.62081 44.4981C4.87495 44.2831 7.14567 44.3988 9.36666 44.8122C10.4772 45.0272 11.6871 45.391 12.2506 46.3666C12.3501 46.5485 12.4495 46.7469 12.5324 46.9288C13.444 46.6312 14.0738 45.8044 14.0738 44.8122Z" fill="white"/>
<path opacity="0.5" d="M14.0737 52.6172C14.0737 51.377 13.0627 50.3848 11.8361 50.3848H0.548856C0.499133 51.0297 0.465984 51.7242 0.41626 52.3857C0.615155 52.3691 0.830624 52.3526 0.946646 52.3691C1.49361 52.3857 2.02399 52.3857 2.57096 52.4022C4.72565 52.4518 6.88035 52.5014 9.05162 52.5345C9.76433 52.551 10.4936 52.5676 11.1732 52.7825C11.8527 52.9975 12.5157 53.4109 12.8306 54.0558C12.8969 54.2046 12.9632 54.37 13.0295 54.5188C13.6594 54.1219 14.0737 53.4109 14.0737 52.6172Z" fill="white"/>
<path opacity="0.5" d="M11.8363 58.1732H0.101509C0.084934 58.8677 0.0683594 59.5788 0.0683594 60.2733C2.05731 60.389 4.07941 60.1906 6.06836 60.2402C7.26173 60.2733 8.4551 60.3394 9.63189 60.4221C10.1623 60.4552 10.7092 60.5048 11.2231 60.7032C11.7369 60.8851 12.201 61.2324 12.4164 61.7284C12.5159 61.9599 12.5656 62.2245 12.665 62.4725C13.5103 62.1418 14.0905 61.3481 14.0905 60.389C14.0739 59.1819 13.0794 58.1732 11.8363 58.1732Z" fill="white"/>
<path opacity="0.5" d="M14.0738 68.2105C14.0738 66.9703 13.0628 65.9781 11.8363 65.9781H0.0351562C0.0517308 66.7057 0.08488 67.4498 0.101455 68.1939C0.499245 68.2105 0.930184 68.1443 1.27825 68.1443C3.66499 68.0947 6.05173 68.0286 8.43847 67.979C9.2672 67.9624 10.1125 67.9459 10.9081 68.1609C11.7037 68.3758 12.4661 68.8719 12.8142 69.616C12.8805 69.7649 12.9468 69.9467 13.0131 70.1121C13.6595 69.6987 14.0738 69.0042 14.0738 68.2105Z" fill="white"/>
<path opacity="0.5" d="M11.8361 73.7665H0.399658C0.449382 74.3949 0.51568 75.0398 0.565404 75.6682C1.11237 75.7178 1.70905 75.6516 2.13999 75.6516C4.51016 75.6516 6.88032 75.6682 9.25049 75.6682C9.94662 75.6682 10.6428 75.6682 11.3057 75.8831C11.9687 76.0816 12.582 76.528 12.8472 77.1564C12.9466 77.3879 12.9963 77.636 13.0626 77.8675C13.6759 77.4706 14.0737 76.7761 14.0737 75.9989C14.0737 74.7587 13.0792 73.7665 11.8361 73.7665Z" fill="white"/>
<path opacity="0.5" d="M2.53784 89.178C2.86933 90.7654 3.23397 92.3363 3.64834 93.9238L13.3942 87.359C16.2616 85.4243 17.9854 82.1833 17.9854 78.7273V21.3148H16.4771C16.361 37.4207 16.2616 53.5101 16.1456 69.6161C16.1124 73.3697 16.0793 77.2226 14.6041 80.6786C13.1456 84.0684 10.3113 86.8464 6.89696 88.2354C5.48812 88.7977 4.01298 89.0953 2.53784 89.178Z" fill="#314C9F"/>
<path d="M140.388 108.31H14.8028C12.5155 108.31 10.6592 106.458 10.6592 104.176V100.042H144.532V104.176C144.532 106.458 142.676 108.31 140.388 108.31Z" fill="white"/>
<path opacity="0.5" d="M144.532 104.176V100.042H10.6592V104.176C10.6592 104.49 10.7089 104.804 10.7752 105.085C10.9741 104.953 11.173 104.821 11.3885 104.705C13.7255 103.515 16.4437 103.465 19.0625 103.432C53.1233 102.985 87.2006 102.539 121.261 102.093C126.748 102.026 132.88 102.208 136.725 106.094C137.388 106.772 137.969 107.549 138.565 108.31H140.388C142.676 108.31 144.532 106.458 144.532 104.176Z" fill="white"/>
<path opacity="0.9" d="M10.6592 102.572C13.0459 102.291 15.499 101.778 16.4603 101.745C59.1564 100.737 101.902 99.7279 144.549 102.109V99.8436H10.6592V102.572Z" fill="white"/>
<path opacity="0.9" d="M17.7036 100.026C17.7036 100.026 18.2174 103.482 18.2837 108.293H31.5268C31.5268 108.293 31.1622 102.109 32.1401 100.026H17.7036Z" fill="white"/>
<path d="M31.0129 100.026H18.7146V111.435H31.0129V100.026Z" fill="#314C9F"/>
<path d="M32.455 118C30.7644 115.619 27.9964 114.081 24.8472 114.081C21.6981 114.081 18.9301 115.635 17.2395 118H32.455Z" fill="#314C9F"/>
<path d="M24.8639 114.081C25.5601 114.081 26.223 114.164 26.8695 114.312V111.435H22.8584V114.312C23.5048 114.164 24.1678 114.081 24.8639 114.081Z" fill="white"/>
<path opacity="0.5" d="M31.0129 100.026H18.7146V102.241C19.1621 102.159 19.5931 102.059 19.8251 102.026C20.9522 101.927 22.0958 101.894 23.2063 102.076C25.129 102.374 27.0516 103.382 27.9798 105.102C28.8914 106.789 28.6925 108.839 28.8085 110.741C28.8251 110.972 28.8417 111.204 28.8748 111.435H30.9964V100.026H31.0129Z" fill="#314C9F"/>
<path opacity="0.9" d="M18.7146 100.026V101.001C19.8085 101.067 21.0019 100.786 22.0461 100.753C23.8527 100.687 25.6759 100.819 27.4494 101.166C27.7312 101.216 29.5212 101.745 31.0295 102.225V100.042H18.7146V100.026Z" fill="#314C9F"/>
<path opacity="0.5" d="M26.8528 111.435H22.8418V112.113C23.0241 112.047 23.223 111.964 23.4219 111.948C23.7368 111.931 24.0352 111.981 24.3335 112.097C24.9302 112.361 25.3943 112.94 25.4937 113.585C25.5269 113.767 25.5269 113.949 25.5435 114.114C25.9744 114.147 26.4219 114.213 26.8363 114.296V111.435H26.8528Z" fill="white"/>
<path opacity="0.9" d="M26.8528 111.997V111.435H22.8418V111.733C22.991 111.7 23.1401 111.683 23.2064 111.667C24.0683 111.568 24.9302 111.601 25.7921 111.749C26.1567 111.799 26.5048 111.898 26.8528 111.997Z" fill="white"/>
<path opacity="0.5" d="M17.2561 118H32.4716C31.4108 116.512 29.9191 115.338 28.1788 114.676C28.2616 115.106 28.0959 115.52 27.7975 115.817C27.5158 116.115 27.118 116.297 26.7368 116.446C24.8141 117.14 22.7091 116.909 20.687 116.661C20.4053 116.628 20.1069 116.594 19.8417 116.462C19.6097 116.363 19.3942 116.165 19.3114 115.916C18.5158 116.512 17.8196 117.206 17.2561 118Z" fill="#314C9F"/>
<path opacity="0.9" d="M123.167 100.026C123.167 100.026 123.681 103.482 123.748 108.293H136.991C136.991 108.293 136.626 102.109 137.604 100.026H123.167Z" fill="white"/>
<path d="M136.477 100.026H124.178V111.435H136.477V100.026Z" fill="#314C9F"/>
<path d="M137.935 118C136.245 115.619 133.477 114.081 130.328 114.081C127.179 114.081 124.411 115.635 122.72 118H137.935Z" fill="#314C9F"/>
<path d="M130.328 114.081C131.024 114.081 131.687 114.164 132.333 114.312V111.435H128.322V114.312C128.985 114.164 129.648 114.081 130.328 114.081Z" fill="white"/>
<path opacity="0.5" d="M136.477 100.026H124.178V102.241C124.626 102.159 125.057 102.059 125.289 102.026C126.416 101.927 127.56 101.894 128.67 102.076C130.593 102.374 132.515 103.382 133.444 105.102C134.355 106.789 134.156 108.839 134.272 110.741C134.289 110.972 134.306 111.204 134.339 111.435H136.46V100.026H136.477Z" fill="#314C9F"/>
<path opacity="0.9" d="M124.178 100.026V101.001C125.272 101.067 126.466 100.786 127.51 100.753C129.317 100.687 131.14 100.819 132.913 101.166C133.195 101.216 134.985 101.745 136.493 102.225V100.042H124.178V100.026Z" fill="#314C9F"/>
<path opacity="0.5" d="M132.333 111.435H128.322V112.113C128.505 112.047 128.703 111.964 128.902 111.948C129.217 111.931 129.516 111.981 129.814 112.097C130.411 112.361 130.875 112.94 130.974 113.585C131.007 113.767 131.007 113.949 131.024 114.114C131.455 114.147 131.902 114.213 132.317 114.296V111.435H132.333Z" fill="white"/>
<path opacity="0.9" d="M132.333 111.997V111.435H128.322V111.733C128.471 111.7 128.621 111.683 128.687 111.667C129.549 111.568 130.411 111.601 131.273 111.749C131.637 111.799 131.985 111.898 132.333 111.997Z" fill="white"/>
<path opacity="0.5" d="M122.737 118H137.952C136.891 116.512 135.4 115.338 133.659 114.676C133.742 115.106 133.576 115.52 133.278 115.817C132.996 116.115 132.598 116.297 132.217 116.446C130.295 117.14 128.19 116.909 126.168 116.661C125.886 116.628 125.587 116.594 125.322 116.462C125.09 116.363 124.875 116.165 124.792 115.916C123.996 116.512 123.3 117.206 122.737 118Z" fill="#314C9F"/>
<path d="M138.797 45.9036H117.101C115.742 45.9036 114.648 44.8122 114.648 43.4563C114.648 42.1003 115.742 41.009 117.101 41.009H138.797C140.156 41.009 141.25 42.1003 141.25 43.4563C141.25 44.7957 140.156 45.9036 138.797 45.9036Z" fill="white"/>
<path d="M138.797 53.6424H117.101C115.742 53.6424 114.648 52.551 114.648 51.1951C114.648 49.8391 115.742 48.7477 117.101 48.7477H138.797C140.156 48.7477 141.25 49.8391 141.25 51.1951C141.25 52.551 140.156 53.6424 138.797 53.6424Z" fill="white"/>
<path d="M138.797 61.3977H117.101C115.742 61.3977 114.648 60.3063 114.648 58.9504C114.648 57.5944 115.742 56.5031 117.101 56.5031H138.797C140.156 56.5031 141.25 57.5944 141.25 58.9504C141.25 60.2898 140.156 61.3977 138.797 61.3977Z" fill="white"/>
<path d="M138.797 69.1365H117.101C115.742 69.1365 114.648 68.0451 114.648 66.6892C114.648 65.3332 115.742 64.2419 117.101 64.2419H138.797C140.156 64.2419 141.25 65.3332 141.25 66.6892C141.25 68.0451 140.156 69.1365 138.797 69.1365Z" fill="white"/>
<path d="M138.797 76.8918H117.101C115.742 76.8918 114.648 75.8004 114.648 74.4445C114.648 73.0886 115.742 71.9972 117.101 71.9972H138.797C140.156 71.9972 141.25 73.0886 141.25 74.4445C141.25 75.7839 140.156 76.8918 138.797 76.8918Z" fill="white"/>
<path d="M138.797 84.6306H117.101C115.742 84.6306 114.648 83.5392 114.648 82.1833C114.648 80.8274 115.742 79.736 117.101 79.736H138.797C140.156 79.736 141.25 80.8274 141.25 82.1833C141.25 83.5392 140.156 84.6306 138.797 84.6306Z" fill="white"/>
<path d="M138.797 92.3859H117.101C115.742 92.3859 114.648 91.2946 114.648 89.9386C114.648 88.5827 115.742 87.4913 117.101 87.4913H138.797C140.156 87.4913 141.25 88.5827 141.25 89.9386C141.25 91.278 140.156 92.3859 138.797 92.3859Z" fill="white"/>
<path opacity="0.5" d="M141.25 43.4563C141.25 42.1003 140.156 41.009 138.797 41.009H117.101C115.742 41.009 114.648 42.1003 114.648 43.4563C114.648 43.6216 114.665 43.8035 114.698 43.9689C116.322 43.9358 118.162 43.4397 119.687 43.324C124.145 42.9767 128.621 42.9437 133.079 43.2413C134.935 43.3571 136.974 43.6382 138.168 45.0603C138.4 45.3248 138.598 45.639 138.797 45.9367C140.156 45.9036 141.25 44.7957 141.25 43.4563Z" fill="white"/>
<path opacity="0.5" d="M141.25 51.1951C141.25 49.8391 140.156 48.7477 138.797 48.7477H117.101C115.742 48.7477 114.648 49.8391 114.648 51.1951C114.648 51.3604 114.665 51.5423 114.698 51.6911C116.322 51.6581 118.162 51.162 119.687 51.0462C124.145 50.699 128.621 50.6659 133.079 50.9636C134.935 51.0793 136.974 51.3604 138.168 52.7825C138.4 53.0471 138.598 53.3613 138.797 53.6589C140.156 53.6424 141.25 52.551 141.25 51.1951Z" fill="white"/>
<path opacity="0.5" d="M141.25 58.9339C141.25 57.5779 140.156 56.4866 138.797 56.4866H117.101C115.742 56.4866 114.648 57.5779 114.648 58.9339C114.648 59.0992 114.665 59.2811 114.698 59.4465C116.322 59.4134 118.162 58.9173 119.687 58.8016C124.145 58.4543 128.621 58.4213 133.079 58.7189C134.935 58.8347 136.974 59.1158 138.168 60.5379C138.4 60.8024 138.598 61.1166 138.797 61.4143C140.156 61.3977 141.25 60.2898 141.25 58.9339Z" fill="white"/>
<path opacity="0.5" d="M141.25 66.6892C141.25 65.3333 140.156 64.2419 138.797 64.2419H117.101C115.742 64.2419 114.648 65.3333 114.648 66.6892C114.648 66.8546 114.665 67.0365 114.698 67.2018C116.322 67.1687 118.162 66.6727 119.687 66.5569C124.145 66.2097 128.621 66.1766 133.079 66.4742C134.935 66.59 136.974 66.8711 138.168 68.2932C138.4 68.5578 138.598 68.8719 138.797 69.1696C140.156 69.1365 141.25 68.0451 141.25 66.6892Z" fill="white"/>
<path opacity="0.5" d="M141.25 74.428C141.25 73.072 140.156 71.9807 138.797 71.9807H117.101C115.742 71.9807 114.648 73.072 114.648 74.428C114.648 74.5933 114.665 74.7752 114.698 74.9406C116.322 74.9075 118.162 74.4114 119.687 74.2957C124.145 73.9484 128.621 73.9154 133.079 74.213C134.935 74.3288 136.974 74.6099 138.168 76.032C138.4 76.2965 138.598 76.6107 138.797 76.9084C140.156 76.8918 141.25 75.7839 141.25 74.428Z" fill="white"/>
<path opacity="0.5" d="M141.25 82.1833C141.25 80.8274 140.156 79.736 138.797 79.736H117.101C115.742 79.736 114.648 80.8274 114.648 82.1833C114.648 82.3487 114.665 82.5306 114.698 82.6959C116.322 82.6628 118.162 82.1668 119.687 82.051C124.145 81.7038 128.621 81.6707 133.079 81.9683C134.935 82.0841 136.974 82.3652 138.168 83.7873C138.4 84.0519 138.598 84.366 138.797 84.6637C140.156 84.6306 141.25 83.5392 141.25 82.1833Z" fill="white"/>
<path opacity="0.5" d="M141.25 89.9221C141.25 88.5662 140.156 87.4748 138.797 87.4748H117.101C115.742 87.4748 114.648 88.5662 114.648 89.9221C114.648 90.0875 114.665 90.2694 114.698 90.4182C116.322 90.3851 118.162 89.889 119.687 89.7733C124.145 89.426 128.621 89.393 133.079 89.6906C134.935 89.8064 136.974 90.0875 138.168 91.5096C138.4 91.7741 138.598 92.0883 138.797 92.386C140.156 92.386 141.25 91.278 141.25 89.9221Z" fill="white"/>
<path d="M101.836 78.4787H96.4826C93.7975 78.4787 91.6428 76.3125 91.6428 73.6502V45.8369C91.6428 43.1581 93.8141 41.0084 96.4826 41.0084H101.836C104.521 41.0084 106.676 43.1746 106.676 45.8369V73.6502C106.676 76.3125 104.505 78.4787 101.836 78.4787Z" fill="white"/>
<path opacity="0.5" d="M101.836 40.9924H96.4826C93.7975 40.9924 91.6428 43.1586 91.6428 45.8209V73.6342C91.6428 76.3131 93.8141 78.4627 96.4826 78.4627H96.8804C96.6152 78.1485 96.3334 77.8509 96.2008 77.6194C95.7367 76.8091 95.4053 75.9327 95.1732 75.0233C94.7423 73.3201 94.676 71.5507 94.6262 69.7979C94.4439 64.7049 94.2782 59.6284 94.0959 54.5353C93.9964 51.7407 93.9964 48.6485 95.7865 46.4989C97.1953 44.7957 99.582 44.035 101.77 44.3823C103.693 44.6799 105.449 45.7878 106.693 47.2761V45.8044C106.676 43.1586 104.505 40.9924 101.836 40.9924Z" fill="white"/>
<path opacity="0.5" d="M96.0185 55.296C95.7367 55.5275 95.6207 55.9078 95.5212 56.255C94.8583 58.6858 94.9577 61.2985 95.7367 63.6796C95.8527 64.0104 96.035 64.3907 96.3831 64.4238C96.6151 64.4403 96.8472 64.2749 96.9632 64.0765C97.0792 63.8781 97.1124 63.63 97.1455 63.3985C97.4604 60.8189 97.6096 58.2724 97.0461 55.7259C96.9964 55.4944 97.0129 55.296 96.7975 55.1802C96.5488 55.0314 96.2008 55.1306 96.0185 55.296Z" fill="white"/>
<path d="M103.593 47.491H101.604H99.6151C99.6151 47.491 98.9189 51.7077 98.9189 59.7441C98.9189 67.7806 99.6151 71.9972 99.6151 71.9972H101.604H103.593C103.593 71.9972 104.289 67.7806 104.289 59.7441C104.289 51.7077 103.593 47.491 103.593 47.491Z" fill="#314C9F"/>
<path d="M98.9191 59.7441C98.9191 58.0905 98.9522 56.6188 99.002 55.296H96.4163C95.9357 55.296 95.5544 57.2968 95.5544 59.7441C95.5544 62.1914 95.9357 64.1923 96.4163 64.1923H99.002C98.9522 62.8694 98.9191 61.3977 98.9191 59.7441Z" fill="#314C9F"/>
<path opacity="0.5" d="M98.919 59.7441C98.919 58.0905 98.9521 56.6188 99.0019 55.296H98.2229C97.7754 56.9826 97.9411 58.8181 97.7588 60.5874C97.6925 61.1662 97.5599 61.8111 97.0626 62.1253C96.6814 62.3733 96.1676 62.3402 95.7533 62.1253C95.7201 62.1087 95.687 62.0591 95.6538 62.0426C95.803 63.3324 96.0847 64.2088 96.3997 64.2088H98.9853C98.9521 62.8694 98.919 61.3977 98.919 59.7441Z" fill="#314C9F"/>
<path opacity="0.5" d="M103.063 69.1696C102.317 68.9215 101.753 68.2601 101.455 67.5325C101.157 66.8049 101.057 66.0112 101.007 65.234C100.792 62.3733 100.908 59.5126 101.024 56.6519C101.074 55.4779 101.123 54.3038 101.173 53.1298C101.256 51.2447 101.471 49.3596 101.538 47.4745H99.6151C99.6151 47.4745 98.9189 51.6911 98.9189 59.7276C98.9189 67.764 99.6151 71.9806 99.6151 71.9806H101.604H103.593C103.593 71.9806 103.742 71.0381 103.908 69.2192C103.626 69.2688 103.328 69.2688 103.063 69.1696Z" fill="#314C9F"/>
<path opacity="0.9" d="M99.0019 64.1923C98.9521 62.8694 98.919 61.3812 98.919 59.7441C98.919 58.0905 98.9521 56.6188 99.0019 55.296H98.5709C98.5709 55.6432 98.5875 55.9905 98.5875 56.2054C98.5212 58.0244 98.4549 59.8433 98.3886 61.6623C98.3554 62.5056 98.3057 63.4151 97.8251 64.1096C97.7919 64.1427 97.7753 64.1757 97.7422 64.2253H99.0019V64.1923Z" fill="#314C9F"/>
<path d="M105.4 5.4899H103.527C101.82 5.4899 100.692 7.25924 101.438 8.79707C103.079 12.1704 105.516 17.8091 106.941 24.0266H114.632C112.079 15.8579 108.35 9.57426 105.4 5.4899Z" fill="#314C9F"/>
<path d="M83.1234 32.0962C79.7256 32.0962 76.4107 31.0048 73.6759 28.9874L67.7256 24.5889C64.8582 22.4723 61.3941 21.3148 57.814 21.3148H27.2671C27.2671 21.3809 27.2505 21.447 27.2505 21.5132V88.0536C27.2505 90.5174 29.256 92.5348 31.7422 92.5348H81.9466C84.4162 92.5348 86.4383 90.5339 86.4383 88.0536V32.0962H83.1234Z" fill="#314C9F"/>
<path opacity="0.5" d="M86.4217 88.0535V32.0961H83.1234C79.7256 32.0961 76.4107 31.0048 73.6759 28.9874L73.3775 28.7724C74.0737 41.0751 73.9576 53.4605 72.0018 65.6144C71.2394 70.3932 70.0792 75.3375 66.93 79.0084C64.1455 82.2495 60.035 84.1511 55.8416 85.044C51.6482 85.937 47.3223 85.9204 43.046 85.8874C38.8858 85.8543 34.5764 85.8047 30.8306 84.0023C29.3389 83.2912 28.1621 82.3321 27.2339 81.1912V88.0701C27.2339 90.5339 29.2394 92.5513 31.7256 92.5513H81.93C84.4162 92.5348 86.4217 90.5174 86.4217 88.0535Z" fill="#314C9F"/>
<path d="M81.9301 93.097H31.7257C28.9411 93.097 26.6704 90.8316 26.6704 88.0535V21.5132H27.7975V88.0535C27.7975 90.2032 29.5544 91.956 31.7091 91.956H81.9135C84.0682 91.956 85.8251 90.2032 85.8251 88.0535V32.0961H86.9522V88.0535C86.9853 90.8316 84.7146 93.097 81.9301 93.097Z" fill="white"/>
<path opacity="0.5" d="M138.764 26.3582C134.422 28.3425 129.449 28.8717 124.626 29.1197C110.952 29.8142 97.245 28.8055 83.6207 27.4992C81.3334 27.2842 78.7975 27.0362 76.908 25.5645C76.3445 25.1345 75.9301 24.5723 75.5323 24.0101H66.8804C67.1621 24.192 67.4439 24.3739 67.7257 24.5889L73.676 28.9874C76.4108 31.0048 79.7257 32.0961 83.1235 32.0961H143.521L138.764 26.3582Z" fill="#314C9F"/>
<path opacity="0.5" d="M114.632 24.0101C114.068 22.2077 113.438 20.5045 112.775 18.9005C111.996 19.132 111.118 19.132 110.339 18.8509C108.963 18.3548 107.902 17.2138 107.057 16.0233C105.002 13.0964 104.223 9.7727 103.112 6.44899C103.013 6.15135 102.897 5.88677 102.764 5.63873C101.521 6.06867 100.825 7.50729 101.438 8.79709C103.079 12.1704 105.516 17.8091 106.941 24.0266H114.632V24.0101Z" fill="#314C9F"/>
<path opacity="0.5" d="M152.372 86.8464C151.212 86.648 150.317 85.6228 149.936 84.4983C149.554 83.3739 149.571 82.1668 149.604 80.9927C149.687 76.991 149.786 72.9894 149.869 68.9877C150.019 61.8607 150.184 54.7338 150.333 47.6068C150.4 44.4981 150.466 41.3893 150.532 38.2806C149.836 37.9168 149.041 37.6853 148.195 37.6853V94.4695C150.963 94.4695 153.217 92.2371 153.217 89.4591V86.8134C152.936 86.8795 152.654 86.896 152.372 86.8464Z" fill="#314C9F"/>
<path opacity="0.5" d="M156.3 70.5916C156.168 70.5751 156.018 70.5586 155.886 70.5255C155.256 70.3105 154.792 69.7648 154.543 69.153C154.295 68.5412 154.212 67.8797 154.162 67.2183C154.013 65.3332 154.013 63.4481 154.112 61.563C154.129 61.2323 154.245 60.5048 154.245 59.8268H153.217V72.3444H156.3V70.5916Z" fill="#314C9F"/>
<path opacity="0.5" d="M159.002 76.2469C158.803 76.2469 158.604 76.2138 158.438 76.1312C157.941 75.8831 157.61 75.3705 157.461 74.8248C157.311 74.2791 157.328 73.7169 157.344 73.1547C157.394 71.005 157.461 68.8388 157.51 66.6892C157.61 62.8859 157.709 59.0992 157.809 55.3125C157.825 54.833 157.908 54.2211 157.908 53.6589H156.3V78.4958H159.002V76.2469Z" fill="#314C9F"/>
<g opacity="0.9">
<path opacity="0.9" d="M153.731 69.9468C153.665 68.905 153.615 67.8632 153.565 66.8215C153.499 64.986 153.482 63.134 153.532 61.2985C153.549 60.8024 153.565 60.3063 153.582 59.8103H153.217V72.3279H154.063C153.864 71.5507 153.781 70.757 153.731 69.9468Z" fill="#314C9F"/>
<path opacity="0.9" d="M155.67 72.113C155.67 72.1791 155.654 72.2618 155.654 72.3279H156.3V59.8103H155.505C155.753 63.9112 155.836 68.0121 155.67 72.113Z" fill="#314C9F"/>
</g>
</svg>
