<svg width="159" height="118" viewBox="0 0 159 118" fill="none" xmlns="http://www.w3.org/2000/svg">
<g clip-path="url(#clip0_22_19)">
<path d="M134.983 27.4661H110.105V16.2217H132.431C133.84 16.2217 134.983 17.3627 134.983 18.7682V27.4661Z" fill="white"/>
<path d="M130.923 10.9302H114.05V16.2217H130.923V10.9302Z" fill="white"/>
<path d="M123.564 8.71442H121.425V10.9302H123.564V8.71442Z" fill="white"/>
<path d="M127.409 6.71356H117.597V8.13565C117.597 8.44983 117.862 8.7144 118.177 8.7144H126.829C127.144 8.7144 127.409 8.44983 127.409 8.13565V6.71356Z" fill="white"/>
<path opacity="0.5" d="M134.983 26.4243V19.7604C133.591 20.7525 131.867 21.2982 130.16 21.5132C127.906 21.7943 125.602 21.5793 123.332 21.5132C121.16 21.447 118.89 21.4966 116.95 20.5375C115.972 20.058 115.144 19.3139 114.514 18.421C114.017 17.7264 113.851 16.9823 113.586 16.2382H110.105V26.7054C110.354 26.9204 110.586 27.1354 110.867 27.3173C110.967 27.3834 111.083 27.433 111.199 27.4992H132.713C133.508 27.2015 134.287 26.8543 134.983 26.4243Z" fill="white"/>
<path opacity="0.5" d="M134.983 21.8273C134.967 21.8439 134.934 21.8604 134.917 21.8604C132.878 23.0179 130.442 23.1337 128.088 23.2329C125.635 23.3321 123.182 23.4148 120.729 23.3156C119.188 23.2494 117.58 23.1006 116.238 22.34C114.796 21.5297 113.818 20.0745 113.221 18.5367C112.939 17.776 112.74 16.9989 112.591 16.2051H110.088V21.8935C110.586 22.5715 111.166 23.1833 111.812 23.7124C114 25.4487 116.768 26.259 119.519 26.7385C123.414 27.3999 127.392 27.4826 131.32 27.185C132.564 27.0857 133.84 26.9369 134.967 26.4078V21.8273H134.983Z" fill="white"/>
<path opacity="0.5" d="M129.729 11.4263C129.481 12.7987 128.271 13.8405 126.945 14.32C125.619 14.783 124.193 14.783 122.785 14.783C121.011 14.7665 119.238 14.7665 117.481 14.75C116.586 14.75 115.658 14.7334 114.812 14.4027C114.58 14.3035 114.298 14.0885 114.05 13.9066V16.2382H130.939V10.9467H129.829C129.779 11.0955 129.763 11.2609 129.729 11.4263Z" fill="white"/>
<path opacity="0.5" d="M130.939 14.6343C130.442 14.9154 129.878 15.1138 129.331 15.2461C128.188 15.5107 127.011 15.5107 125.834 15.5272C123.348 15.5437 120.862 15.5603 118.359 15.5603C117.365 15.5603 116.337 15.5603 115.392 15.2296C114.845 15.0311 114.447 14.7335 114.066 14.3697V16.2217H130.939V14.6343Z" fill="white"/>
<path opacity="0.5" d="M121.425 9.35931C122.006 9.44199 122.503 9.57428 122.669 10.3349C122.702 10.5334 122.702 10.7318 122.735 10.9137H123.58V8.71442H121.442V9.35931H121.425Z" fill="white"/>
<path opacity="0.5" d="M121.425 9.07821C122.171 9.01206 122.851 9.01206 123.564 9.2601V8.71442H121.425V9.07821Z" fill="white"/>
<path opacity="0.5" d="M127.409 8.13565V6.71356H126.182C126.182 6.74663 126.199 6.76317 126.199 6.79624C126.249 7.14349 126.033 7.47421 125.735 7.67264C125.436 7.87107 125.088 7.93722 124.74 7.98682C123.696 8.13565 122.635 8.15218 121.575 8.11911C120.646 8.08604 119.718 7.98682 118.79 7.88761C118.26 7.838 117.912 7.73879 117.58 7.54036V8.13565C117.58 8.44983 117.845 8.7144 118.16 8.7144H126.812C127.144 8.7144 127.409 8.44983 127.409 8.13565Z" fill="white"/>
<path d="M40.5249 12.5838C41.4696 10.9467 43.2431 9.97113 45.1492 9.97113H90.7458C92.6685 9.97113 94.442 10.9964 95.4033 12.6499C96.8121 15.0642 98.7514 19.0163 100.044 24.0101H114.646C111.348 13.5098 106.061 6.0852 103.094 2.48038C101.801 0.909473 99.8784 0 97.8232 0H33.2818C31.0773 0 28.9724 1.0583 27.7127 2.86071C21.1657 12.3027 19.1271 21.3147 19.1271 21.3147V24.0101H35.4696C36.3646 21.2651 37.9558 16.9989 40.5249 12.5838Z" fill="white"/>
<path opacity="0.5" d="M114.63 24.0101C113.304 19.7935 111.663 16.0894 109.989 12.9145C110.055 13.146 110.088 13.3775 110.105 13.609C110.238 15.6926 107.95 17.3131 105.878 17.1808C103.79 17.032 102.017 15.6264 100.657 14.0224C99.2984 12.435 98.221 10.5995 96.7127 9.17742C92.6188 5.29149 86.4033 5.02692 80.7514 4.97731C73.9724 4.9277 67.21 4.86156 60.431 4.81195C53.3702 4.74581 45.8619 4.81195 39.9282 8.63174C37.5083 10.1861 35.4862 12.2862 33.2486 14.0886C31.0111 15.891 28.3757 17.4454 25.5083 17.5776C24.0829 17.6438 22.7072 17.28 21.4641 16.5855C21.2486 16.4697 21.0332 16.3044 20.8011 16.139C19.6078 19.2974 19.1437 21.3478 19.1437 21.3478V24.0432H35.4862C36.3647 21.2982 37.9724 17.032 40.5249 12.6169C41.4696 10.9798 43.2431 10.0042 45.1492 10.0042H90.7459C92.6685 10.0042 94.442 11.0294 95.4033 12.683C96.8122 15.0973 98.7514 19.0493 100.044 24.0432H114.63V24.0101Z" fill="white"/>
<path d="M4.29288 25.8952C1.69067 37.1727 -3.8121 67.4664 4.11056 95.6931C4.82326 98.2562 7.17685 100.026 9.82879 100.026H144.431C146.503 100.026 148.193 98.3554 148.193 96.2719V35.8498C148.193 33.7828 146.519 32.0962 144.431 32.0962H83.105C79.7072 32.0962 76.3923 31.0048 73.6575 28.9874L67.7072 24.5889C64.8398 22.4723 61.3758 21.3148 57.7956 21.3148H10.0608C7.30945 21.3148 4.90614 23.1999 4.29288 25.8952Z" fill="white"/>
<path opacity="0.5" d="M144.448 32.0961H133.641C133.773 32.3442 133.906 32.6087 134.022 32.8402C137.934 40.5956 136.873 49.8557 135.348 58.4047C133.873 66.6065 131.751 75.2878 125.586 80.91C118.028 87.8055 106.74 88.1031 96.5138 88.0204C80.0884 87.8882 63.663 87.7393 47.221 87.6071C39.116 87.5409 30.9447 87.4582 23.0221 85.7385C15.0994 84.0188 7.35911 80.5132 1.8895 74.5272C1.30939 73.8823 0.779003 73.2374 0.29834 72.5925C0.795577 80.1659 1.9558 88.0039 4.11049 95.6931C4.8232 98.2562 7.17679 100.025 9.82873 100.025H144.431C146.503 100.025 148.193 98.3554 148.193 96.2719V35.8498C148.193 33.7828 146.519 32.0961 144.448 32.0961Z" fill="white"/>
<path d="M67.7237 24.5888L73.674 28.9874C76.4088 31.0047 79.7237 32.0961 83.1215 32.0961H143.519L138.696 26.2755C137.503 24.8369 135.729 24.0101 133.873 24.0101H66.895C67.1768 24.192 67.4586 24.3739 67.7237 24.5888Z" fill="white"/>
<path d="M156.298 59.8102H153.216V72.3279H156.298V59.8102Z" fill="white"/>
<path d="M148.193 94.4529V37.6687C150.961 37.6687 153.215 39.901 153.215 42.6791V89.4591C153.215 92.2206 150.978 94.4529 148.193 94.4529Z" fill="white"/>
<path d="M159 53.6424H156.298V78.4793H159V53.6424Z" fill="white"/>
<path d="M17.9834 21.3148H10.0608C7.3094 21.3148 4.90609 23.1999 4.27625 25.8952C1.74034 36.9246 -3.56352 66.1931 3.64642 93.9238L13.3923 87.359C16.2597 85.4243 17.9834 82.1833 17.9834 78.7273V21.3148Z" fill="white"/>
<path opacity="0.5" d="M10.2431 66.9703C10.0774 71.435 9.74586 76.3627 6.58011 79.5376C5.17127 80.9431 3.2652 81.7368 1.27625 81.9518C1.83978 85.937 2.61879 89.9552 3.64641 93.9238L13.3923 87.359C16.2597 85.4243 17.9834 82.1833 17.9834 78.7273V21.3148H10.0774C11.2873 36.4782 10.7735 51.7408 10.2431 66.9703Z" fill="white"/>
<path d="M11.8343 73.7665H0.397827C0.513849 75.2548 0.646446 76.743 0.812192 78.2478H11.8509C13.094 78.2478 14.0884 77.2391 14.0884 76.0154C14.0719 74.7587 13.0774 73.7665 11.8343 73.7665Z" fill="#183693"/>
<path d="M11.8343 65.9617H0.0332031C0.0663523 67.4334 0.116076 68.9381 0.182374 70.4429H11.8343C13.0774 70.4429 14.0719 69.4342 14.0719 68.2105C14.0719 66.9704 13.0774 65.9617 11.8343 65.9617Z" fill="#183693"/>
<path d="M11.8343 58.1732H0.0994745C0.0497507 59.6449 0.0166016 61.1331 0.0166016 62.6544H11.8343C13.0774 62.6544 14.0719 61.6458 14.0719 60.4221C14.0719 59.1819 13.0774 58.1732 11.8343 58.1732Z" fill="#183693"/>
<path d="M11.8343 50.3848H0.547C0.430978 51.84 0.33153 53.3282 0.248657 54.866H11.8343C13.0774 54.866 14.0719 53.8574 14.0719 52.6337C14.0719 51.377 13.0774 50.3848 11.8343 50.3848Z" fill="#183693"/>
<path d="M11.8343 42.5799H1.34257C1.16025 44.0185 0.994508 45.5067 0.845337 47.0611H11.8343C13.0774 47.0611 14.0719 46.0524 14.0719 44.8288C14.0719 43.5886 13.0774 42.5799 11.8343 42.5799Z" fill="#183693"/>
<path d="M11.8343 34.7915H2.51935C2.27073 36.1971 2.03868 37.6853 1.80664 39.2727H11.8343C13.0774 39.2727 14.0718 38.264 14.0718 37.0404C14.0718 35.7837 13.0774 34.7915 11.8343 34.7915Z" fill="#183693"/>
<path d="M11.8343 26.9866H4.04427C3.7625 28.2764 3.44758 29.7977 3.11609 31.4678H11.8343C13.0774 31.4678 14.0719 30.4591 14.0719 29.2355C14.0719 27.9953 13.0774 26.9866 11.8343 26.9866Z" fill="#183693"/>
<path opacity="0.5" d="M14.0718 29.2355C14.0718 27.9953 13.0607 27.0031 11.8342 27.0031H4.04415C3.91156 27.5819 3.77896 28.2268 3.64636 28.8882C3.79553 28.8717 3.9447 28.8551 4.06073 28.8386C6.18227 28.7228 8.33697 28.7063 10.4254 29.0866C11.4861 29.2851 12.7127 29.7315 12.9779 30.7898C13.011 30.9056 13.011 31.0213 13.0276 31.1371C13.6574 30.7237 14.0718 30.0292 14.0718 29.2355Z" fill="#183693"/>
<path opacity="0.5" d="M14.0719 37.0238C14.0719 35.7837 13.0609 34.7915 11.8343 34.7915H2.51943C2.4034 35.486 2.27081 36.2136 2.15479 36.9577C2.37025 36.9412 2.58572 36.9081 2.80119 36.8916C4.4918 36.7923 6.18241 36.6931 7.87302 36.5774C8.80119 36.5278 9.74594 36.4616 10.641 36.6931C11.536 36.9246 12.4145 37.4703 12.7791 38.3136C12.862 38.5121 12.9283 38.727 13.0111 38.9255C13.641 38.5286 14.0719 37.8341 14.0719 37.0238Z" fill="#183693"/>
<path opacity="0.5" d="M14.0719 44.8122C14.0719 43.572 13.0608 42.5799 11.8343 42.5799H1.34261C1.25974 43.2579 1.17687 43.9854 1.09399 44.6965C1.62438 44.6799 2.20449 44.5311 2.61886 44.4981C4.873 44.2831 7.14372 44.3988 9.36471 44.8122C10.4752 45.0272 11.6852 45.391 12.2487 46.3666C12.3481 46.5485 12.4476 46.7469 12.5305 46.9288C13.4421 46.6312 14.0719 45.8044 14.0719 44.8122Z" fill="#183693"/>
<path opacity="0.5" d="M14.0718 52.6172C14.0718 51.377 13.0607 50.3848 11.8342 50.3848H0.546903C0.49718 51.0297 0.46403 51.7242 0.414307 52.3857C0.613202 52.3691 0.828671 52.3526 0.944693 52.3691C1.49165 52.3857 2.02204 52.3857 2.569 52.4022C4.7237 52.4518 6.87839 52.5014 9.04967 52.5345C9.76237 52.551 10.4917 52.5676 11.1712 52.7825C11.8508 52.9975 12.5138 53.4109 12.8287 54.0558C12.895 54.2046 12.9613 54.37 13.0276 54.5188C13.6574 54.1219 14.0718 53.4109 14.0718 52.6172Z" fill="#183693"/>
<path opacity="0.5" d="M11.8344 58.1732H0.0995554C0.0829808 58.8677 0.0664062 59.5788 0.0664062 60.2733C2.05536 60.389 4.07746 60.1906 6.06641 60.2402C7.25978 60.2733 8.45315 60.3394 9.62994 60.4221C10.1603 60.4552 10.7073 60.5048 11.2211 60.7032C11.7349 60.8851 12.199 61.2324 12.4145 61.7284C12.5139 61.9599 12.5636 62.2245 12.6631 62.4725C13.5084 62.1418 14.0885 61.3481 14.0885 60.389C14.0719 59.1819 13.0775 58.1732 11.8344 58.1732Z" fill="#183693"/>
<path opacity="0.5" d="M14.0719 68.2105C14.0719 66.9703 13.0608 65.9781 11.8343 65.9781H0.0332031C0.0497777 66.7057 0.0829269 67.4498 0.0995015 68.1939C0.497292 68.2105 0.928231 68.1443 1.2763 68.1443C3.66304 68.0947 6.04978 68.0286 8.43652 67.979C9.26525 67.9624 10.1106 67.9459 10.9061 68.1609C11.7017 68.3758 12.4641 68.8719 12.8122 69.616C12.8785 69.7649 12.9448 69.9467 13.0111 70.1121C13.6575 69.6987 14.0719 69.0042 14.0719 68.2105Z" fill="#183693"/>
<path opacity="0.5" d="M11.8343 73.7665H0.397827C0.447551 74.3949 0.513849 75.0398 0.563573 75.6682C1.11053 75.7178 1.70722 75.6516 2.13816 75.6516C4.50833 75.6516 6.87849 75.6682 9.24866 75.6682C9.94479 75.6682 10.6409 75.6682 11.3039 75.8831C11.9669 76.0816 12.5801 76.528 12.8453 77.1564C12.9448 77.3879 12.9945 77.636 13.0608 77.8675C13.6741 77.4706 14.0719 76.7761 14.0719 75.9989C14.0719 74.7587 13.0774 73.7665 11.8343 73.7665Z" fill="#183693"/>
<path opacity="0.5" d="M2.53601 89.178C2.8675 90.7654 3.23214 92.3363 3.64651 93.9238L13.3924 87.359C16.2598 85.4243 17.9835 82.1833 17.9835 78.7273V21.3148H16.4752C16.3592 37.4207 16.2598 53.5101 16.1437 69.6161C16.1106 73.3697 16.0774 77.2226 14.6023 80.6786C13.1437 84.0684 10.3095 86.8464 6.89513 88.2354C5.48629 88.7977 4.01115 89.0953 2.53601 89.178Z" fill="white"/>
<path d="M140.387 108.31H14.8011C12.5138 108.31 10.6575 106.458 10.6575 104.176V100.042H144.53V104.176C144.53 106.458 142.674 108.31 140.387 108.31Z" fill="#183693"/>
<path opacity="0.5" d="M144.53 104.176V100.042H10.6575V104.176C10.6575 104.49 10.7072 104.804 10.7735 105.085C10.9724 104.953 11.1713 104.821 11.3868 104.705C13.7238 103.515 16.442 103.465 19.0608 103.432C53.1216 102.985 87.1989 102.539 121.26 102.093C126.746 102.026 132.878 102.208 136.724 106.094C137.387 106.772 137.967 107.549 138.564 108.31H140.387C142.674 108.31 144.53 106.458 144.53 104.176Z" fill="#183693"/>
<path opacity="0.9" d="M10.6575 102.572C13.0442 102.291 15.4972 101.778 16.4586 101.745C59.1547 100.737 101.901 99.7279 144.547 102.109V99.8436H10.6575V102.572Z" fill="#183693"/>
<path opacity="0.9" d="M17.7017 100.026C17.7017 100.026 18.2155 103.482 18.2818 108.293H31.5249C31.5249 108.293 31.1602 102.109 32.1381 100.026H17.7017Z" fill="#183693"/>
<path d="M31.011 100.026H18.7126V111.435H31.011V100.026Z" fill="white"/>
<path d="M32.453 118C30.7624 115.619 27.9945 114.081 24.8453 114.081C21.6961 114.081 18.9282 115.635 17.2375 118H32.453Z" fill="white"/>
<path d="M24.8619 114.081C25.558 114.081 26.221 114.164 26.8674 114.313V111.435H22.8563V114.313C23.5027 114.164 24.1657 114.081 24.8619 114.081Z" fill="#183693"/>
<path opacity="0.5" d="M31.011 100.026H18.7126V102.241C19.1602 102.159 19.5911 102.059 19.8231 102.026C20.9502 101.927 22.0939 101.894 23.2044 102.076C25.127 102.374 27.0497 103.382 27.9778 105.102C28.8894 106.789 28.6906 108.839 28.8066 110.741C28.8231 110.972 28.8397 111.204 28.8729 111.435H30.9944V100.026H31.011Z" fill="white"/>
<path opacity="0.9" d="M18.7126 100.026V101.001C19.8066 101.067 20.9999 100.786 22.0441 100.753C23.8508 100.687 25.674 100.819 27.4475 101.166C27.7292 101.216 29.5193 101.745 31.0276 102.225V100.042H18.7126V100.026Z" fill="white"/>
<path opacity="0.5" d="M26.8508 111.435H22.8397V112.113C23.022 112.047 23.2209 111.964 23.4198 111.948C23.7347 111.931 24.0331 111.981 24.3314 112.097C24.9281 112.361 25.3922 112.94 25.4917 113.585C25.5248 113.767 25.5248 113.949 25.5414 114.114C25.9723 114.147 26.4198 114.213 26.8342 114.296V111.435H26.8508Z" fill="#183693"/>
<path opacity="0.9" d="M26.8508 111.998V111.435H22.8397V111.733C22.9889 111.7 23.1381 111.683 23.2044 111.667C24.0662 111.568 24.9281 111.601 25.79 111.749C26.1546 111.799 26.5027 111.898 26.8508 111.998Z" fill="#183693"/>
<path opacity="0.5" d="M17.2542 118H32.4696C31.4088 116.512 29.9171 115.338 28.1768 114.676C28.2597 115.106 28.0939 115.52 27.7956 115.817C27.5138 116.115 27.116 116.297 26.7348 116.446C24.8122 117.14 22.7072 116.909 20.6851 116.661C20.4033 116.628 20.105 116.594 19.8398 116.462C19.6077 116.363 19.3923 116.165 19.3094 115.916C18.5138 116.512 17.8177 117.206 17.2542 118Z" fill="white"/>
<path opacity="0.9" d="M123.166 100.026C123.166 100.026 123.68 103.482 123.746 108.293H136.989C136.989 108.293 136.624 102.109 137.602 100.026H123.166Z" fill="#183693"/>
<path d="M136.475 100.026H124.177V111.435H136.475V100.026Z" fill="white"/>
<path d="M137.934 118C136.243 115.619 133.475 114.081 130.326 114.081C127.177 114.081 124.409 115.635 122.718 118H137.934Z" fill="white"/>
<path d="M130.326 114.081C131.022 114.081 131.685 114.164 132.332 114.313V111.435H128.321V114.313C128.984 114.164 129.647 114.081 130.326 114.081Z" fill="#183693"/>
<path opacity="0.5" d="M136.475 100.026H124.177V102.241C124.624 102.159 125.055 102.059 125.287 102.026C126.414 101.927 127.558 101.894 128.669 102.076C130.591 102.374 132.514 103.382 133.442 105.102C134.354 106.789 134.155 108.839 134.271 110.741C134.287 110.972 134.304 111.204 134.337 111.435H136.459V100.026H136.475Z" fill="white"/>
<path opacity="0.9" d="M124.177 100.026V101.001C125.271 101.067 126.464 100.786 127.508 100.753C129.315 100.687 131.138 100.819 132.912 101.166C133.193 101.216 134.983 101.745 136.492 102.225V100.042H124.177V100.026Z" fill="white"/>
<path opacity="0.5" d="M132.332 111.435H128.321V112.113C128.503 112.047 128.702 111.964 128.901 111.948C129.216 111.931 129.514 111.981 129.812 112.097C130.409 112.361 130.873 112.94 130.972 113.585C131.006 113.767 131.006 113.949 131.022 114.114C131.453 114.147 131.901 114.213 132.315 114.296V111.435H132.332Z" fill="#183693"/>
<path opacity="0.9" d="M132.332 111.998V111.435H128.321V111.733C128.47 111.7 128.619 111.683 128.685 111.667C129.547 111.568 130.409 111.601 131.271 111.749C131.635 111.799 131.984 111.898 132.332 111.998Z" fill="#183693"/>
<path opacity="0.5" d="M122.735 118H137.95C136.89 116.512 135.398 115.338 133.658 114.676C133.74 115.106 133.575 115.52 133.276 115.817C132.995 116.115 132.597 116.297 132.216 116.446C130.293 117.14 128.188 116.909 126.166 116.661C125.884 116.628 125.586 116.594 125.32 116.462C125.088 116.363 124.873 116.165 124.79 115.916C123.995 116.512 123.298 117.206 122.735 118Z" fill="white"/>
<path d="M138.796 45.9036H117.1C115.74 45.9036 114.646 44.8122 114.646 43.4563C114.646 42.1003 115.74 41.009 117.1 41.009H138.796C140.155 41.009 141.249 42.1003 141.249 43.4563C141.249 44.7957 140.155 45.9036 138.796 45.9036Z" fill="#183693"/>
<path d="M138.796 53.6424H117.1C115.74 53.6424 114.646 52.551 114.646 51.1951C114.646 49.8391 115.74 48.7477 117.1 48.7477H138.796C140.155 48.7477 141.249 49.8391 141.249 51.1951C141.249 52.551 140.155 53.6424 138.796 53.6424Z" fill="#183693"/>
<path d="M138.796 61.3977H117.1C115.74 61.3977 114.646 60.3064 114.646 58.9504C114.646 57.5945 115.74 56.5031 117.1 56.5031H138.796C140.155 56.5031 141.249 57.5945 141.249 58.9504C141.249 60.2898 140.155 61.3977 138.796 61.3977Z" fill="#183693"/>
<path d="M138.796 69.1365H117.1C115.74 69.1365 114.646 68.0451 114.646 66.6892C114.646 65.3332 115.74 64.2419 117.1 64.2419H138.796C140.155 64.2419 141.249 65.3332 141.249 66.6892C141.249 68.0451 140.155 69.1365 138.796 69.1365Z" fill="#183693"/>
<path d="M138.796 76.8918H117.1C115.74 76.8918 114.646 75.8004 114.646 74.4445C114.646 73.0886 115.74 71.9972 117.1 71.9972H138.796C140.155 71.9972 141.249 73.0886 141.249 74.4445C141.249 75.7839 140.155 76.8918 138.796 76.8918Z" fill="#183693"/>
<path d="M138.796 84.6306H117.1C115.74 84.6306 114.646 83.5393 114.646 82.1833C114.646 80.8274 115.74 79.736 117.1 79.736H138.796C140.155 79.736 141.249 80.8274 141.249 82.1833C141.249 83.5393 140.155 84.6306 138.796 84.6306Z" fill="#183693"/>
<path d="M138.796 92.386H117.1C115.74 92.386 114.646 91.2946 114.646 89.9387C114.646 88.5827 115.74 87.4913 117.1 87.4913H138.796C140.155 87.4913 141.249 88.5827 141.249 89.9387C141.249 91.2781 140.155 92.386 138.796 92.386Z" fill="#183693"/>
<path opacity="0.5" d="M141.249 43.4563C141.249 42.1003 140.155 41.009 138.796 41.009H117.1C115.74 41.009 114.646 42.1003 114.646 43.4563C114.646 43.6216 114.663 43.8035 114.696 43.9689C116.321 43.9358 118.16 43.4397 119.685 43.324C124.144 42.9767 128.619 42.9437 133.077 43.2413C134.934 43.3571 136.972 43.6382 138.166 45.0603C138.398 45.3248 138.597 45.639 138.796 45.9367C140.155 45.9036 141.249 44.7957 141.249 43.4563Z" fill="#183693"/>
<path opacity="0.5" d="M141.249 51.1951C141.249 49.8391 140.155 48.7477 138.796 48.7477H117.1C115.74 48.7477 114.646 49.8391 114.646 51.1951C114.646 51.3604 114.663 51.5423 114.696 51.6911C116.321 51.6581 118.16 51.162 119.685 51.0462C124.144 50.699 128.619 50.6659 133.077 50.9636C134.934 51.0793 136.972 51.3604 138.166 52.7825C138.398 53.0471 138.597 53.3613 138.796 53.6589C140.155 53.6424 141.249 52.551 141.249 51.1951Z" fill="#183693"/>
<path opacity="0.5" d="M141.249 58.9339C141.249 57.5779 140.155 56.4866 138.796 56.4866H117.1C115.74 56.4866 114.646 57.5779 114.646 58.9339C114.646 59.0992 114.663 59.2811 114.696 59.4465C116.321 59.4134 118.16 58.9173 119.685 58.8016C124.144 58.4543 128.619 58.4213 133.077 58.7189C134.934 58.8347 136.972 59.1158 138.166 60.5379C138.398 60.8024 138.597 61.1166 138.796 61.4143C140.155 61.3977 141.249 60.2898 141.249 58.9339Z" fill="#183693"/>
<path opacity="0.5" d="M141.249 66.6892C141.249 65.3333 140.155 64.2419 138.796 64.2419H117.1C115.74 64.2419 114.646 65.3333 114.646 66.6892C114.646 66.8546 114.663 67.0365 114.696 67.2018C116.321 67.1687 118.16 66.6727 119.685 66.5569C124.144 66.2097 128.619 66.1766 133.077 66.4742C134.934 66.59 136.972 66.8711 138.166 68.2932C138.398 68.5578 138.597 68.8719 138.796 69.1696C140.155 69.1365 141.249 68.0451 141.249 66.6892Z" fill="#183693"/>
<path opacity="0.5" d="M141.249 74.428C141.249 73.072 140.155 71.9807 138.796 71.9807H117.1C115.74 71.9807 114.646 73.072 114.646 74.428C114.646 74.5933 114.663 74.7752 114.696 74.9406C116.321 74.9075 118.16 74.4114 119.685 74.2957C124.144 73.9484 128.619 73.9154 133.077 74.213C134.934 74.3288 136.972 74.6099 138.166 76.032C138.398 76.2965 138.597 76.6107 138.796 76.9084C140.155 76.8918 141.249 75.7839 141.249 74.428Z" fill="#183693"/>
<path opacity="0.5" d="M141.249 82.1833C141.249 80.8274 140.155 79.736 138.796 79.736H117.1C115.74 79.736 114.646 80.8274 114.646 82.1833C114.646 82.3487 114.663 82.5306 114.696 82.6959C116.321 82.6629 118.16 82.1668 119.685 82.051C124.144 81.7038 128.619 81.6707 133.077 81.9684C134.934 82.0841 136.972 82.3652 138.166 83.7873C138.398 84.0519 138.597 84.3661 138.796 84.6637C140.155 84.6306 141.249 83.5393 141.249 82.1833Z" fill="#183693"/>
<path opacity="0.5" d="M141.249 89.9221C141.249 88.5662 140.155 87.4748 138.796 87.4748H117.1C115.74 87.4748 114.646 88.5662 114.646 89.9221C114.646 90.0875 114.663 90.2694 114.696 90.4182C116.321 90.3851 118.16 89.889 119.685 89.7733C124.144 89.426 128.619 89.393 133.077 89.6906C134.934 89.8064 136.972 90.0875 138.166 91.5096C138.398 91.7741 138.597 92.0883 138.796 92.386C140.155 92.386 141.249 91.278 141.249 89.9221Z" fill="#183693"/>
<path d="M101.834 78.4787H96.4806C93.7956 78.4787 91.6409 76.3125 91.6409 73.6502V45.8369C91.6409 43.1581 93.8121 41.0084 96.4806 41.0084H101.834C104.519 41.0084 106.674 43.1746 106.674 45.8369V73.6502C106.674 76.3125 104.503 78.4787 101.834 78.4787Z" fill="#183693"/>
<path opacity="0.5" d="M101.834 40.9924H96.4806C93.7956 40.9924 91.6409 43.1586 91.6409 45.8209V73.6342C91.6409 76.3131 93.8121 78.4627 96.4806 78.4627H96.8784C96.6132 78.1485 96.3315 77.8509 96.1989 77.6194C95.7348 76.8091 95.4033 75.9327 95.1713 75.0233C94.7403 73.3201 94.674 71.5507 94.6243 69.7979C94.442 64.7049 94.2762 59.6284 94.0939 54.5353C93.9945 51.7407 93.9945 48.6485 95.7845 46.4989C97.1934 44.7957 99.5801 44.035 101.768 44.3823C103.691 44.6799 105.447 45.7878 106.691 47.2761V45.8044C106.674 43.1586 104.503 40.9924 101.834 40.9924Z" fill="#183693"/>
<path opacity="0.5" d="M96.0166 55.296C95.7349 55.5275 95.6188 55.9078 95.5194 56.2551C94.8564 58.6858 94.9559 61.2985 95.7349 63.6797C95.8509 64.0104 96.0332 64.3907 96.3813 64.4238C96.6133 64.4403 96.8454 64.275 96.9614 64.0765C97.0774 63.8781 97.1105 63.6301 97.1437 63.3986C97.4586 60.819 97.6078 58.2724 97.0443 55.7259C96.9945 55.4944 97.0111 55.296 96.7956 55.1802C96.547 55.0314 96.199 55.1306 96.0166 55.296Z" fill="#183693"/>
<path d="M103.591 47.491H101.602H99.6132C99.6132 47.491 98.9171 51.7077 98.9171 59.7441C98.9171 67.7806 99.6132 71.9972 99.6132 71.9972H101.602H103.591C103.591 71.9972 104.287 67.7806 104.287 59.7441C104.287 51.7077 103.591 47.491 103.591 47.491Z" fill="white"/>
<path d="M98.9171 59.7441C98.9171 58.0905 98.9503 56.6188 99 55.296H96.4144C95.9337 55.296 95.5525 57.2968 95.5525 59.7441C95.5525 62.1914 95.9337 64.1923 96.4144 64.1923H99C98.9503 62.8694 98.9171 61.3977 98.9171 59.7441Z" fill="white"/>
<path opacity="0.5" d="M98.9172 59.7441C98.9172 58.0905 98.9503 56.6188 99 55.296H98.221C97.7735 56.9826 97.9393 58.8181 97.7569 60.5874C97.6906 61.1662 97.5581 61.8111 97.0608 62.1253C96.6796 62.3733 96.1658 62.3402 95.7514 62.1253C95.7183 62.1087 95.6851 62.0591 95.652 62.0426C95.8011 63.3324 96.0829 64.2088 96.3978 64.2088H98.9835C98.9503 62.8694 98.9172 61.3977 98.9172 59.7441Z" fill="white"/>
<path opacity="0.5" d="M103.061 69.1696C102.315 68.9215 101.751 68.2601 101.453 67.5325C101.155 66.8049 101.055 66.0112 101.006 65.234C100.79 62.3733 100.906 59.5126 101.022 56.6519C101.072 55.4779 101.122 54.3038 101.171 53.1298C101.254 51.2447 101.47 49.3596 101.536 47.4745H99.6133C99.6133 47.4745 98.9171 51.6911 98.9171 59.7276C98.9171 67.764 99.6133 71.9806 99.6133 71.9806H101.602H103.591C103.591 71.9806 103.74 71.0381 103.906 69.2192C103.624 69.2688 103.326 69.2688 103.061 69.1696Z" fill="white"/>
<path opacity="0.9" d="M99 64.1923C98.9503 62.8694 98.9171 61.3812 98.9171 59.7441C98.9171 58.0905 98.9503 56.6188 99 55.296H98.5691C98.5691 55.6432 98.5857 55.9905 98.5857 56.2054C98.5194 58.0244 98.4531 59.8433 98.3868 61.6623C98.3536 62.5056 98.3039 63.4151 97.8232 64.1096C97.7901 64.1427 97.7735 64.1757 97.7404 64.2253H99V64.1923Z" fill="white"/>
<path d="M105.398 5.48993H103.525C101.818 5.48993 100.691 7.25927 101.436 8.7971C103.077 12.1704 105.514 17.8092 106.939 24.0266H114.63C112.077 15.8579 108.348 9.57429 105.398 5.48993Z" fill="white"/>
<path d="M83.1215 32.0962C79.7237 32.0962 76.4088 31.0048 73.674 28.9874L67.7237 24.5889C64.8563 22.4723 61.3922 21.3148 57.8121 21.3148H27.2651C27.2651 21.3809 27.2485 21.447 27.2485 21.5132V88.0536C27.2485 90.5174 29.2541 92.5348 31.7402 92.5348H81.9447C84.4143 92.5348 86.4364 90.5339 86.4364 88.0536V32.0962H83.1215Z" fill="white"/>
<path opacity="0.5" d="M86.4198 88.0536V32.0962H83.1214C79.7236 32.0962 76.4087 31.0048 73.6739 28.9874L73.3756 28.7725C74.0717 41.0752 73.9557 53.4605 71.9999 65.6144C71.2374 70.3933 70.0772 75.3375 66.9281 79.0085C64.1435 82.2495 60.033 84.1511 55.8397 85.044C51.6463 85.937 47.3203 85.9205 43.0441 85.8874C38.8839 85.8543 34.5745 85.8047 30.8286 84.0023C29.3369 83.2912 28.1601 82.3322 27.2319 81.1912V88.0701C27.2319 90.534 29.2375 92.5513 31.7236 92.5513H81.9281C84.4142 92.5348 86.4198 90.5174 86.4198 88.0536Z" fill="white"/>
<path d="M81.9281 93.097H31.7237C28.9392 93.097 26.6685 90.8316 26.6685 88.0535V21.5132H27.7955V88.0535C27.7955 90.2032 29.5524 91.956 31.7071 91.956H81.9116C84.0663 91.956 85.8232 90.2032 85.8232 88.0535V32.0961H86.9502V88.0535C86.9834 90.8316 84.7127 93.097 81.9281 93.097Z" fill="#183693"/>
<path opacity="0.5" d="M138.762 26.3582C134.42 28.3425 129.447 28.8716 124.624 29.1197C110.95 29.8142 97.2431 28.8055 83.6188 27.4991C81.3315 27.2842 78.7955 27.0361 76.906 25.5644C76.3425 25.1345 75.9281 24.5723 75.5304 24.0101H66.8784C67.1602 24.192 67.442 24.3739 67.7237 24.5888L73.674 28.9874C76.4088 31.0047 79.7237 32.0961 83.1215 32.0961H143.519L138.762 26.3582Z" fill="white"/>
<path opacity="0.5" d="M114.63 24.0101C114.066 22.2077 113.436 20.5045 112.773 18.9005C111.994 19.132 111.116 19.132 110.337 18.8509C108.961 18.3548 107.901 17.2138 107.055 16.0233C105 13.0964 104.221 9.7727 103.11 6.44899C103.011 6.15135 102.895 5.88677 102.762 5.63873C101.519 6.06867 100.823 7.50729 101.436 8.79709C103.077 12.1704 105.514 17.8091 106.939 24.0266H114.63V24.0101Z" fill="white"/>
<path opacity="0.5" d="M152.37 86.8464C151.21 86.648 150.315 85.6227 149.934 84.4983C149.552 83.3739 149.569 82.1667 149.602 80.9927C149.685 76.991 149.785 72.9893 149.867 68.9877C150.017 61.8607 150.182 54.7337 150.331 47.6068C150.398 44.498 150.464 41.3893 150.53 38.2805C149.834 37.9167 149.039 37.6852 148.193 37.6852V94.4694C150.961 94.4694 153.215 92.2371 153.215 89.4591V86.8133C152.934 86.8795 152.652 86.896 152.37 86.8464Z" fill="white"/>
<path opacity="0.5" d="M156.298 70.5916C156.166 70.5751 156.017 70.5586 155.884 70.5255C155.254 70.3105 154.79 69.7648 154.542 69.153C154.293 68.5412 154.21 67.8797 154.16 67.2183C154.011 65.3332 154.011 63.4481 154.111 61.563C154.127 61.2323 154.243 60.5048 154.243 59.8268H153.216V72.3444H156.298V70.5916Z" fill="white"/>
<path opacity="0.5" d="M159 76.2469C158.801 76.2469 158.602 76.2139 158.437 76.1312C157.939 75.8832 157.608 75.3705 157.459 74.8249C157.31 74.2792 157.326 73.717 157.343 73.1547C157.392 71.0051 157.459 68.8389 157.508 66.6892C157.608 62.886 157.707 59.0992 157.807 55.3125C157.823 54.833 157.906 54.2212 157.906 53.6589H156.298V78.4958H159V76.2469Z" fill="white"/>
<g opacity="0.9">
<path opacity="0.9" d="M153.729 69.9467C153.663 68.905 153.613 67.8632 153.564 66.8214C153.497 64.986 153.481 63.134 153.53 61.2985C153.547 60.8024 153.564 60.3063 153.58 59.8102H153.216V72.3279H154.061C153.862 71.5507 153.779 70.757 153.729 69.9467Z" fill="white"/>
<path opacity="0.9" d="M155.669 72.1129C155.669 72.1791 155.652 72.2617 155.652 72.3279H156.298V59.8102H155.503C155.751 63.9111 155.834 68.012 155.669 72.1129Z" fill="white"/>
</g>
</g>
<defs>
<clipPath id="clip0_22_19">
<rect width="159" height="118" fill="white"/>
</clipPath>
</defs>
</svg>
