<svg width="143" height="104" viewBox="0 0 143 104" fill="none" xmlns="http://www.w3.org/2000/svg">
<path d="M0 69.3333C0 52.7042 0 36.1292 0 19.5C1.14183 19.0125 2.28365 18.3625 3.47985 18.0375C26.4795 12.4583 49.5335 6.87917 72.5875 1.3C73.4574 1.08333 74.2186 0.433333 75.0342 0C78.2966 0 81.5589 0 84.8213 0C85.4738 0.4875 86.0719 1.19167 86.8331 1.4625C94.119 4.3875 101.405 7.36667 108.745 10.075C111.355 11.05 112.116 12.5667 112.062 15.1667C111.844 23.0208 111.79 30.8208 111.573 38.675C111.518 40.95 112.225 41.8167 114.617 41.9792C123.1 42.575 131.582 43.2792 140.01 44.0917C141.043 44.2 142.021 45.0125 143 45.5C143 59.9625 143 74.3708 143 88.8333C141.586 90.2417 140.336 91.975 138.65 93.0583C132.941 96.7958 127.069 100.371 121.251 104C117.825 104 114.346 104 110.92 104C105.429 102.7 99.8825 101.346 94.3909 100.1C65.519 93.6 36.7015 87.2083 7.82966 80.7083C2.17491 79.4625 1.73992 80.7083 1.84867 73.5583C1.84867 72.15 0.652472 70.7417 0 69.3333ZM117.445 70.4708C117.554 70.4708 117.662 70.4708 117.825 70.4708C117.825 63.7 117.771 56.9292 117.825 50.2125C117.825 48.1542 117.227 46.9625 114.944 47.0167C110.594 47.0708 106.244 47.125 101.894 47.0708C99.665 47.0708 98.8494 48.1 98.8494 50.2125C98.9038 62.4542 98.9038 74.75 98.8494 86.9917C98.8494 89.375 99.8825 90.35 102.166 90.7292C106.298 91.3792 110.376 92.0833 114.454 93.0042C116.847 93.5458 117.554 92.8958 117.499 90.5667C117.391 83.7958 117.445 77.1333 117.445 70.4708ZM96.9464 68.6833C96.892 68.6833 96.892 68.6833 96.8377 68.6833C96.8377 62.6708 96.7833 56.6042 96.892 50.5917C96.9464 48.3167 96.0764 47.2875 93.7384 47.3417C87.9749 47.5583 82.157 47.7208 76.3935 47.8292C74.273 47.8833 73.403 48.75 73.403 50.9708C73.5118 61.5333 73.4574 72.0417 73.403 82.6042C73.403 84.4458 74.0011 85.4208 75.9042 85.7458C82.157 86.8292 88.3555 88.0208 94.554 89.2125C96.457 89.5917 97.0008 88.7792 97.0008 87.1C96.9464 80.925 96.9464 74.8042 96.9464 68.6833ZM119.783 92.4625C120.653 92.2458 121.033 92.2458 121.36 92.0833C127.232 89.1583 133.213 86.2875 138.976 83.1458C140.064 82.55 140.988 80.7083 141.043 79.4625C141.151 70.2 140.934 60.8833 140.879 51.6208C140.879 49.3458 139.738 48.425 137.563 48.2625C132.778 47.9375 127.993 47.45 123.263 47.0708C119.946 46.8 119.62 47.125 119.62 50.375C119.62 63.4292 119.62 76.4833 119.62 89.5917C119.565 90.4583 119.674 91.325 119.783 92.4625ZM26.9688 45.6625C26.9688 36.3458 26.9144 27.0833 26.9688 17.7667C26.9688 15.3833 26.262 14.3542 23.7608 15.1667C22.5646 15.5458 21.3141 15.925 20.0635 16.0875C17.1818 16.4667 16.2574 18.0375 16.2574 20.9083C16.3662 36.5083 16.3118 52.1625 16.3118 67.7625C16.3118 74.9125 15.2243 74.4792 23.4346 75.8875C26.8057 76.4292 26.9145 76.3208 26.9145 72.8C26.9688 63.7 26.9688 54.6542 26.9688 45.6625ZM38.3871 45.4458C38.3871 41.7625 38.3871 38.0792 38.3871 34.3417C38.3871 27.8417 38.4414 21.3417 38.3327 14.8958C38.3327 13.975 37.789 12.4583 37.1365 12.2417C33.4392 10.9417 28.6 14.5708 28.6 18.4167C28.6 35.8042 28.6544 53.1917 28.6544 70.6333C28.6544 77.4583 27.7844 76.7542 35.0703 78.0542C37.6802 78.5417 38.3871 77.7292 38.3871 75.1833C38.3327 65.2708 38.3871 55.3583 38.3871 45.4458ZM117.445 98.7458C118.043 96.1458 116.412 95.225 113.748 94.7917C105.918 93.4917 98.0882 91.9208 90.2586 90.4583C74.5449 87.5333 58.7768 84.6625 43.0631 81.7375C31.0468 79.5167 19.0848 77.1875 7.06844 74.9667C6.19848 74.8042 5.1654 75.5083 4.18669 75.8333C4.89354 76.6458 5.49164 77.5125 6.30722 78.1625C6.74221 78.5417 7.50342 78.5417 8.10152 78.7042C15.6049 80.3833 23.1084 82.0083 30.6118 83.6875C58.3418 89.8625 86.0175 96.0375 113.748 102.213C117.064 102.971 117.445 102.592 117.445 98.7458ZM71.3369 66.3542C71.3369 61.1542 71.3369 55.9 71.3369 50.7C71.3369 48.6417 70.5213 47.8292 68.3464 47.9917C65.0297 48.2625 61.6586 48.2083 58.3418 48.2625C55.1882 48.3167 54.5901 48.9667 54.5901 52.1083C54.5901 60.775 54.6445 69.3875 54.5357 78.0542C54.4814 80.7625 55.5688 82.0083 58.1787 82.3875C61.3323 82.8208 64.4316 83.4167 67.5308 84.1208C71.1194 84.8792 71.3369 84.7167 71.3369 80.9792C71.3369 76.1042 71.3369 71.2292 71.3369 66.3542ZM82.1027 22.2083C82.1027 28.0042 82.157 33.7458 82.0483 39.5417C82.0483 41.8167 82.8639 42.8458 85.2563 42.7375C92.1072 42.5208 99.0126 42.3583 105.864 42.3042C108.365 42.3042 109.452 41.4917 109.452 38.8917C109.506 31.3083 109.67 23.725 109.887 16.1958C109.941 13.8667 109.017 12.5125 106.897 11.6458C99.5563 8.775 92.2703 5.85 84.9844 2.97917C82.6464 2.00417 82.1027 2.38333 82.1027 4.875C82.1027 10.6708 82.1027 16.4667 82.1027 22.2083ZM66.1715 23.9958C66.1715 18.5792 66.1715 13.1625 66.1715 7.74583C66.1715 6.12083 65.7365 4.98333 63.8335 5.47083C59.7011 6.44583 55.5145 7.36667 51.4909 8.6125C50.5122 8.9375 49.2616 10.4542 49.2616 11.4292C49.0985 21.2875 49.1529 31.0917 49.1529 40.95C49.1529 42.9 50.1316 43.7125 52.089 43.6042C55.6232 43.4417 59.1574 43.2792 62.6916 43.2792C65.1928 43.2792 66.2802 42.3042 66.2259 39.7042C66.0627 34.5042 66.1715 29.25 66.1715 23.9958ZM80.0365 22.4792C79.9821 22.4792 79.9821 22.4792 80.0365 22.4792C80.0365 16.4667 79.9821 10.4 80.0365 4.3875C80.0365 2.4375 79.2753 1.73333 77.3722 2.22083C75.1973 2.7625 73.0224 3.35833 70.7932 3.79167C68.7814 4.17083 68.1289 5.3625 68.1289 7.20417C68.1289 18.2 68.1289 29.1958 68.1289 40.1917C68.1289 42.1417 68.6183 43.2792 71.0107 42.9C72.8593 42.6292 74.8167 42.6833 76.7198 42.7917C79.1665 42.9542 80.1453 41.9792 80.0909 39.4875C79.9278 33.8542 80.0365 28.1667 80.0365 22.4792ZM14.2456 45.9875C14.3 45.9875 14.3 45.9875 14.2456 45.9875C14.2456 37.4833 14.2456 29.0333 14.3 20.5292C14.3 18.4167 13.7019 17.4417 11.3639 18.2542C9.40646 18.9042 7.3403 19.2833 5.27414 19.7167C3.04487 20.15 2.06616 21.2875 2.12053 23.6708C2.22928 28.5458 2.06616 33.4208 2.22928 38.2958C2.28365 39.65 3.09924 40.95 3.26236 42.3583C3.47985 44.0375 3.58859 45.7708 3.42548 47.45C3.26236 49.1292 2.3924 50.8083 2.33802 52.5417C2.17491 56.6583 2.22928 60.8292 2.22928 65C2.22928 69.7125 4.51293 72.3667 9.1346 73.125C9.67833 73.2333 10.2221 73.3417 10.7114 73.45C13.8106 74.0458 14.1913 73.775 14.1913 70.5792C14.3 62.4 14.2456 54.1667 14.2456 45.9875ZM52.7958 65C52.7958 65 52.8502 65 52.7958 65C52.7958 60.3958 52.7958 55.7917 52.7958 51.2417C52.7958 49.6167 52.4696 48.3708 50.4034 48.4792C47.9567 48.5875 45.5099 48.6958 43.1175 48.6958C41.3232 48.6958 40.3989 49.4542 40.3989 51.2417C40.3989 59.6917 40.3989 68.1958 40.3989 76.6458C40.3989 78.4875 41.2688 79.4083 43.1719 79.625C45.0749 79.8417 46.9236 80.275 48.7722 80.6542C52.6871 81.4125 52.7958 81.3583 52.7958 77.4583C52.8502 73.2875 52.7958 69.1708 52.7958 65ZM46.8148 26.8125C46.7605 22.0458 46.8148 17.2792 46.7061 12.4583C46.7061 11.6458 46.3799 10.5083 45.8361 10.1833C44.1506 9.20833 40.5076 11.4292 40.5076 13.4333C40.4532 22.6417 40.4532 31.7958 40.4532 41.0042C40.4532 43.4958 41.9757 43.6042 43.8787 43.6583C45.9449 43.7125 46.8692 42.9542 46.8692 40.8417C46.7605 36.1833 46.8148 31.525 46.8148 26.8125ZM140.499 84.9333C139.52 85.3667 138.596 85.6375 137.726 86.0708C132.832 88.5625 127.939 91.0542 122.991 93.5458C119.729 95.225 119.13 96.3083 119.457 99.9917C119.62 101.671 120.272 102.158 121.74 101.238C127.504 97.6625 133.213 94.1417 138.922 90.5125C140.934 89.2667 141.586 87.4792 140.499 84.9333ZM113.965 44.7958C113.965 44.5792 113.965 44.3625 113.965 44.1458C89.9323 44.6875 65.954 45.2292 41.9213 45.7167C41.9213 46.0417 41.9213 46.3125 41.9213 46.6375C65.954 45.9875 89.9323 45.3917 113.965 44.7958Z" fill="#314C9F"/>
<path d="M117.445 70.4709C117.445 77.1334 117.39 83.7959 117.499 90.5125C117.554 92.8417 116.847 93.5459 114.454 92.95C110.431 92.0292 106.298 91.325 102.166 90.675C99.8824 90.35 98.8494 89.3209 98.8494 86.9375C98.9037 74.6959 98.9037 62.4 98.8494 50.1584C98.8494 48.0459 99.665 47.0167 101.894 47.0167C106.244 47.0709 110.594 47.0709 114.944 46.9625C117.282 46.9084 117.88 48.1 117.825 50.1584C117.771 56.9292 117.825 63.7 117.825 70.4167C117.717 70.4709 117.608 70.4709 117.445 70.4709Z" fill="white"/>
<path d="M96.9464 68.6833C96.9464 74.8042 96.9464 80.925 96.9464 87.0458C96.9464 88.725 96.457 89.5375 94.4996 89.1583C88.3011 87.9125 82.1026 86.775 75.8498 85.6917C73.9467 85.3667 73.3486 84.3917 73.3486 82.55C73.403 71.9875 73.403 61.4792 73.3486 50.9167C73.3486 48.6958 74.2186 47.8292 76.3391 47.775C82.1026 47.6667 87.9205 47.5042 93.684 47.2875C96.022 47.1792 96.892 48.2083 96.8376 50.5375C96.7289 56.55 96.7832 62.6167 96.7832 68.6292C96.8376 68.6833 96.892 68.6833 96.9464 68.6833ZM89.6061 60.9375C89.6604 57.3625 87.0505 54.2208 84.0057 54.1667C80.9064 54.1125 78.3509 57.0917 78.2965 60.8292C78.2422 64.6208 80.6346 67.4917 83.8426 67.5458C87.0505 67.5458 89.6061 64.675 89.6061 60.9375Z" fill="white"/>
<path d="M119.783 92.4625C119.674 91.2708 119.565 90.4041 119.565 89.5916C119.565 76.5375 119.565 63.4833 119.565 50.375C119.565 47.125 119.946 46.8 123.208 47.0708C127.993 47.45 132.724 47.8833 137.508 48.2625C139.683 48.425 140.825 49.2916 140.825 51.6208C140.879 60.8833 141.097 70.2 140.988 79.4625C140.988 80.7083 140.01 82.55 138.922 83.1458C133.159 86.2875 127.232 89.1583 121.305 92.0833C121.033 92.2458 120.653 92.2458 119.783 92.4625ZM127.939 75.075C130.059 74.2625 131.854 73.45 133.757 72.9083C136.04 72.3125 136.693 70.9041 136.638 68.7375C136.53 65.3791 136.584 62.075 136.584 58.7166C136.584 52.7041 136.584 52.8125 130.657 52.8666C128.265 52.8666 127.504 53.7875 127.504 56.0625C127.613 61.4791 127.504 66.8958 127.558 72.3125C127.558 73.0708 127.776 73.8291 127.939 75.075Z" fill="white"/>
<path d="M26.9688 45.6625C26.9688 54.7083 26.9688 63.7 26.9688 72.7458C26.9688 76.2667 26.8601 76.4292 23.489 75.8333C15.2787 74.425 16.3661 74.8583 16.3661 67.7083C16.3661 52.1083 16.4205 36.4542 16.3118 20.8542C16.3118 17.9833 17.2361 16.4125 20.1179 16.0333C21.3684 15.8708 22.619 15.5458 23.8152 15.1125C26.3163 14.3 27.0232 15.3292 27.0232 17.7125C26.9144 27.0292 26.9688 36.3458 26.9688 45.6625Z" fill="white"/>
<path d="M38.387 45.4458C38.387 55.3583 38.3326 65.2708 38.4414 75.1833C38.4414 77.7292 37.7345 78.4875 35.1246 78.0542C27.8387 76.7542 28.6543 77.5125 28.7087 70.6333C28.7087 53.2458 28.6543 35.8583 28.6543 18.4167C28.6543 14.5167 33.4391 10.9417 37.1908 12.2417C37.8433 12.4583 38.3326 13.975 38.387 14.8958C38.4957 21.3958 38.4414 27.8958 38.4414 34.3417C38.387 38.025 38.387 41.7625 38.387 45.4458Z" fill="white"/>
<path d="M117.445 98.7458C117.445 102.646 117.064 102.971 113.693 102.212C85.9631 96.0375 58.2875 89.8625 30.5574 83.6875C23.054 82.0083 15.5506 80.3833 8.04715 78.7041C7.44905 78.5416 6.68784 78.5416 6.25286 78.1625C5.43727 77.5125 4.83917 76.5916 4.13232 75.8333C5.11103 75.5083 6.14411 74.8041 7.01407 74.9666C19.0304 77.1333 30.9924 79.4625 43.0088 81.7375C58.7224 84.6625 74.4905 87.5333 90.2042 90.4583C98.0338 91.9208 105.809 93.4375 113.693 94.7916C116.412 95.225 118.043 96.0916 117.445 98.7458Z" fill="#314C9F"/>
<path d="M71.337 66.3542C71.337 71.2292 71.337 76.1042 71.337 80.925C71.337 84.6625 71.1195 84.825 67.5309 84.0667C64.4317 83.4167 61.3324 82.8209 58.1788 82.3334C55.569 81.9542 54.4815 80.7084 54.5359 78C54.6446 69.3334 54.5902 60.7209 54.5902 52.0542C54.5902 48.9125 55.1883 48.2625 58.342 48.2084C61.6587 48.1542 65.0298 48.2084 68.3465 47.9375C70.5214 47.775 71.337 48.5875 71.337 50.6459C71.2826 55.9 71.337 61.1542 71.337 66.3542Z" fill="white"/>
<path d="M82.1027 22.2083C82.1027 16.4125 82.1027 10.6708 82.1027 4.87498C82.1027 2.32915 82.6464 2.00415 85.0388 2.92498C92.3248 5.79582 99.6651 8.72082 106.951 11.5917C109.072 12.4042 109.996 13.8125 109.941 16.1417C109.724 23.725 109.507 31.3083 109.507 38.8375C109.507 41.4917 108.419 42.25 105.918 42.25C99.067 42.3042 92.1617 42.4667 85.3107 42.6833C82.9183 42.7375 82.0484 41.7625 82.1027 39.4875C82.1571 33.7458 82.1027 28.0042 82.1027 22.2083ZM107.332 18.7958C107.603 18.6875 108.093 18.4167 108.582 18.1458C108.093 17.6583 107.712 16.8458 107.114 16.6292C100.046 14.5167 92.9229 12.4583 85.8001 10.4542C85.202 10.2917 84.4408 10.7792 83.7883 10.9417C84.2233 11.4292 84.6039 12.1333 85.1476 12.35C87.2681 13.1083 89.443 13.65 91.6179 14.3C96.729 15.7625 101.84 17.225 107.332 18.7958ZM108.528 15.1125C108.637 14.8417 108.8 14.5167 108.908 14.2458C108.093 13.7583 107.332 13.1083 106.462 12.8375C101.459 11.1042 96.4027 9.42498 91.3461 7.74582C89.6605 7.14998 87.9206 6.55415 86.1807 6.12082C85.4738 5.95832 84.6039 6.22915 83.8426 6.33748C84.4407 6.87915 85.0388 7.42082 85.6369 7.96248C85.6913 8.01665 85.8001 8.01665 85.9088 8.07082C92.5966 10.2917 99.2301 12.5667 105.918 14.7333C106.734 14.95 107.658 14.95 108.528 15.1125ZM108.256 39.65C108.256 39.4333 108.256 39.2167 108.202 39C107.767 38.7833 107.332 38.4042 106.897 38.4042C99.8282 38.2417 92.8141 38.1333 85.7457 38.025C85.3651 38.025 84.9845 38.025 84.7126 38.1875C84.3864 38.4042 83.9514 38.7833 83.897 39.1083C83.897 39.4333 84.2776 39.9208 84.6039 40.0292C85.202 40.2458 85.8544 40.3 86.4525 40.3C92.8685 40.3 99.2845 40.3 105.7 40.1917C106.57 40.2458 107.44 39.8667 108.256 39.65ZM83.9514 24.375C83.8426 24.7 83.7883 25.0792 83.6795 25.4042C84.4407 25.7292 85.0932 26.2708 85.9088 26.3792C92.7054 27.4083 99.502 28.3833 106.299 29.3041C106.951 29.4125 107.603 28.8708 108.31 28.6542C107.767 28.2208 107.223 27.5166 106.625 27.4083C100.1 26.325 93.6297 25.35 87.105 24.375C86.0176 24.2667 84.9301 24.375 83.9514 24.375ZM108.202 22.425C108.31 22.0458 108.473 21.6666 108.582 21.2875C107.875 20.9083 107.277 20.3667 106.516 20.15C99.7738 18.4708 93.0316 16.7917 86.2894 15.275C85.5282 15.1125 84.6039 15.5458 83.7883 15.7083C84.4408 16.1958 85.0388 16.9 85.7457 17.1167C90.4217 18.3625 95.1521 19.5 99.8826 20.6375C102.71 21.2333 105.483 21.8292 108.202 22.425ZM85.2563 28.925C85.0388 29.0333 84.4407 29.3583 83.897 29.6292C84.4407 30.0625 84.9301 30.875 85.5282 30.9291C92.5423 31.7958 99.502 32.6083 106.516 33.3666C107.06 33.4208 107.658 32.825 108.202 32.5541C107.712 32.175 107.277 31.4708 106.734 31.4167C99.7738 30.55 92.7598 29.7917 85.2563 28.925ZM83.0271 21.2333C91.8354 22.9667 99.9369 24.5375 108.528 26.2167C107.114 23.2917 85.8544 19.0125 83.0271 21.2333ZM108.365 35.6958C104.994 33.7458 85.5826 32.9333 83.8426 34.5583C85.6369 35.9667 105.265 36.9417 108.365 35.6958Z" fill="white"/>
<path d="M66.1714 23.9959C66.1714 29.25 66.0626 34.45 66.2258 39.7042C66.2801 42.3042 65.1927 43.2792 62.6915 43.2792C59.1573 43.2792 55.6231 43.4417 52.0889 43.6042C50.1858 43.7125 49.1527 42.9 49.1527 40.95C49.1527 31.0917 49.0984 21.2875 49.2615 11.4292C49.2615 10.4542 50.5121 8.88336 51.4908 8.61253C55.5687 7.36669 59.701 6.44586 63.8334 5.47086C65.7364 4.98336 66.1714 6.12086 66.1714 7.74586C66.1714 13.1625 66.1714 18.5792 66.1714 23.9959ZM52.252 19.3375C52.252 22.9667 54.3725 25.5125 57.363 25.4584C60.2448 25.4042 62.5284 22.5875 62.474 19.2292C62.4197 15.9792 60.0816 13.3792 57.2543 13.3792C54.4269 13.3792 52.252 15.9792 52.252 19.3375Z" fill="white"/>
<path d="M80.0365 22.4792C80.0365 28.1667 79.9821 33.8542 80.0909 39.4875C80.1453 41.9792 79.1665 42.9 76.7198 42.7917C74.8167 42.6833 72.9137 42.575 71.0107 42.9C68.6183 43.2792 68.1289 42.1417 68.1289 40.1917C68.1289 29.1958 68.1289 18.2 68.1289 7.20416C68.1289 5.30833 68.8357 4.17083 70.7932 3.79166C73.0224 3.35833 75.1973 2.7625 77.3722 2.22083C79.2753 1.73333 80.0365 2.4375 80.0365 4.3875C79.9821 10.4 79.9821 16.4667 80.0365 22.4792C79.9821 22.4792 79.9821 22.4792 80.0365 22.4792Z" fill="white"/>
<path d="M14.2458 45.9875C14.2458 54.2209 14.2458 62.4 14.2458 70.6334C14.2458 73.8292 13.8652 74.1 10.7659 73.5042C10.2222 73.3959 9.73286 73.2875 9.18913 73.1792C4.51309 72.4209 2.28381 69.7667 2.28381 65.0542C2.28381 60.8834 2.17506 56.7667 2.39256 52.5959C2.44693 50.8625 3.31689 49.1834 3.53438 47.45C3.6975 45.7709 3.58875 44.0375 3.37126 42.3584C3.20814 41.0042 2.39256 39.65 2.33818 38.2959C2.22944 33.4209 2.39256 28.5459 2.22944 23.6709C2.17506 21.3417 3.15377 20.15 5.38305 19.7167C7.44921 19.3375 9.51537 18.9042 11.4728 18.2542C13.8108 17.4417 14.4089 18.4167 14.4089 20.5292C14.3002 29.0334 14.3002 37.4834 14.2458 45.9875C14.3002 45.9875 14.3002 45.9875 14.2458 45.9875ZM12.8865 31.4167C12.8865 29.9 12.8865 28.3292 12.8865 26.8125C12.9952 19.5542 12.7777 20.9084 6.90548 22.0459C4.78495 22.4792 4.02373 23.5625 4.02373 25.5667C4.07811 29.25 4.07811 32.9334 4.07811 36.6167C4.07811 42.3584 4.40434 42.6292 10.2766 42.1959C12.0709 42.0875 12.9408 41.275 12.8865 39.4875C12.8865 36.7792 12.8865 34.0709 12.8865 31.4167Z" fill="white"/>
<path d="M52.7959 65C52.7959 69.1708 52.7959 73.2875 52.7959 77.4583C52.7959 81.3583 52.6871 81.4125 48.7723 80.6541C46.9236 80.275 45.075 79.8417 43.1719 79.625C41.2689 79.4083 40.3989 78.4333 40.3989 76.6458C40.3989 68.1958 40.3989 59.6917 40.3989 51.2417C40.3989 49.4542 41.3233 48.6958 43.1176 48.6958C45.5643 48.6958 48.0111 48.5875 50.4035 48.4792C52.4696 48.3708 52.7959 49.6708 52.7959 51.2417C52.7959 55.7917 52.8503 60.3958 52.7959 65C52.7959 65 52.8503 65 52.7959 65Z" fill="white"/>
<path d="M46.8148 26.8125C46.8148 31.525 46.7604 36.1833 46.8148 40.8958C46.8692 43.0083 45.8905 43.7667 43.8243 43.7125C41.9213 43.6583 40.3445 43.55 40.3988 41.0583C40.4532 31.85 40.3988 22.6958 40.4532 13.4875C40.4532 11.4833 44.0962 9.20833 45.7817 10.2375C46.3254 10.5625 46.6517 11.7542 46.6517 12.5125C46.8148 17.2792 46.7604 22.0458 46.8148 26.8125Z" fill="white"/>
<path d="M140.499 84.9333C141.586 87.425 140.934 89.2667 138.922 90.5125C133.213 94.1417 127.45 97.6625 121.74 101.238C120.272 102.158 119.62 101.671 119.457 99.9917C119.131 96.3084 119.729 95.1708 122.991 93.5458C127.885 91.0542 132.778 88.5625 137.726 86.0708C138.596 85.6917 139.52 85.3667 140.499 84.9333Z" fill="#314C9F"/>
<path d="M113.965 44.7958C89.9866 45.3916 65.9539 46.0416 41.9756 46.6375C41.9756 46.3125 41.9756 46.0416 41.9756 45.7166C66.0083 45.175 89.9866 44.6333 114.019 44.1458C113.965 44.3625 113.965 44.5791 113.965 44.7958Z" fill="white"/>
<path d="M89.6061 60.9375C89.5517 64.6209 86.9962 67.5459 83.8426 67.5459C80.6346 67.5459 78.2422 64.6209 78.2966 60.8292C78.3509 57.1459 80.9064 54.1667 84.0057 54.1667C87.1049 54.2209 89.6604 57.3625 89.6061 60.9375ZM87.5399 60.9375C87.5399 58.5 85.8544 56.2792 84.0057 56.2792C82.1026 56.2792 80.4171 58.3917 80.4171 60.8834C80.4171 63.5917 81.8308 65.4875 83.8969 65.4875C85.8544 65.4875 87.5399 63.4292 87.5399 60.9375Z" fill="#314C9F"/>
<path d="M127.939 75.075C127.776 73.8834 127.558 73.0709 127.558 72.3125C127.558 66.8959 127.612 61.4792 127.504 56.0625C127.449 53.7875 128.265 52.8667 130.657 52.8667C136.584 52.8125 136.584 52.7042 136.584 58.7167C136.584 62.075 136.475 65.3792 136.638 68.7375C136.693 70.9584 136.04 72.3125 133.757 72.9084C131.908 73.3959 130.114 74.2625 127.939 75.075ZM134.627 63.1042C134.572 63.1042 134.572 63.1042 134.518 63.1042C134.518 61.1 134.844 59.0959 134.409 57.2C134.192 56.3334 132.669 55.4667 131.582 55.1417C131.147 55.0334 129.733 56.3334 129.679 57.0375C129.516 61.425 129.516 65.8667 129.624 70.2542C129.624 71.7167 130.603 72.15 131.854 71.5542C133.485 70.7959 134.735 69.7125 134.627 67.6542C134.572 66.1375 134.627 64.6209 134.627 63.1042Z" fill="#314C9F"/>
<path d="M107.331 18.7958C101.84 17.225 96.7288 15.7625 91.6177 14.3C89.4428 13.7042 87.2679 13.1083 85.1474 12.35C84.6037 12.1875 84.2231 11.4292 83.7881 10.9417C84.4406 10.7792 85.2018 10.2917 85.7999 10.4542C92.9227 12.4583 100.045 14.5167 107.114 16.6292C107.712 16.7917 108.093 17.6042 108.582 18.1458C108.093 18.4167 107.603 18.6875 107.331 18.7958Z" fill="#314C9F"/>
<path d="M108.528 15.1125C107.658 14.95 106.733 14.95 105.863 14.6792C99.1755 12.4583 92.5421 10.2375 85.8542 8.01667C85.7455 7.9625 85.6911 7.9625 85.5824 7.90833C84.9843 7.36667 84.3862 6.825 83.7881 6.28333C84.5493 6.175 85.4193 5.90417 86.1261 6.06667C87.866 6.5 89.5516 7.15 91.2915 7.69167C96.3482 9.37083 101.405 11.05 106.407 12.7833C107.277 13.1083 108.038 13.7042 108.854 14.1917C108.799 14.5167 108.636 14.7875 108.528 15.1125Z" fill="#314C9F"/>
<path d="M108.256 39.65C107.386 39.8667 106.57 40.2458 105.7 40.2458C99.2844 40.3 92.8685 40.3542 86.4525 40.3542C85.8544 40.3542 85.1475 40.3 84.6038 40.0833C84.2776 39.975 83.8426 39.4333 83.897 39.1625C83.897 38.8375 84.332 38.4583 84.7126 38.2417C84.9844 38.0792 85.4194 38.0792 85.7456 38.0792C92.8141 38.1875 99.8281 38.2958 106.897 38.4583C107.332 38.4583 107.767 38.8375 108.202 39.0542C108.256 39.2167 108.256 39.4333 108.256 39.65Z" fill="#314C9F"/>
<path d="M83.9512 24.375C84.9843 24.375 86.0174 24.2667 87.0505 24.375C93.5752 25.35 100.1 26.325 106.57 27.4083C107.168 27.5167 107.712 28.2208 108.256 28.6542C107.603 28.8708 106.896 29.4125 106.244 29.3042C99.4474 28.3833 92.6509 27.4083 85.8543 26.3792C85.0931 26.2708 84.3862 25.7292 83.625 25.4042C83.7337 25.0792 83.8425 24.7 83.9512 24.375Z" fill="#314C9F"/>
<path d="M108.201 22.425C105.428 21.8292 102.655 21.2875 99.9368 20.5833C95.2064 19.4458 90.476 18.3083 85.7999 17.0625C85.0931 16.8458 84.495 16.1417 83.8425 15.6542C84.7125 15.4917 85.5825 15.0583 86.3437 15.2208C93.0859 16.7917 99.8281 18.4167 106.57 20.0958C107.277 20.2583 107.93 20.8542 108.636 21.2333C108.473 21.6667 108.365 22.0458 108.201 22.425Z" fill="#314C9F"/>
<path d="M85.2564 28.925C92.7598 29.7917 99.7738 30.55 106.788 31.4167C107.332 31.4708 107.767 32.175 108.256 32.5542C107.658 32.825 107.06 33.4208 106.57 33.3667C99.5564 32.6083 92.5423 31.85 85.5826 30.9292C84.9845 30.875 84.4951 30.0625 83.9514 29.6292C84.4408 29.3583 85.0389 29.0333 85.2564 28.925Z" fill="#314C9F"/>
<path d="M83.0271 21.2333C85.8545 19.0125 107.169 23.2917 108.528 26.2167C99.937 24.5375 91.7811 22.9125 83.0271 21.2333Z" fill="#314C9F"/>
<path d="M108.365 35.6958C105.265 36.9417 85.6368 35.9667 83.8425 34.5583C85.6368 32.9333 104.993 33.7458 108.365 35.6958Z" fill="#314C9F"/>
<path d="M52.252 19.3375C52.252 15.9792 54.3725 13.3792 57.2542 13.3792C60.0816 13.3792 62.3653 15.9792 62.474 19.2292C62.5284 22.5875 60.2447 25.4042 57.363 25.4583C54.4269 25.5667 52.3063 23.0208 52.252 19.3375ZM60.4078 19.3917C60.2447 17.3875 59.8097 15.6542 57.4717 15.4917C55.7318 15.3833 54.2094 17.225 54.2094 19.3917C54.2094 21.5583 55.6774 23.5625 57.3086 23.4C59.7554 23.1292 60.0816 21.1792 60.4078 19.3917Z" fill="#314C9F"/>
<path d="M12.8864 31.4166C12.8864 34.125 12.8864 36.8333 12.8864 39.5416C12.8864 41.3291 12.0165 42.0875 10.2765 42.25C4.40429 42.6291 4.02368 42.3583 4.07805 36.6166C4.07805 32.9333 4.07805 29.25 4.02368 25.5125C4.02368 23.5083 4.7849 22.425 6.90543 21.9916C12.832 20.8541 12.9952 19.5541 12.8864 26.7583C12.8864 28.3291 12.8864 29.8458 12.8864 31.4166ZM10.7115 31.4166C10.7115 31.4166 10.7659 31.4166 10.7115 31.4166C10.7115 29.6833 10.7659 28.0041 10.7115 26.2708C10.6571 25.0791 11.1465 23.5083 9.08034 23.6166C7.34041 23.6708 6.14421 24.4291 6.14421 26.3791C6.14421 30.1708 6.14421 33.9083 6.19859 37.7C6.19859 39.2166 7.01418 40.3 8.48224 39.9208C9.3522 39.65 10.494 38.4583 10.6028 37.5916C10.929 35.5875 10.7115 33.475 10.7115 31.4166Z" fill="#314C9F"/>
<path d="M87.54 60.9375C87.54 63.4292 85.8545 65.4875 83.8971 65.4875C81.8309 65.4875 80.4172 63.5917 80.4172 60.8833C80.4172 58.3917 82.1028 56.2792 84.0058 56.2792C85.8545 56.2792 87.54 58.5 87.54 60.9375Z" fill="white"/>
<path d="M134.626 63.1042C134.626 64.6208 134.572 66.1375 134.626 67.7083C134.681 69.7667 133.485 70.85 131.853 71.6083C130.603 72.2042 129.624 71.7709 129.624 70.3084C129.57 65.9208 129.515 61.4792 129.679 57.0917C129.733 56.3875 131.147 55.0333 131.582 55.1958C132.669 55.5208 134.191 56.3333 134.409 57.2542C134.844 59.15 134.518 61.1542 134.518 63.1583C134.572 63.1042 134.626 63.1042 134.626 63.1042Z" fill="white"/>
<path d="M60.408 19.3916C60.1362 21.2333 59.7556 23.1291 57.3632 23.3458C55.6776 23.5083 54.2095 21.5041 54.2639 19.3375C54.2639 17.1708 55.732 15.3291 57.5263 15.4375C59.8099 15.6541 60.2449 17.3875 60.408 19.3916Z" fill="white"/>
<path d="M10.7113 31.4166C10.7113 33.475 10.9288 35.5875 10.6026 37.5916C10.4395 38.5125 9.35203 39.7041 8.48207 39.9208C7.014 40.3541 6.19842 39.2166 6.19842 37.7C6.19842 33.9083 6.19842 30.1708 6.14404 26.3791C6.14404 24.4291 7.34024 23.6708 9.08016 23.6166C11.1463 23.5083 10.7113 25.0791 10.7113 26.2708C10.7657 28.0041 10.7657 29.7375 10.7113 31.4166C10.7113 31.4166 10.7657 31.4166 10.7113 31.4166Z" fill="white"/>
</svg>
