<?xml version="1.0" encoding="UTF-8" standalone="no"?>
<!-- Uploaded to: SVG Repo, www.svgrepo.com, Generator: SVG Repo Mixer Tools -->

<svg
   fill="#000000"
   width="800px"
   height="800px"
   viewBox="0 0 64 64"
   version="1.1"
   id="svg21"
   sodipodi:docname="KPI-logo-hover.svg"
   inkscape:version="1.2.2 (1:1.2.2+202212051552+b0a8486541)"
   xmlns:inkscape="http://www.inkscape.org/namespaces/inkscape"
   xmlns:sodipodi="http://sodipodi.sourceforge.net/DTD/sodipodi-0.dtd"
   xmlns="http://www.w3.org/2000/svg"
   xmlns:svg="http://www.w3.org/2000/svg">
  <defs
     id="defs25" />
  <sodipodi:namedview
     id="namedview23"
     pagecolor="#ffffff"
     bordercolor="#666666"
     borderopacity="1.0"
     inkscape:showpageshadow="2"
     inkscape:pageopacity="0.0"
     inkscape:pagecheckerboard="0"
     inkscape:deskcolor="#d1d1d1"
     showgrid="false"
     inkscape:zoom="0.295"
     inkscape:cx="-23.728814"
     inkscape:cy="403.38983"
     inkscape:window-width="717"
     inkscape:window-height="967"
     inkscape:window-x="1218"
     inkscape:window-y="72"
     inkscape:window-maximized="0"
     inkscape:current-layer="svg21" />
  <title
     id="title2" />
  <g
     data-name="Layer 7"
     id="Layer_7"
     style="fill:#ffffff;fill-opacity:1">
    <path
       d="M26.36,18.93a4.47,4.47,0,0,0-4.63-4.57,1,1,0,0,0-1,1,1,1,0,0,0,1,1,2.48,2.48,0,0,1,2.64,2.57,1,1,0,0,0,2,0Z"
       id="path4"
       style="fill:#ffffff;fill-opacity:1" />
    <path
       d="M59,12.72,50.12,3H5V46h9V56.5a4.5,4.5,0,0,0,9,0V46H59ZM51,6.93,55.63,12H51ZM21,56.5a2.5,2.5,0,0,1-5,0V41h5ZM19,29a9,9,0,1,1,9-9A9,9,0,0,1,19,29ZM18,31c.33,0,.66.05,1,.05s.67,0,1-.05V39H18ZM23,44V39H22V30.57a11,11,0,1,0-6,0V39H14v5H7V5H49v9h8V44Z"
       id="path6"
       style="fill:#ffffff;fill-opacity:1" />
    <rect
       height="2"
       width="12"
       x="32"
       y="12"
       id="rect8"
       style="fill:#ffffff;fill-opacity:1" />
    <rect
       height="2"
       width="22"
       x="32"
       y="18"
       id="rect10"
       style="fill:#ffffff;fill-opacity:1" />
    <rect
       height="2"
       width="22"
       x="32"
       y="24"
       id="rect12"
       style="fill:#ffffff;fill-opacity:1" />
    <rect
       height="2"
       width="22"
       x="32"
       y="30"
       id="rect14"
       style="fill:#ffffff;fill-opacity:1" />
    <rect
       height="2"
       width="22"
       x="32"
       y="36"
       id="rect16"
       style="fill:#ffffff;fill-opacity:1" />
    <polygon
       points="13 19 13 20 13 21 21 21 21 20 21 19 21 18 13 18 13 19"
       id="polygon18"
       style="fill:#ffffff;fill-opacity:1" />
  </g>
</svg>
