<svg width="127" height="135" viewBox="0 0 127 135" fill="none" xmlns="http://www.w3.org/2000/svg">
<g clip-path="url(#clip0_22_127)">
<path d="M8.5 45.5L19 65.5L76 58.5L102 61L117.5 45.5H8.5Z" fill="white"/>
<path d="M85 60L88.5 63.5V96L81.5 101.5L28.5 109V114.5L100 112.5L95.5 77.5L92.5 61L85 60Z" fill="white"/>
<path d="M6.82653 112.361C6.82653 90.7461 6.82653 69.2586 6.82653 47.7712C6.63332 47.6433 6.50452 47.3875 6.37572 47.3875C0.0643579 46.748 0.12876 46.748 0.0643584 40.225C-4.3258e-05 33.1904 0.12876 33.8299 6.56892 33.8299C14.1683 33.8299 21.7677 33.8299 29.4959 33.8299C29.4959 32.2312 29.4959 31.0161 29.4959 29.1615C28.1435 29.1615 26.8554 29.2255 25.503 29.1615C19.7069 28.9057 16.9376 24.5571 19.1272 19.1852C19.4492 18.4818 19.4492 17.3946 19.1272 16.6911C16.9376 11.3832 19.7713 6.97063 25.5674 6.90668C26.8554 6.90668 28.0791 6.90668 29.6891 6.90668C29.6891 5.30791 29.4315 3.96495 29.7535 2.81383C30.0755 1.79062 31.0415 0.959261 31.6856 0C32.4584 0.959261 33.5532 1.79062 33.9396 2.87778C34.326 3.96495 34.004 5.30791 34.004 6.90668C35.9361 6.90668 37.4173 6.84273 38.8341 6.90668C43.7931 7.16248 46.4335 11.5751 44.6303 16.3074C44.2439 17.2667 44.1795 18.5457 44.5659 19.441C46.5623 24.4292 43.8575 28.8418 38.5121 29.1615C37.1597 29.2255 35.8073 29.1615 34.2616 29.1615C34.2616 30.8243 34.2616 32.1672 34.2616 33.6381C43.2134 33.6381 52.1009 33.6381 61.1171 33.6381C61.1171 32.1672 61.1171 30.8882 61.1171 29.1615C59.5715 29.1615 58.0902 29.2894 56.609 29.1615C51.3925 28.7139 48.8164 24.3652 50.7484 19.505C51.0704 18.7376 51.2636 17.7144 50.9416 16.9469C48.6876 10.9995 51.3281 6.97063 57.6394 6.90668C58.6698 6.90668 59.7647 6.90668 61.3103 6.90668C61.3103 5.24396 61.0527 3.70914 61.3747 2.36618C61.6323 1.47087 62.7915 0.767409 63.5 0C64.2728 0.767409 65.3676 1.47087 65.6252 2.36618C66.0116 3.64519 65.6896 5.11606 65.6896 6.90668C67.2997 6.90668 68.6521 6.90668 70.0045 6.90668C75.3499 7.03458 78.2479 11.4472 76.3159 16.3714C75.9939 17.2027 75.8007 18.3539 76.1227 19.1852C78.2479 24.8129 75.4787 29.0336 69.3605 29.1615C68.2657 29.1615 67.2353 29.1615 65.8828 29.1615C65.8828 30.6324 65.8828 31.9754 65.8828 33.5741C74.7058 33.5741 83.5933 33.5741 92.6739 33.5741C92.6739 32.1672 92.6739 30.8243 92.6739 29.0976C90.8706 29.0976 89.325 29.2255 87.715 29.0976C82.8848 28.586 80.4376 24.1734 82.1764 19.6968C82.5628 18.7376 82.6916 17.4586 82.3052 16.5632C80.2444 11.3193 83.0136 6.97063 88.681 6.90668C89.969 6.90668 91.1927 6.90668 92.8671 6.90668C92.8671 5.30791 92.5451 3.96495 92.9315 2.87778C93.3179 1.79062 94.4127 0.959261 95.25 0C95.894 0.959261 96.86 1.79062 97.182 2.81383C97.504 3.96495 97.2464 5.30791 97.2464 6.84273C99.0497 6.84273 100.531 6.77878 102.012 6.84273C106.907 7.03458 109.805 11.5751 108.066 16.1156C107.679 17.0748 107.422 18.2899 107.808 19.1852C109.934 24.5571 107.164 28.9057 101.368 29.1615C100.08 29.2255 98.8565 29.1615 97.4396 29.1615C97.4396 30.8243 97.4396 32.1672 97.4396 33.8299C104.846 33.8299 112.123 33.8299 119.401 33.8299C120.882 33.8299 122.427 33.8939 123.909 33.8299C125.97 33.766 126.871 34.7892 126.871 36.7077C126.871 38.946 126.807 41.1843 126.871 43.4226C127 46.1724 125.841 47.3875 123.071 47.1956C122.105 47.1317 121.204 47.2596 120.045 47.3235C120.045 69.0668 120.045 90.6182 120.045 112.17C126.807 113.129 126.807 113.129 126.807 120.036C126.807 123.233 126.807 126.431 126.807 129.628C126.807 134.808 126.678 134.872 121.655 134.872C85.0745 134.872 48.43 134.872 11.8499 134.872C9.27379 134.872 6.69773 134.744 4.12166 134.872C1.09478 135.064 -0.193248 133.977 -0.128847 130.843C-4.32628e-05 126.047 -4.32628e-05 121.251 -0.128847 116.454C-0.25765 113.385 0.901579 112.106 3.99286 112.425C4.95888 112.553 5.7961 112.425 6.82653 112.361ZM115.472 112.361C115.472 90.6182 115.472 69.0028 115.472 47.4514C109.354 47.4514 103.365 47.4514 97.3752 47.4514C97.3752 49.6258 97.6328 51.6082 97.3108 53.4628C97.1176 54.4221 95.9584 55.2534 95.25 56.1487C94.4771 55.2534 93.3179 54.486 93.1247 53.4628C92.8027 51.5443 92.9959 49.4979 92.9959 47.3235C83.7865 47.3235 74.9634 47.3235 65.754 47.3235C65.754 49.37 66.0116 51.2885 65.6252 53.1431C65.432 54.2302 64.2084 55.1255 63.5 56.1487C62.7271 55.1895 61.5035 54.2302 61.3103 53.1431C60.9239 51.2245 61.1815 49.2421 61.1815 47.3875C51.8433 47.3875 42.9558 47.3875 33.9396 47.3875C33.9396 49.4339 34.1972 51.3524 33.8752 53.0791C33.6176 54.1663 32.5228 55.1255 31.75 56.0848C31.0415 55.1255 29.8823 54.1663 29.6247 53.0791C29.3027 51.2245 29.5603 49.306 29.5603 47.3235C23.3133 47.3235 17.3884 47.3235 11.399 47.3235C11.399 69.0668 11.399 90.5542 11.399 112.17C17.5172 112.17 23.4422 112.17 29.5603 112.17C29.5603 110.699 29.3027 109.356 29.6247 108.141C29.8823 107.245 30.8483 106.478 31.5568 105.711C32.3296 106.542 33.5532 107.181 33.8752 108.141C34.2616 109.356 34.004 110.827 34.004 112.234C43.2778 112.234 52.1009 112.234 61.2459 112.234C61.2459 110.699 60.9883 109.228 61.3103 108.013C61.5679 107.117 62.7271 106.478 63.4356 105.711C64.2084 106.478 65.3676 107.117 65.6252 107.949C66.0116 109.292 65.6896 110.827 65.6896 112.17C75.0278 112.17 83.8509 112.17 92.9315 112.17C92.9315 110.699 92.6095 109.292 92.9959 108.141C93.3179 107.181 94.4771 106.478 95.3144 105.647C95.9584 106.478 96.9888 107.181 97.2464 108.077C97.5684 109.356 97.3108 110.763 97.3108 112.234C103.558 112.361 109.354 112.361 115.472 112.361ZM4.70128 130.204C44.1795 130.204 83.2713 130.204 122.299 130.204C122.299 128.733 122.299 127.454 122.299 125.919C121.075 125.919 120.045 125.919 119.014 125.919C110.835 125.919 102.721 125.983 94.5415 125.791C93.3179 125.791 91.1927 124.576 91.0639 123.745C90.6774 121.251 92.9315 121.442 94.6703 121.442C99.6293 121.442 104.524 121.442 109.483 121.442C113.733 121.442 117.984 121.442 122.299 121.442C122.299 119.78 122.299 118.437 122.299 117.094C83.0136 117.094 43.9219 117.094 4.83008 117.094C4.83008 118.629 4.83008 119.972 4.83008 121.442C6.24691 121.442 7.40614 121.442 8.56537 121.442C27.5639 121.442 46.5623 121.442 65.5608 121.442C66.398 121.442 67.4285 121.187 68.0725 121.506C68.9097 121.89 70.0689 122.785 70.0689 123.489C70.0689 124.256 69.1029 125.279 68.3301 125.727C67.5573 126.111 66.4624 125.919 65.4964 125.919C46.4979 125.919 27.4995 125.919 8.50097 125.919C7.27734 125.919 5.98931 125.919 4.70128 125.919C4.70128 127.582 4.70128 128.861 4.70128 130.204ZM4.70128 42.5912C44.0507 42.5912 83.1425 42.5912 122.234 42.5912C122.234 41.0564 122.234 39.7774 122.234 38.3704C82.9493 38.3704 43.8575 38.3704 4.70128 38.3704C4.70128 39.8413 4.70128 41.1203 4.70128 42.5912ZM63.6932 11.1274C61.5679 11.1274 59.3783 10.8716 57.3174 11.2553C56.2226 11.4472 55.3854 12.7901 54.4193 13.5576C55.321 14.325 56.1582 15.6679 57.1242 15.7319C61.3747 15.9877 65.6896 15.9877 69.9401 15.7319C70.9061 15.6679 71.7434 14.325 72.645 13.5576C71.679 12.7262 70.8417 11.4472 69.8113 11.1914C67.8149 10.8716 65.6896 11.1274 63.6932 11.1274ZM95.1212 11.1274C92.9959 11.1274 90.8063 10.9356 88.7454 11.2553C87.7794 11.3832 87.0709 12.7262 86.2337 13.4936C87.0709 14.261 87.9082 15.6679 88.8098 15.7319C93.0603 15.9877 97.3752 15.9877 101.626 15.7319C102.592 15.6679 103.429 14.325 104.331 13.6215C103.429 12.7901 102.592 11.4472 101.561 11.2553C99.4361 10.8716 97.2464 11.1274 95.1212 11.1274ZM31.5568 15.8598C33.682 15.8598 35.8717 16.1156 37.9325 15.7319C38.9629 15.54 39.8002 14.261 40.7662 13.4297C39.929 12.6622 39.0917 11.3193 38.1901 11.2553C33.9396 10.9995 29.6247 10.9995 25.3742 11.2553C24.4082 11.3193 23.571 12.6622 22.6693 13.3657C23.571 14.1971 24.4082 15.54 25.503 15.7319C27.4995 16.1156 29.5603 15.8598 31.5568 15.8598ZM31.6212 24.8768C31.6212 24.8129 31.6212 24.8129 31.6212 24.8768C33.6176 24.8768 35.7429 25.1326 37.6749 24.7489C38.8341 24.4931 39.7358 23.2141 40.7662 22.3828C39.8002 21.6153 38.8341 20.3363 37.8037 20.2724C33.7464 20.0166 29.6891 20.0166 25.6318 20.2724C24.6014 20.3363 23.6354 21.6793 22.6693 22.4467C23.6998 23.2781 24.6658 24.4931 25.8894 24.7489C27.7571 25.1326 29.6891 24.8768 31.6212 24.8768ZM95.1856 24.8129C97.3108 24.8129 99.5005 25.0687 101.561 24.685C102.527 24.5571 103.365 23.2781 104.266 22.5107C103.429 21.7433 102.656 20.2724 101.755 20.2084C97.3752 19.9526 92.9959 19.9526 88.6166 20.2084C87.7794 20.2724 86.9421 21.6793 86.1049 22.4467C87.0066 23.2141 87.7794 24.4292 88.7454 24.621C90.9351 25.0687 93.0603 24.8129 95.1856 24.8129ZM63.2424 24.8129C65.4964 24.8129 67.7505 25.0687 69.9401 24.685C70.9061 24.5571 71.679 23.2781 72.5806 22.4467C71.7434 21.6793 70.9061 20.2724 70.0045 20.2084C65.754 19.9526 61.4391 19.9526 57.1886 20.2084C56.2226 20.2724 55.321 21.7432 54.4193 22.5746C55.321 23.2781 56.1582 24.4931 57.1886 24.685C59.1206 25.0687 61.2459 24.8129 63.2424 24.8129Z" fill="white"/>
<path d="M115.472 112.361C109.29 112.361 103.558 112.361 97.3108 112.361C97.3108 110.891 97.5684 109.484 97.2464 108.205C96.9888 107.309 95.9584 106.542 95.3144 105.774C94.5415 106.606 93.3823 107.309 92.9959 108.269C92.6095 109.42 92.9315 110.763 92.9315 112.297C83.9153 112.297 75.0279 112.297 65.6896 112.297C65.6896 110.891 65.9472 109.42 65.6252 108.077C65.3676 107.181 64.2084 106.542 63.4356 105.838C62.6627 106.606 61.5679 107.245 61.3103 108.141C60.9239 109.42 61.2459 110.827 61.2459 112.361C52.1009 112.361 43.2779 112.361 34.004 112.361C34.004 110.954 34.326 109.484 33.8752 108.269C33.5532 107.309 32.394 106.606 31.5568 105.838C30.9127 106.67 29.8823 107.373 29.6247 108.269C29.3027 109.42 29.5603 110.763 29.5603 112.297C23.4422 112.297 17.5172 112.297 11.399 112.297C11.399 90.6821 11.399 69.1947 11.399 47.4514C17.3884 47.4514 23.3133 47.4514 29.5603 47.4514C29.5603 49.4339 29.3027 51.3524 29.6247 53.207C29.8179 54.2941 30.9771 55.1895 31.75 56.2127C32.4584 55.1895 33.6176 54.2941 33.8752 53.207C34.2616 51.4803 33.9396 49.6257 33.9396 47.5154C42.9558 47.5154 51.7789 47.5154 61.1815 47.5154C61.1815 49.306 60.9239 51.3524 61.3103 53.2709C61.5035 54.3581 62.7271 55.2534 63.5 56.2766C64.2728 55.2534 65.432 54.3581 65.6252 53.2709C66.0116 51.4164 65.754 49.4978 65.754 47.4514C74.899 47.4514 83.7865 47.4514 92.9959 47.4514C92.9959 49.6257 92.7383 51.6722 93.1247 53.5907C93.3179 54.55 94.4771 55.3813 95.25 56.2766C95.9584 55.3813 97.1176 54.6139 97.3108 53.5907C97.6328 51.7361 97.3752 49.7536 97.3752 47.5793C103.429 47.5793 109.354 47.5793 115.472 47.5793C115.472 69.0668 115.472 90.6182 115.472 112.361ZM63.3712 101.106C71.2926 101.106 79.2784 101.042 87.1998 101.17C89.7114 101.234 90.6775 100.275 90.6775 97.7806C90.6131 86.5893 90.6131 75.3979 90.6775 64.2065C90.6775 61.5845 89.5826 60.6892 87.0066 60.6892C71.357 60.7532 55.7074 60.7532 40.0578 60.6892C37.4173 60.6892 36.4513 61.6485 36.4513 64.2705C36.5157 75.3339 36.5157 86.3974 36.4513 97.5248C36.4513 100.339 37.5461 101.17 40.3154 101.17C47.9148 100.978 55.643 101.106 63.3712 101.106Z" fill="white"/>
<path d="M4.70129 130.204C4.70129 128.861 4.70129 127.582 4.70129 125.919C6.05373 125.919 7.27736 125.919 8.50099 125.919C27.4995 125.919 46.4979 125.919 65.4964 125.919C66.4624 125.919 67.5573 126.175 68.3301 125.727C69.1673 125.279 70.1333 124.256 70.0689 123.489C70.0689 122.785 68.9097 121.89 68.0725 121.506C67.3641 121.187 66.398 121.442 65.5608 121.442C46.5623 121.442 27.5639 121.442 8.56539 121.442C7.40616 121.442 6.24693 121.442 4.8301 121.442C4.8301 119.972 4.8301 118.629 4.8301 117.094C43.8575 117.094 82.9493 117.094 122.299 117.094C122.299 118.437 122.299 119.78 122.299 121.442C117.984 121.442 113.733 121.442 109.483 121.442C104.524 121.442 99.6293 121.442 94.6704 121.442C92.9315 121.442 90.7419 121.251 91.0639 123.745C91.1927 124.64 93.3179 125.791 94.5416 125.791C102.721 125.983 110.835 125.855 119.014 125.919C120.045 125.919 121.139 125.919 122.299 125.919C122.299 127.454 122.299 128.669 122.299 130.204C83.2069 130.204 44.1151 130.204 4.70129 130.204ZM80.5664 125.919C81.5324 125.919 82.6273 126.239 83.4001 125.855C84.3661 125.407 85.1389 124.384 85.9761 123.681C85.1389 122.977 84.3661 121.762 83.4001 121.634C81.4036 121.314 79.3428 121.314 77.3463 121.634C76.4447 121.762 75.6719 122.913 74.8347 123.553C75.6719 124.32 76.3803 125.407 77.3463 125.855C78.3123 126.239 79.4716 125.919 80.5664 125.919Z" fill="#183693"/>
<path d="M4.70129 42.5912C4.70129 41.0564 4.70129 39.8413 4.70129 38.3705C43.9219 38.3705 82.9493 38.3705 122.234 38.3705C122.234 39.7134 122.234 41.0564 122.234 42.5912C83.1425 42.5912 44.0507 42.5912 4.70129 42.5912Z" fill="#183693"/>
<path d="M63.6932 11.1275C65.7541 11.1275 67.8149 10.8717 69.747 11.2554C70.8418 11.4472 71.679 12.7902 72.5806 13.6216C71.679 14.389 70.8418 15.7319 69.8758 15.7959C65.6253 16.0517 61.3104 16.0517 57.0598 15.7959C56.1582 15.7319 55.2566 14.389 54.355 13.6216C55.321 12.7902 56.1582 11.5112 57.2531 11.3193C59.3139 10.8717 61.5036 11.1275 63.6932 11.1275Z" fill="#183693"/>
<path d="M95.1211 11.1275C97.2464 11.1275 99.4361 10.8717 101.497 11.2554C102.527 11.4472 103.365 12.7902 104.266 13.6216C103.365 14.389 102.463 15.668 101.561 15.7319C97.3108 15.9877 92.9959 15.9877 88.7454 15.7319C87.8438 15.668 87.0065 14.2611 86.1693 13.4936C87.0065 12.7262 87.7793 11.3833 88.681 11.2554C90.8062 10.9356 92.9959 11.1275 95.1211 11.1275Z" fill="#183693"/>
<path d="M31.5569 15.8598C29.5604 15.8598 27.4352 16.1156 25.5031 15.7319C24.4727 15.54 23.6355 14.1971 22.6694 13.3657C23.5711 12.5983 24.4083 11.2553 25.3743 11.2553C29.6248 10.9995 33.9397 10.9995 38.1902 11.2553C39.0918 11.3193 39.9291 12.6622 40.7663 13.4297C39.8003 14.261 38.963 15.54 37.9326 15.7319C35.8718 16.1156 33.7465 15.8598 31.5569 15.8598Z" fill="#183693"/>
<path d="M31.6213 24.8769C29.6892 24.8769 27.6928 25.1966 25.8895 24.749C24.7303 24.4932 23.7643 23.2142 22.6694 22.4467C23.6355 21.6793 24.6015 20.3364 25.6319 20.2724C29.6892 20.0166 33.7465 20.0166 37.8038 20.2724C38.8342 20.3364 39.8003 21.6793 40.7663 22.3828C39.7359 23.2142 38.8342 24.4932 37.675 24.749C35.743 25.1327 33.6821 24.8129 31.6213 24.8769C31.6213 24.8129 31.6213 24.8129 31.6213 24.8769Z" fill="#183693"/>
<path d="M95.1855 24.8129C93.0603 24.8129 90.8706 25.0687 88.8098 24.685C87.8437 24.5571 87.0709 23.2781 86.1693 22.5107C87.0065 21.7433 87.7793 20.2724 88.681 20.2724C93.0603 20.0166 97.4396 20.0166 101.819 20.2724C102.721 20.3364 103.493 21.7433 104.331 22.5746C103.429 23.3421 102.592 24.5571 101.626 24.749C99.5004 25.0687 97.3752 24.8129 95.1855 24.8129Z" fill="#183693"/>
<path d="M63.2425 24.8129C61.1816 24.8129 59.1208 25.0687 57.1887 24.685C56.1583 24.4932 55.3211 23.342 54.4194 22.5746C55.3211 21.7433 56.2227 20.2724 57.1887 20.2085C61.4392 19.9527 65.7541 19.9527 70.0046 20.2085C70.9062 20.2724 71.7435 21.6793 72.5807 22.4467C71.6791 23.2141 70.9062 24.4932 69.9402 24.685C67.7506 25.0687 65.4965 24.8129 63.2425 24.8129Z" fill="#183693"/>
<path d="M63.3712 101.106C55.643 101.106 47.9148 101.042 40.1866 101.17C37.4817 101.234 36.3225 100.339 36.3225 97.5248C36.4513 86.4614 36.3869 75.3979 36.3225 64.2704C36.3225 61.6485 37.2885 60.6892 39.929 60.6892C55.5786 60.7532 71.2282 60.7532 86.8778 60.6892C89.5182 60.6892 90.5487 61.5845 90.5487 64.2065C90.4843 75.3979 90.4843 86.5892 90.5487 97.7806C90.5487 100.211 89.5826 101.17 87.071 101.17C79.214 101.042 71.2926 101.106 63.3712 101.106ZM86.105 65.3576C70.9706 65.3576 56.0294 65.3576 40.895 65.3576C40.895 75.7816 40.895 86.0776 40.895 96.5016C56.0294 96.5016 70.9706 96.5016 86.105 96.5016C86.105 86.0776 86.105 75.7816 86.105 65.3576Z" fill="white"/>
<path d="M80.5664 125.919C79.4716 125.919 78.3123 126.239 77.4107 125.855C76.4447 125.407 75.7363 124.32 74.899 123.553C75.7363 122.849 76.4447 121.762 77.4107 121.634C79.4072 121.315 81.468 121.315 83.4645 121.634C84.4305 121.762 85.2033 122.977 86.0405 123.681C85.2033 124.448 84.4305 125.407 83.4645 125.855C82.6272 126.239 81.5324 125.919 80.5664 125.919Z" fill="white"/>
<path d="M86.105 65.3577C86.105 75.7816 86.105 86.0138 86.105 96.5017C70.9706 96.5017 56.0294 96.5017 40.895 96.5017C40.895 86.0777 40.895 75.7816 40.895 65.3577C56.0294 65.3577 70.9706 65.3577 86.105 65.3577ZM64.0796 83.136C64.2084 83.3918 64.4016 83.7115 64.5304 83.9673C63.0492 85.3103 61.3103 86.5254 60.0867 88.1241C59.5071 88.8915 59.7647 90.3624 59.7003 91.5135C60.8595 91.4496 62.4052 91.7693 63.0492 91.1938C66.0117 88.5718 68.7809 85.758 71.4858 82.8802C72.0654 82.2407 72.323 80.8337 72.0654 80.0663C71.8722 79.4268 70.5842 78.9152 69.7469 78.8513C67.8793 78.6594 66.0116 78.7873 63.5644 78.7873C65.0456 76.7409 66.3981 75.334 67.2353 73.6713C67.6861 72.776 67.1709 71.433 67.0421 70.2819C65.9472 70.5377 64.466 70.4098 63.822 71.1132C61.5679 73.6713 59.5715 76.4211 57.575 79.235C55.965 81.5372 56.8022 83.0081 59.6359 83.1999C61.1171 83.1999 62.5984 83.136 64.0796 83.136Z" fill="#183693"/>
<path d="M64.0796 83.1359C62.5984 83.1359 61.1171 83.1999 59.6359 83.1359C56.8022 83.008 55.965 81.4732 57.575 79.171C59.5715 76.3572 61.5679 73.6073 63.822 71.0493C64.4016 70.3458 65.9473 70.4737 67.0421 70.2179C67.1065 71.369 67.6217 72.712 67.2353 73.6073C66.4625 75.27 65.11 76.6769 63.5644 78.7233C66.0117 78.7233 67.8793 78.5954 69.747 78.7873C70.5842 78.8512 71.8722 79.4268 72.0654 80.0024C72.323 80.8337 72.0654 82.2406 71.4858 82.8162C68.7809 85.694 66.0117 88.5718 63.0492 91.1298C62.3408 91.7053 60.7951 91.3856 59.7003 91.4495C59.8291 90.2984 59.5071 88.8276 60.0867 88.0601C61.3103 86.4614 62.9848 85.2463 64.5304 83.9034C64.3372 83.7115 64.2084 83.3917 64.0796 83.1359Z" fill="white"/>
</g>
<defs>
<clipPath id="clip0_22_127">
<rect width="127" height="135" fill="white"/>
</clipPath>
</defs>
</svg>
