<?xml version="1.0" standalone="no"?>
<!DOCTYPE svg PUBLIC "-//W3C//DTD SVG 20010904//EN"
 "http://www.w3.org/TR/2001/REC-SVG-20010904/DTD/svg10.dtd">
<svg version="1.0" xmlns="http://www.w3.org/2000/svg"
 width="512.000000pt" height="512.000000pt" viewBox="0 0 512.000000 512.000000"
 preserveAspectRatio="xMidYMid meet">

<g transform="translate(0.000000,512.000000) scale(0.100000,-0.100000)"
fill="#ffffff" stroke="none">
<path d="M65 4471 c-11 -5 -29 -19 -40 -31 -20 -22 -20 -38 -23 -1654 -3
-1496 -2 -1634 13 -1662 10 -18 28 -37 41 -43 18 -8 288 -11 944 -11 l920 0 0
-118 0 -118 -502 -99 c-546 -109 -551 -110 -563 -178 -13 -69 33 -127 101
-127 24 0 239 41 480 90 240 50 493 97 563 105 94 11 246 15 606 15 l481 0
524 -105 c288 -58 541 -105 562 -105 49 0 97 41 104 90 6 41 -23 96 -59 109
-12 5 -246 53 -519 107 l-498 98 0 118 0 118 920 0 c656 0 926 3 944 11 13 6
31 25 41 43 15 28 16 166 13 1663 l-3 1633 -28 27 -27 28 -2488 2 c-1368 1
-2496 -2 -2507 -6z m4843 -1483 l2 -1278 -2350 0 -2350 0 0 1273 c0 701 3
1277 7 1280 3 4 1060 6 2347 5 l2341 -3 3 -1277z m-4478 -1603 l0 -105 -110 0
-110 0 0 105 0 105 110 0 110 0 0 -105z m4480 0 l0 -105 -2135 0 -2135 0 0
105 0 105 2135 0 2135 0 0 -105z m-1925 -425 l0 -105 -425 0 -425 0 -3 94 c-1
52 0 101 2 108 5 11 83 13 428 11 l423 -3 0 -105z"/>
<path d="M2458 3300 c-145 -23 -277 -80 -398 -171 -44 -34 -92 -77 -107 -96
-47 -61 -31 -137 34 -168 50 -24 83 -12 164 61 125 112 261 164 429 164 157 0
291 -47 410 -145 46 -38 62 -45 98 -45 36 0 49 6 73 31 43 46 40 96 -7 149
-43 48 -151 121 -228 155 -130 57 -335 86 -468 65z"/>
<path d="M2473 2865 c-137 -38 -233 -122 -233 -202 0 -88 125 -130 186 -62 10
12 35 29 54 39 80 41 151 35 231 -20 57 -38 106 -40 148 -4 84 70 26 177 -129
235 -72 27 -188 34 -257 14z"/>
<path d="M2509 2421 c-43 -43 -41 -101 5 -147 26 -26 42 -34 71 -34 49 0 105
53 105 99 0 99 -113 150 -181 82z"/>
</g>
</svg>
