<svg width="147" height="165" viewBox="0 0 147 165" fill="none" xmlns="http://www.w3.org/2000/svg">
<g clip-path="url(#clip0_22_859)">
<path d="M87.3719 146.759C117.636 146.759 142.169 132.591 142.169 115.113C142.169 97.6356 117.636 83.4673 87.3719 83.4673C57.1082 83.4673 32.5747 97.6356 32.5747 115.113C32.5747 132.591 57.1082 146.759 87.3719 146.759Z" fill="#314C9F"/>
<path d="M87.3719 145.377C116.34 145.377 139.823 131.827 139.823 115.113C139.823 98.3988 116.34 84.8492 87.3719 84.8492C58.4041 84.8492 34.9211 98.3988 34.9211 115.113C34.9211 131.827 58.4041 145.377 87.3719 145.377Z" fill="#314C9F"/>
<path d="M87.3718 147.311C116.34 147.311 139.823 133.762 139.823 117.048C139.823 100.333 116.34 86.7839 87.3718 86.7839C58.4041 86.7839 34.9211 100.333 34.9211 117.048C34.9211 133.762 58.4041 147.311 87.3718 147.311Z" fill="white"/>
<path opacity="0.4" d="M98.0001 116.495L138.856 112.764L138.718 112.211H138.304L97.8621 115.942C97.586 115.251 97.1719 114.56 96.4818 113.869L131.127 100.879L130.575 100.465L130.299 100.603L130.161 100.465L95.7917 113.317C94.9635 112.626 94.2734 112.349 93.3072 111.796L115.806 91.6206L115.116 91.3442L114.978 91.4824H114.563L92.2029 111.52C91.2367 111.244 90.1325 110.967 89.0283 110.829L95.2396 87.1985C94.9635 87.1985 94.6874 87.1985 94.4114 87.0603C94.2734 87.0603 94.1353 87.0603 93.9973 87.0603L87.648 110.691C87.0959 110.691 86.5438 110.691 85.9917 110.691C85.4396 110.691 84.7494 110.691 84.1973 110.829L73.4311 88.0276C73.2931 88.0276 73.1551 88.0276 73.017 88.0276C72.741 88.0276 72.4649 88.0276 72.1889 88.0276L82.955 110.967C81.8508 111.106 80.7466 111.382 79.6424 111.796L54.1072 93.5553C53.9691 93.5553 53.9691 93.6935 53.8311 93.6935L53.6931 93.5553C53.417 93.6935 53.279 93.8317 53.0029 93.8317L78.5381 112.073C77.5719 112.487 76.7438 113.04 76.0536 113.731L40.5804 103.229C40.5804 103.229 40.5804 103.229 40.4424 103.367H40.0283C39.8903 103.505 39.7522 103.643 39.6142 103.781L75.3635 114.284C74.6734 114.975 74.3973 115.804 74.1212 116.495L34.7832 115.251H34.3691C34.3691 115.389 34.3691 115.528 34.3691 115.804L74.1212 117.048C74.1212 117.877 74.2593 118.706 74.6734 119.397L37.6818 127.688C37.8198 127.827 37.8198 127.965 37.9579 128.103L38.372 127.965C38.372 127.965 38.372 127.965 38.372 128.103L74.9494 119.95C75.5015 120.641 76.1917 121.332 77.1579 121.884L49.2762 138.191C49.4142 138.191 49.4142 138.329 49.5522 138.329C49.6903 138.329 49.8283 138.467 49.9663 138.467L50.1043 138.329C50.2424 138.329 50.2424 138.467 50.3804 138.467L78.1241 122.299C79.0903 122.852 80.1945 123.266 81.4367 123.543L67.3579 144.962C67.6339 144.962 67.91 145.1 68.186 145.1V144.962C68.3241 144.962 68.4621 144.962 68.6001 145.1L82.817 123.957C84.0593 124.095 85.3015 124.234 86.5438 124.234L88.7522 147.312C88.8903 147.312 89.0283 147.312 89.1663 147.312C89.4424 147.312 89.7184 147.312 89.9945 147.312L87.786 124.234C89.0283 124.095 90.2705 123.957 91.3748 123.681L109.733 144.41C109.871 144.41 110.009 144.41 110.147 144.271L110.285 144.41C110.561 144.271 110.837 144.271 111.113 144.133L92.617 123.266C93.5832 122.852 94.5494 122.437 95.3776 121.884L126.986 136.533L127.124 136.394L127.4 136.533C127.538 136.394 127.814 136.256 127.952 136.118L96.2057 121.193C96.8959 120.502 97.448 119.95 97.8621 119.121L137.338 125.201H137.752L138.028 124.648L98.0001 118.706C98.1381 118.015 98.2762 117.186 98.0001 116.495Z" fill="#2A4AAC"/>
<path opacity="0.4" d="M124.502 95.6281C113.873 89.5477 99.7946 86.5075 85.8538 86.7839C98.6904 87.0603 111.527 89.9623 121.327 95.6281C141.755 107.513 141.755 126.721 121.327 138.467C111.527 144.133 98.6904 147.035 85.8538 147.312C99.7946 147.588 113.873 144.548 124.502 138.467C144.93 126.721 144.93 107.513 124.502 95.6281Z" fill="#2A4AAC"/>
<path d="M142.307 114.837V133.078C142.445 141.231 137.062 149.523 126.296 155.741C104.902 168.178 70.1185 168.178 48.7242 155.741C38.096 149.661 32.8509 141.646 32.7129 133.631V115.389C32.8509 123.405 38.234 131.42 48.7242 137.5C70.1185 149.937 104.902 149.937 126.296 137.5C137.062 131.281 142.307 122.99 142.307 114.837Z" fill="#314C9F"/>
<path d="M96.2057 85.5402V87.0603L89.8564 110.691V109.309L96.2057 85.5402Z" fill="#314C9F"/>
<path d="M84.1971 109.309V110.829L73.4309 87.7513V86.2312L84.1971 109.309Z" fill="#314C9F"/>
<path d="M116.634 90.2387V91.6206L94.1353 111.796V110.415L116.634 90.2387Z" fill="#314C9F"/>
<path d="M79.9183 110.553V112.073L53.969 93.5553V92.1734L79.9183 110.553Z" fill="#314C9F"/>
<path d="M132.093 99.3593L131.955 100.741L97.3098 113.869V112.349L132.093 99.3593Z" fill="#314C9F"/>
<path d="M76.8816 112.764V114.284L40.4421 103.505V102.123L76.8816 112.764Z" fill="#314C9F"/>
<path d="M139.822 111.244V112.626L98.9661 116.357V114.975L139.822 111.244Z" fill="#314C9F"/>
<path d="M75.5016 115.666V117.048L35.0593 115.804V114.422L75.5016 115.666Z" fill="#314C9F"/>
<path d="M99.1041 115.942V117.324C99.1041 117.739 99.1041 118.153 98.9661 118.568V117.186C98.9661 116.771 99.1041 116.357 99.1041 115.942Z" fill="#314C9F"/>
<path d="M76.0536 118.015V119.397C75.6395 118.706 75.5015 118.015 75.5015 117.324V115.942C75.5015 116.633 75.7775 117.324 76.0536 118.015Z" fill="#314C9F"/>
<path d="M98.6903 117.739V119.121C98.4142 119.812 97.8621 120.503 97.0339 121.193V119.812C97.8621 119.121 98.4142 118.43 98.6903 117.739Z" fill="#314C9F"/>
<path d="M78.6761 120.641V122.023C77.7099 121.332 76.8817 120.641 76.3296 119.95V118.568C76.8817 119.259 77.7099 119.95 78.6761 120.641Z" fill="#314C9F"/>
<path d="M96.4817 120.226V121.608C96.2056 121.746 95.9296 122.023 95.6535 122.161C94.9634 122.575 94.2732 122.852 93.4451 123.128V121.746C94.1352 121.47 94.9634 121.193 95.6535 120.779C95.9296 120.641 96.2056 120.364 96.4817 120.226Z" fill="#314C9F"/>
<path d="M82.9549 122.299V123.681C81.7127 123.405 80.4704 122.99 79.3662 122.299V120.917C80.4704 121.47 81.5747 122.023 82.9549 122.299Z" fill="#314C9F"/>
<path d="M92.755 122.023V123.405C91.5128 123.819 90.1325 123.957 88.7522 124.096V122.714C90.1325 122.575 91.5128 122.437 92.755 122.023Z" fill="#314C9F"/>
<path d="M87.9238 122.714V124.095C86.5435 124.095 85.1632 124.095 83.783 123.819V122.437C85.0252 122.714 86.5435 122.852 87.9238 122.714Z" fill="#314C9F"/>
<path d="M138.718 123.405V124.786L138.442 125.339V123.819L138.718 123.405Z" fill="#314C9F"/>
<path d="M138.442 123.819V125.339L98.6902 119.121V117.739L138.442 123.819Z" fill="#314C9F"/>
<path d="M76.4677 118.568V119.95L38.6479 128.379V126.859L76.4677 118.568Z" fill="#314C9F"/>
<path d="M38.6479 126.859V128.379L38.3718 127.827V126.445L38.6479 126.859Z" fill="#314C9F"/>
<path d="M129.057 134.736V136.256L128.504 136.671V135.151L129.057 134.736Z" fill="#314C9F"/>
<path d="M128.504 135.151V136.671L96.4817 121.608V120.226L128.504 135.151Z" fill="#314C9F"/>
<path d="M79.3663 120.917V122.437L50.7944 139.02V137.5L79.3663 120.917Z" fill="#314C9F"/>
<path d="M50.7945 137.5V139.02L50.2424 138.606V137.085L50.7945 137.5Z" fill="#314C9F"/>
<path d="M112.217 142.889L112.079 144.271L111.389 144.548V143.028L112.217 142.889Z" fill="#314C9F"/>
<path d="M111.389 143.028V144.548L92.7549 123.405V122.023L111.389 143.028Z" fill="#314C9F"/>
<path d="M83.783 122.437V123.819L69.29 145.791L69.4281 144.41L83.783 122.437Z" fill="#314C9F"/>
<path d="M69.428 144.41L69.29 145.791L68.5999 145.653V144.133L69.428 144.41Z" fill="#314C9F"/>
<path d="M90.1323 146.206V147.726L87.9238 124.234V122.714L90.1323 146.206Z" fill="#314C9F"/>
<path d="M91.0985 146.206V147.726H90.1323V146.206H91.0985Z" fill="#314C9F"/>
<path d="M131.541 98.8066L132.093 99.2211L97.4479 112.349C98.138 113.04 98.5521 113.731 98.8282 114.422L139.685 110.691L139.823 111.244L98.9662 114.975C99.1042 115.666 99.1042 116.495 98.9662 117.186L138.856 123.405L138.58 123.957L98.6902 117.739C98.4141 118.43 97.862 119.121 97.0338 119.812L129.056 134.736L128.504 135.151L96.4817 120.226C96.2057 120.364 95.9296 120.641 95.6535 120.779C94.9634 121.193 94.2733 121.47 93.4451 121.746L112.079 142.889L111.251 143.166L92.7549 122.023C91.5127 122.437 90.1324 122.575 88.7521 122.714L90.9606 146.206H90.1324L87.924 122.714C86.5437 122.714 85.1634 122.714 83.7831 122.437L69.4282 144.41L68.6 144.271L82.9549 122.437C81.7127 122.161 80.4704 121.746 79.3662 121.055L50.9324 137.638L50.2423 137.224L78.6761 120.641C77.7099 119.95 76.8817 119.259 76.3296 118.568L38.6479 126.859L38.3718 126.445L76.0535 118.015C75.6395 117.186 75.5014 116.357 75.5014 115.666L34.9211 114.422V113.869L75.5014 115.113C75.6395 114.284 76.0535 113.593 76.7437 112.764L40.3042 101.985L40.7183 101.57L77.2958 112.349C77.7099 111.935 78.262 111.52 78.9521 111.106C79.2282 110.967 79.6423 110.691 79.9183 110.553L53.969 92.1734L54.6592 91.897L80.6085 110.415C81.7127 110 82.955 109.585 84.1972 109.447L73.431 86.3694L74.2592 86.2312L85.1634 109.171C86.4057 109.033 87.7859 109.033 89.0282 109.171L95.3775 85.5402L96.2057 85.6784L89.8564 109.447C91.0986 109.585 92.3409 109.862 93.4451 110.276L115.944 90.1005L116.634 90.3769L94.1352 110.415C94.6873 110.691 95.1014 110.829 95.6535 111.106C96.0676 111.382 96.4817 111.658 96.8958 111.935L131.541 98.8066Z" fill="#314C9F"/>
<path d="M94.6875 111.658C90.6847 109.309 84.1974 109.309 80.0566 111.658C76.0537 114.008 76.0537 117.739 80.0566 120.088C84.0594 122.437 90.5467 122.437 94.6875 120.088C98.6904 117.739 98.6904 114.008 94.6875 111.658ZM94.1354 119.812C90.4087 122.023 84.1974 122.023 80.4706 119.812C76.7439 117.6 76.7439 114.146 80.4706 111.935C84.1974 109.724 90.4087 109.724 94.1354 111.935C98.0002 114.146 98.0002 117.6 94.1354 119.812Z" fill="white"/>
<path d="M83.231 111.658V115.804C83.231 116.357 83.645 117.048 84.4732 117.462C86.1296 118.43 88.7521 118.43 90.2704 117.462C91.0986 117.048 91.5127 116.357 91.5127 115.804V111.658H83.231Z" fill="url(#paint0_linear_22_859)"/>
<path d="M87.3718 114.008C89.6587 114.008 91.5127 112.956 91.5127 111.658C91.5127 110.361 89.6587 109.309 87.3718 109.309C85.0849 109.309 83.231 110.361 83.231 111.658C83.231 112.956 85.0849 114.008 87.3718 114.008Z" fill="white"/>
<path d="M134.439 149.937L141.617 145.791L147 148.832L139.685 152.977L134.439 149.937Z" fill="white"/>
<path d="M133.611 148.693L140.927 144.548L141.617 144.962L134.439 149.108L133.611 148.693Z" fill="white"/>
<path d="M134.439 149.108L141.617 144.962V145.791L134.439 149.937V149.108Z" fill="#314C9F"/>
<path d="M132.921 147.45L140.237 143.166L140.927 143.58L133.611 147.864L132.921 147.45Z" fill="white"/>
<path d="M133.611 147.864L140.927 143.58V144.548L133.611 148.694V147.864Z" fill="#314C9F"/>
<path d="M132.231 146.206L139.546 141.922L140.237 142.337L132.921 146.621L132.231 146.206Z" fill="white"/>
<path d="M132.921 146.621L140.237 142.337V143.166L132.921 147.45V146.621Z" fill="#314C9F"/>
<path d="M131.541 144.962L138.718 140.678L139.546 141.093L132.231 145.377L131.541 144.962Z" fill="white"/>
<path d="M132.231 145.377L139.546 141.093V141.922L132.231 146.206V145.377Z" fill="#314C9F"/>
<path d="M131.541 144.133L138.718 139.849V140.678L131.541 144.962V144.133Z" fill="#314C9F"/>
<path d="M130.713 143.719L138.028 139.435L138.718 139.849L131.541 144.133L130.713 143.719Z" fill="white"/>
<path d="M130.022 142.475L137.338 138.191L138.028 138.606L130.713 142.889L130.022 142.475Z" fill="white"/>
<path d="M130.713 142.889L138.028 138.606V139.435L130.713 143.719V142.889Z" fill="#314C9F"/>
<path d="M129.332 141.231L136.648 136.947L137.338 137.362L130.022 141.646L129.332 141.231Z" fill="white"/>
<path d="M130.022 141.646L137.338 137.362V138.191L130.022 142.475V141.646Z" fill="#314C9F"/>
<path d="M129.332 140.402L136.648 136.118V136.947L129.332 141.231V140.402Z" fill="#314C9F"/>
<path d="M125.33 138.053L132.507 133.769L136.648 136.118L129.332 140.402L125.33 138.053Z" fill="white"/>
<path d="M134.44 149.937V149.108L133.749 148.693V147.864L133.059 147.45V146.621L132.369 146.206V145.377L131.679 144.962V144.133L130.989 143.719V142.889L130.299 142.475V141.646L129.609 141.231V140.402L125.606 138.053V138.882L129.194 140.955V141.784L129.885 142.198V143.028L130.575 143.442V144.271L131.265 144.686V145.515L131.955 145.93V146.759L132.645 147.173V148.002L133.335 148.417V149.246L134.025 149.661V150.49L139.823 153.807V152.977L134.44 149.937Z" fill="#314C9F"/>
<path d="M134.163 162.098L127.676 158.229L126.986 158.781L133.473 162.513L134.163 162.098Z" fill="white"/>
<path d="M133.473 162.513L126.986 158.781V159.611L133.473 163.342V162.513Z" fill="#314C9F"/>
<path d="M134.853 160.854L128.366 156.985L127.676 157.4L134.163 161.269L134.853 160.854Z" fill="white"/>
<path d="M134.163 161.269L127.676 157.4V158.229L134.163 162.098V161.269Z" fill="#314C9F"/>
<path d="M135.544 159.611L129.056 155.741L128.366 156.156L134.854 160.025L135.544 159.611Z" fill="white"/>
<path d="M134.854 160.025L128.366 156.156V156.985L134.854 160.854V160.025Z" fill="#314C9F"/>
<path d="M136.372 158.229L129.885 154.497L129.056 154.912L135.544 158.781L136.372 158.229Z" fill="white"/>
<path d="M135.544 158.781L129.056 154.912V155.741L135.544 159.611V158.781Z" fill="#314C9F"/>
<path d="M136.372 157.4L129.885 153.668V154.497L136.372 158.229V157.4Z" fill="#314C9F"/>
<path d="M137.062 156.985L130.575 153.254L129.885 153.668L136.372 157.4L137.062 156.985Z" fill="white"/>
<path d="M137.752 155.741L131.265 152.01L130.575 152.425L137.062 156.156L137.752 155.741Z" fill="white"/>
<path d="M137.062 156.156L130.575 152.425V153.254L137.062 156.985V156.156Z" fill="#314C9F"/>
<path d="M138.442 154.498L131.955 150.766L131.265 151.181L137.752 154.912L138.442 154.498Z" fill="white"/>
<path d="M137.752 154.912L131.265 151.181V152.01L137.752 155.741V154.912Z" fill="#314C9F"/>
<path d="M147 148.832L139.685 153.116L138.442 153.807V154.636L137.752 155.05V155.879L137.062 156.294V157.123L136.372 157.538V158.367L135.682 158.781V159.611L134.992 160.025V160.854L134.301 161.269V162.098L133.611 162.513V163.342L147.138 155.465V148.832H147Z" fill="#314C9F"/>
<path d="M138.442 153.668L131.955 149.937V150.766L138.442 154.497V153.668Z" fill="#314C9F"/>
<path d="M139.684 152.977L133.197 149.246L131.955 149.937L138.442 153.668L139.684 152.977Z" fill="white"/>
<path d="M77.0199 121.332L65.8396 114.975V115.666L77.0199 122.161V121.332Z" fill="#314C9F"/>
<path d="M105.73 105.578L77.02 122.161V121.332L105.73 104.749V105.578Z" fill="#314C9F"/>
<path d="M127.538 138.605L87.3721 115.389V116.08L127.538 139.435V138.605Z" fill="#314C9F"/>
<path d="M134.854 135.151L127.538 139.435V138.605L134.854 134.322V135.151Z" fill="#314C9F"/>
<path d="M94.6875 111.105L105.73 104.749L94.5495 98.2537L65.8396 114.975L77.0199 121.332L87.372 115.389L127.538 138.605L134.854 134.322L94.6875 111.105Z" fill="#314C9F"/>
<path d="M87.3721 114.56L77.02 120.502L67.22 114.975L94.5495 99.0829L104.35 104.749L93.3073 111.106L134.164 134.736L128.228 138.191L87.3721 114.56Z" fill="white"/>
<path d="M93.9973 110.967V108.48C93.9973 108.48 93.9973 108.342 94.1353 108.342C94.1353 108.342 94.2734 108.342 94.2734 108.48V110.967C94.2734 111.106 93.9973 111.106 93.9973 110.967Z" fill="#314C9F"/>
<path d="M97.448 113.04V110.553C97.448 110.553 97.448 110.415 97.586 110.415C97.7241 110.415 97.7241 110.415 97.7241 110.553V113.04C97.7241 113.178 97.448 113.178 97.448 113.04Z" fill="#314C9F"/>
<path d="M100.899 114.975V112.487C100.899 112.487 100.899 112.349 101.037 112.349C101.175 112.349 101.175 112.349 101.175 112.487V114.975C101.175 115.113 100.899 115.113 100.899 114.975Z" fill="#314C9F"/>
<path d="M104.488 117.048V114.56C104.488 114.56 104.488 114.422 104.626 114.422C104.626 114.422 104.764 114.422 104.764 114.56V117.048C104.626 117.186 104.488 117.186 104.488 117.048Z" fill="#314C9F"/>
<path d="M107.938 118.982V116.495C107.938 116.495 107.938 116.357 108.076 116.357C108.214 116.357 108.214 116.357 108.214 116.495V118.982C108.076 119.121 107.938 119.121 107.938 118.982Z" fill="#314C9F"/>
<path d="M111.389 121.055V118.568C111.389 118.568 111.389 118.43 111.527 118.43C111.665 118.43 111.665 118.43 111.665 118.568V121.055C111.665 121.193 111.389 121.193 111.389 121.055Z" fill="#314C9F"/>
<path d="M114.84 123.128V120.641C114.84 120.641 114.84 120.502 114.978 120.502C115.116 120.502 115.116 120.502 115.116 120.641V123.128C115.116 123.128 114.84 123.128 114.84 123.128Z" fill="#314C9F"/>
<path d="M118.29 125.063V122.575C118.29 122.575 118.29 122.437 118.428 122.437C118.566 122.437 118.566 122.437 118.566 122.575V125.063C118.566 125.201 118.29 125.201 118.29 125.063Z" fill="#314C9F"/>
<path d="M121.879 127.136V124.648C121.879 124.648 121.879 124.51 122.017 124.51C122.017 124.51 122.155 124.51 122.155 124.648V127.136C122.017 127.136 121.879 127.136 121.879 127.136Z" fill="#314C9F"/>
<path d="M125.33 129.07V126.583C125.33 126.583 125.33 126.445 125.468 126.445C125.606 126.445 125.606 126.445 125.606 126.583V129.07C125.606 129.209 125.33 129.209 125.33 129.07Z" fill="#314C9F"/>
<path d="M128.781 131.143V128.656C128.781 128.656 128.781 128.518 128.919 128.518C129.057 128.518 129.057 128.518 129.057 128.656V131.143C129.057 131.281 128.781 131.281 128.781 131.143Z" fill="#314C9F"/>
<path d="M132.231 133.078V130.59C132.231 130.59 132.231 130.452 132.369 130.452C132.507 130.452 132.507 130.452 132.507 130.59V133.078C132.507 133.216 132.231 133.216 132.231 133.078Z" fill="#314C9F"/>
<path d="M87.0957 114.975V112.487C87.0957 112.487 87.0957 112.349 87.2337 112.349C87.2337 112.349 87.3718 112.349 87.3718 112.487V114.975C87.3718 115.113 87.0957 115.113 87.0957 114.975Z" fill="#314C9F"/>
<path d="M83.7832 116.909V114.422C83.7832 114.422 83.7832 114.284 83.9212 114.284C83.9212 114.284 84.0593 114.284 84.0593 114.422V116.909C84.0593 117.048 83.7832 117.048 83.7832 116.909Z" fill="#314C9F"/>
<path d="M80.3325 118.982V116.495C80.3325 116.495 80.3325 116.357 80.4705 116.357C80.4705 116.357 80.6086 116.357 80.6086 116.495V118.982C80.4705 118.982 80.3325 118.982 80.3325 118.982Z" fill="#314C9F"/>
<path d="M101.451 106.683V104.196C101.451 104.196 101.451 104.058 101.589 104.058C101.727 104.058 101.727 104.058 101.727 104.196V106.683C101.589 106.822 101.451 106.822 101.451 106.683Z" fill="#314C9F"/>
<path d="M97.8621 108.756V106.269C97.8621 106.269 97.8621 106.131 98.0001 106.131C98.1381 106.131 98.1381 106.131 98.1381 106.269V108.756C98.1381 108.894 97.8621 108.894 97.8621 108.756Z" fill="#314C9F"/>
<path d="M90.5466 116.909V114.422C90.5466 114.422 90.5466 114.284 90.6847 114.284C90.8227 114.284 90.8227 114.284 90.8227 114.422V116.909C90.8227 117.048 90.5466 117.048 90.5466 116.909Z" fill="#314C9F"/>
<path d="M94.1353 118.982V116.495C94.1353 116.495 94.1353 116.357 94.2733 116.357C94.4113 116.357 94.4113 116.357 94.4113 116.495V118.982C94.2733 119.121 94.1353 119.121 94.1353 118.982Z" fill="#314C9F"/>
<path d="M97.5859 121.055V118.568C97.5859 118.568 97.5859 118.43 97.724 118.43C97.862 118.43 97.862 118.43 97.862 118.568V121.055C97.862 121.055 97.5859 121.055 97.5859 121.055Z" fill="#314C9F"/>
<path d="M101.037 122.99V120.502C101.037 120.502 101.037 120.364 101.175 120.364C101.175 120.364 101.313 120.364 101.313 120.502V122.99C101.313 123.128 101.037 123.128 101.037 122.99Z" fill="#314C9F"/>
<path d="M104.488 125.063V122.575C104.488 122.575 104.488 122.437 104.626 122.437C104.764 122.437 104.764 122.437 104.764 122.575V125.063C104.764 125.063 104.488 125.063 104.488 125.063Z" fill="#314C9F"/>
<path d="M108.076 126.997V124.51C108.076 124.51 108.076 124.372 108.214 124.372C108.352 124.372 108.352 124.372 108.352 124.51V126.997C108.214 127.136 108.076 127.136 108.076 126.997Z" fill="#314C9F"/>
<path d="M111.527 129.07V126.583C111.527 126.583 111.527 126.445 111.665 126.445C111.803 126.445 111.803 126.445 111.803 126.583V129.07C111.665 129.209 111.527 129.209 111.527 129.07Z" fill="#314C9F"/>
<path d="M114.978 131.005V128.518C114.978 128.518 114.978 128.379 115.116 128.379C115.254 128.379 115.254 128.379 115.254 128.518V131.005C115.254 131.143 114.978 131.143 114.978 131.005Z" fill="#314C9F"/>
<path d="M118.428 133.078V130.59C118.428 130.59 118.428 130.452 118.566 130.452C118.566 130.452 118.705 130.452 118.705 130.59V133.078C118.705 133.216 118.428 133.216 118.428 133.078Z" fill="#314C9F"/>
<path d="M121.879 135.151V132.663C121.879 132.663 121.879 132.525 122.017 132.525C122.155 132.525 122.155 132.525 122.155 132.663V135.151C122.155 135.151 121.879 135.151 121.879 135.151Z" fill="#314C9F"/>
<path d="M125.468 137.085V134.598C125.468 134.598 125.468 134.46 125.606 134.46C125.744 134.46 125.744 134.46 125.744 134.598V137.085C125.606 137.224 125.468 137.224 125.468 137.085Z" fill="#314C9F"/>
<path d="M125.744 134.874L87.2339 112.626L77.1579 118.43C77.0199 118.43 77.0199 118.43 76.8818 118.43L66.3917 112.349C66.2537 112.349 66.2537 112.211 66.2537 112.073C66.2537 111.935 66.2537 111.935 66.3917 111.796L94.4114 95.6281C94.5494 95.6281 94.5494 95.6281 94.6875 95.6281L105.178 101.709C105.316 101.709 105.316 101.847 105.316 101.985C105.316 102.123 105.316 102.123 105.178 102.261L94.6875 108.342L132.921 130.452C133.059 130.452 133.059 130.729 133.059 130.729C133.059 130.867 132.783 130.867 132.783 130.867L93.9973 108.618C93.8593 108.618 93.8593 108.48 93.8593 108.342C93.8593 108.203 93.8593 108.203 93.9973 108.065L104.487 101.985L94.4114 96.1809L66.9438 112.211L77.0199 118.015L87.0959 112.211C87.2339 112.211 87.2339 112.211 87.372 112.211L125.882 134.46C126.02 134.46 126.02 134.736 126.02 134.736C125.882 134.874 125.882 134.874 125.744 134.874Z" fill="#314C9F"/>
<path d="M66.3916 114.837V112.349C66.3916 112.349 66.3916 112.211 66.5296 112.211C66.6677 112.211 66.6677 112.211 66.6677 112.349V114.837C66.6677 114.975 66.3916 114.975 66.3916 114.837Z" fill="#314C9F"/>
<path d="M69.8423 116.91V114.422C69.8423 114.422 69.8423 114.284 69.9803 114.284C69.9803 114.284 70.1183 114.284 70.1183 114.422V116.91C70.1183 117.048 69.8423 117.048 69.8423 116.91Z" fill="#314C9F"/>
<path d="M73.4312 118.844V116.357C73.4312 116.357 73.4312 116.219 73.5692 116.219C73.7072 116.219 73.7072 116.219 73.7072 116.357V118.844C73.5692 118.982 73.4312 118.982 73.4312 118.844Z" fill="#314C9F"/>
<path d="M76.8818 120.917V118.43C76.8818 118.43 76.8818 118.291 77.0199 118.291C77.1579 118.291 77.1579 118.291 77.1579 118.43V120.917C77.1579 121.055 76.8818 121.055 76.8818 120.917Z" fill="#314C9F"/>
<path d="M94.4114 98.6683V96.1809C94.4114 96.1809 94.4114 96.0427 94.5494 96.0427C94.5494 96.0427 94.6874 96.0427 94.6874 96.1809V98.6683C94.6874 98.8065 94.4114 98.8065 94.4114 98.6683Z" fill="#314C9F"/>
<path d="M97.8621 100.741V98.2537C97.8621 98.2537 97.8621 98.1155 98.0001 98.1155C98.1381 98.1155 98.1381 98.1155 98.1381 98.2537V100.741C98.1381 100.879 97.8621 100.879 97.8621 100.741Z" fill="#314C9F"/>
<path d="M101.313 102.676V100.188C101.313 100.188 101.313 100.05 101.451 100.05C101.589 100.05 101.589 100.05 101.589 100.188V102.676C101.589 102.814 101.313 102.814 101.313 102.676Z" fill="#314C9F"/>
<path d="M104.902 104.749V102.261C104.902 102.261 104.902 102.123 105.04 102.123C105.178 102.123 105.178 102.123 105.178 102.261V104.749C105.04 104.887 104.902 104.887 104.902 104.749Z" fill="#314C9F"/>
<path d="M91.3747 100.465V97.9774C91.3747 97.9774 91.3747 97.8392 91.2367 97.8392C91.2367 97.8392 91.0986 97.8392 91.0986 97.9774V100.465C91.0986 100.603 91.3747 100.603 91.3747 100.465Z" fill="#314C9F"/>
<path d="M87.786 102.538V100.05C87.786 100.05 87.7861 99.912 87.648 99.912C87.648 99.912 87.51 99.912 87.51 100.05V102.538C87.648 102.676 87.786 102.676 87.786 102.538Z" fill="#314C9F"/>
<path d="M84.3354 104.61V102.123C84.3354 102.123 84.3354 101.985 84.1973 101.985C84.1973 101.985 84.0593 101.985 84.0593 102.123V104.61H84.3354Z" fill="#314C9F"/>
<path d="M80.8847 106.545V104.058C80.8847 104.058 80.8847 103.92 80.7467 103.92C80.6086 103.92 80.6086 103.92 80.6086 104.058V106.545C80.6086 106.683 80.8847 106.683 80.8847 106.545Z" fill="#314C9F"/>
<path d="M77.434 108.618V106.131C77.434 106.131 77.434 105.992 77.296 105.992C77.158 105.992 77.158 105.992 77.158 106.131V108.618H77.434Z" fill="#314C9F"/>
<path d="M73.8451 110.553V108.065C73.8451 108.065 73.8451 107.927 73.7071 107.927C73.5691 107.927 73.5691 107.927 73.5691 108.065V110.553C73.7071 110.691 73.8451 110.691 73.8451 110.553Z" fill="#314C9F"/>
<path d="M70.3945 112.626V110.138C70.3945 110.138 70.3945 110 70.2564 110C70.1184 110 70.1184 110 70.1184 110.138V112.626C70.2564 112.764 70.3945 112.764 70.3945 112.626Z" fill="#314C9F"/>
<path d="M137.752 126.445C137.614 126.445 137.614 126.307 137.614 126.307V122.714C137.614 122.575 137.752 122.575 137.752 122.575L137.89 122.714V126.307C137.89 126.307 137.89 126.445 137.752 126.445Z" fill="#314C9F"/>
<path d="M140.651 120.226C140.513 120.226 140.513 120.088 140.513 120.088V116.495C140.513 116.357 140.651 116.357 140.651 116.357C140.789 116.357 140.789 116.495 140.789 116.495V120.088C140.789 120.088 140.789 120.226 140.651 120.226Z" fill="#314C9F"/>
<path d="M141.203 113.731C141.065 113.731 141.065 113.593 141.065 113.593V110C141.065 109.862 141.203 109.862 141.203 109.862L141.341 110V113.593C141.341 113.593 141.341 113.731 141.203 113.731Z" fill="#314C9F"/>
<path d="M139.408 107.236C139.27 107.236 139.27 107.098 139.27 107.098V103.505C139.27 103.367 139.408 103.367 139.408 103.367L139.546 103.505V107.098C139.684 107.236 139.546 107.236 139.408 107.236Z" fill="#314C9F"/>
<path d="M135.406 101.156C135.268 101.156 135.268 101.018 135.268 101.018V97.4246C135.268 97.2864 135.406 97.2864 135.406 97.2864L135.544 97.4246V101.018C135.682 101.156 135.544 101.156 135.406 101.156Z" fill="#314C9F"/>
<path d="M129.332 95.7663C129.194 95.7663 129.194 95.6281 129.194 95.6281V92.0352C129.194 91.897 129.332 91.897 129.332 91.897C129.47 91.897 129.47 92.0352 129.47 92.0352V95.6281C129.47 95.6281 129.47 95.7663 129.332 95.7663Z" fill="#314C9F"/>
<path d="M121.327 91.206C121.189 91.206 121.189 91.0678 121.189 91.0678V87.4749C121.189 87.3367 121.327 87.3367 121.327 87.3367C121.465 87.3367 121.465 87.4749 121.465 87.4749V91.0678C121.603 91.0678 121.465 91.206 121.327 91.206Z" fill="#314C9F"/>
<path d="M111.941 87.6131C111.803 87.6131 111.803 87.4749 111.803 87.4749V83.8819C111.803 83.7437 111.941 83.7437 111.941 83.7437C112.079 83.7437 112.079 83.8819 112.079 83.8819V87.4749C112.079 87.4749 112.079 87.6131 111.941 87.6131Z" fill="#314C9F"/>
<path d="M101.451 85.2638C101.312 85.2638 101.312 85.1256 101.312 85.1256V81.5327C101.312 81.3945 101.451 81.3945 101.451 81.3945L101.589 81.5327V85.1256C101.589 85.2638 101.589 85.2638 101.451 85.2638Z" fill="#314C9F"/>
<path d="M90.4083 84.2965C90.2703 84.2965 90.2703 84.1583 90.2703 84.1583V80.5653C90.2703 80.4271 90.4083 80.4271 90.4083 80.4271L90.5463 80.5653V84.1583L90.4083 84.2965Z" fill="#314C9F"/>
<path d="M79.0902 84.5728C78.9521 84.5728 78.9521 84.4346 78.9521 84.4346V80.8417C78.9521 80.7035 79.0902 80.7035 79.0902 80.7035C79.2282 80.7035 79.2282 80.8417 79.2282 80.8417V84.4346C79.3662 84.5728 79.2282 84.5728 79.0902 84.5728Z" fill="#314C9F"/>
<path d="M68.3238 86.3694C68.1858 86.3694 68.1858 86.2312 68.1858 86.2312V82.6382C68.1858 82.5 68.3238 82.5 68.3238 82.5C68.4618 82.5 68.4618 82.6382 68.4618 82.6382V86.2312C68.4618 86.2312 68.4618 86.3694 68.3238 86.3694Z" fill="#314C9F"/>
<path d="M58.2479 89.2713C58.1099 89.2713 58.1099 89.1331 58.1099 89.1331V85.5402C58.1099 85.402 58.2479 85.402 58.2479 85.402C58.3859 85.402 58.3859 85.5402 58.3859 85.5402V89.1331C58.524 89.1331 58.3859 89.2713 58.2479 89.2713Z" fill="#314C9F"/>
<path d="M49.5521 93.2789C49.4141 93.2789 49.4141 93.1407 49.4141 93.1407V89.5477C49.4141 89.4096 49.5521 89.4095 49.5521 89.4095C49.6901 89.4095 49.6901 89.5477 49.6901 89.5477V93.1407C49.6901 93.2789 49.6901 93.2789 49.5521 93.2789Z" fill="#314C9F"/>
<path d="M42.5125 98.3919C42.3745 98.3919 42.3745 98.2537 42.3745 98.2537V94.6608C42.3745 94.5226 42.5125 94.5226 42.5125 94.5226C42.6506 94.5226 42.6506 94.6608 42.6506 94.6608V98.2537C42.6506 98.2537 42.6506 98.3919 42.5125 98.3919Z" fill="#314C9F"/>
<path d="M37.4056 104.196C37.2676 104.196 37.2676 104.058 37.2676 104.058V100.465C37.2676 100.327 37.4056 100.327 37.4056 100.327C37.5436 100.327 37.5436 100.465 37.5436 100.465V104.058C37.5436 104.058 37.5436 104.196 37.4056 104.196Z" fill="#314C9F"/>
<path d="M34.5069 110.415C34.3689 110.415 34.3689 110.276 34.3689 110.276V106.683C34.3689 106.545 34.5069 106.545 34.5069 106.545C34.645 106.545 34.645 106.683 34.645 106.683V110.276C34.645 110.415 34.645 110.415 34.5069 110.415Z" fill="#314C9F"/>
<path d="M33.9549 116.91C33.8169 116.91 33.8169 116.771 33.8169 116.771V113.178C33.8169 113.04 33.9549 113.04 33.9549 113.04C34.093 113.04 34.093 113.178 34.093 113.178V116.771C34.093 116.91 33.9549 116.91 33.9549 116.91Z" fill="#314C9F"/>
<path d="M35.6112 123.405C35.4731 123.405 35.4731 123.266 35.4731 123.266V119.673C35.4731 119.535 35.6112 119.535 35.6112 119.535C35.7492 119.535 35.7492 119.673 35.7492 119.673V123.266C35.8872 123.266 35.7492 123.405 35.6112 123.405Z" fill="#314C9F"/>
<path d="M39.6141 129.347C39.4761 129.347 39.4761 129.209 39.4761 129.209V125.616C39.4761 125.477 39.6141 125.477 39.6141 125.477C39.7521 125.477 39.7521 125.616 39.7521 125.616V129.209C39.8902 129.347 39.7521 129.347 39.6141 129.347Z" fill="#314C9F"/>
<path d="M45.8253 134.874C45.6873 134.874 45.6873 134.736 45.6873 134.736V131.143C45.6873 131.005 45.8253 131.005 45.8253 131.005C45.9633 131.005 45.9633 131.143 45.9633 131.143V134.736C45.9633 134.736 45.8253 134.874 45.8253 134.874Z" fill="#314C9F"/>
<path d="M53.693 139.435C53.5549 139.435 53.5549 139.296 53.5549 139.296V135.703C53.5549 135.565 53.693 135.565 53.693 135.565C53.831 135.565 53.831 135.703 53.831 135.703V139.296C53.969 139.296 53.831 139.435 53.693 139.435Z" fill="#314C9F"/>
<path d="M63.2169 143.028C63.0789 143.028 63.0789 142.889 63.0789 142.889V139.296C63.0789 139.158 63.2169 139.158 63.2169 139.158C63.3549 139.158 63.3549 139.296 63.3549 139.296V142.889L63.2169 143.028Z" fill="#314C9F"/>
<path d="M73.7071 145.239C73.5691 145.239 73.5691 145.1 73.5691 145.1V141.508C73.5691 141.369 73.7071 141.369 73.7071 141.369C73.8451 141.369 73.8451 141.508 73.8451 141.508V145.1C73.8451 145.239 73.7071 145.239 73.7071 145.239Z" fill="#314C9F"/>
<path d="M84.7494 146.344C84.6113 146.344 84.6113 146.206 84.6113 146.206V142.613C84.6113 142.475 84.7494 142.475 84.7494 142.475C84.8874 142.475 84.8874 142.613 84.8874 142.613V146.206C84.8874 146.206 84.8874 146.344 84.7494 146.344Z" fill="#314C9F"/>
<path d="M95.9295 145.93C95.7915 145.93 95.7915 145.791 95.7915 145.791V142.198C95.7915 142.06 95.9295 142.06 95.9295 142.06C96.0676 142.06 96.0676 142.198 96.0676 142.198V145.791C96.2056 145.93 96.0676 145.93 95.9295 145.93Z" fill="#314C9F"/>
<path d="M106.834 144.271C106.696 144.271 106.696 144.133 106.696 144.133V140.54C106.696 140.402 106.834 140.402 106.834 140.402L106.972 140.54V144.133C106.972 144.271 106.972 144.271 106.834 144.271Z" fill="#314C9F"/>
<path d="M116.772 141.369C116.634 141.369 116.634 141.231 116.634 141.231V137.638C116.634 137.5 116.772 137.5 116.772 137.5L116.91 137.638V141.231C117.048 141.231 116.91 141.369 116.772 141.369Z" fill="#314C9F"/>
<path d="M87.6478 142.751C73.707 142.751 59.9042 139.711 49.414 133.631C39.1999 127.688 33.5408 119.812 33.5408 111.52C33.5408 103.09 39.1999 95.2136 49.414 89.4095C70.3943 77.2487 104.625 77.2487 125.606 89.4095C134.301 94.3844 139.546 100.741 141.065 107.789C142.169 113.317 140.789 118.844 137.062 123.957C136.924 124.095 136.786 124.095 136.786 123.957C136.648 123.819 136.648 123.681 136.786 123.681C140.513 118.706 141.755 113.317 140.651 107.927C139.27 101.018 133.887 94.799 125.468 89.8241C104.625 77.8015 70.6704 77.8015 49.6901 89.8241C39.614 95.6281 34.0929 103.367 34.0929 111.52C34.0929 119.673 39.614 127.412 49.6901 133.216C67.7718 143.58 96.2056 145.239 117.324 137.085C117.462 137.085 117.6 137.085 117.6 137.224C117.6 137.362 117.6 137.5 117.462 137.5C108.49 141.093 97.9999 142.751 87.6478 142.751Z" fill="#314C9F"/>
<path d="M65.8393 76.1432L55.7633 70.3392L52.5886 61.2186L62.5267 67.0226L65.8393 76.1432Z" fill="#314C9F"/>
<path d="M65.2872 65.5025L66.6674 75.5904L65.8393 76.1432L62.5266 67.0226L65.2872 65.5025Z" fill="#314C9F"/>
<path d="M48.4478 86.0929L49.828 74.4849L52.5886 72.8266L49.414 85.6783L48.4478 86.0929Z" fill="#314C9F"/>
<path d="M49.8281 74.4849L35.8873 66.3317L34.645 78.0779L48.4478 86.093L49.8281 74.4849Z" fill="#314C9F"/>
<path d="M32.7126 60.9422C32.7126 64.1206 33.9549 68.5427 39.338 71.8593C49.138 77.9397 68.0479 74.6231 68.4619 60.804L32.7126 60.9422Z" fill="#314C9F"/>
<path d="M32.8508 19.3467V60.804C32.8508 63.4297 34.5072 65.9171 37.8198 67.99C44.7213 72.1357 56.0396 72.2739 63.217 68.2663C66.9438 66.1935 68.7382 63.4297 68.7382 60.804V19.3467H32.8508Z" fill="#314C9F"/>
<path d="M61.9748 8.42964C55.6255 4.5603 46.6536 4.5603 40.0283 8.15326C36.8536 9.81155 32.9889 13.2663 32.8508 19.4849C32.8508 22.1105 34.5072 24.598 37.8198 26.6708C44.7213 30.8166 56.0396 30.9548 63.217 26.9472C66.9438 24.8744 68.7382 22.1105 68.7382 19.4849C68.4621 12.5754 63.6311 9.39698 61.9748 8.42964Z" fill="#314C9F"/>
<path d="M50.6655 15.754C53.7147 15.7452 56.1826 14.3151 56.1775 12.5598C56.1725 10.8044 53.6966 9.38845 50.6473 9.39717C47.5981 9.40589 45.1303 10.836 45.1353 12.5914C45.1403 14.3467 47.6163 15.7627 50.6655 15.754Z" fill="white"/>
<path d="M50.7943 11.0553C52.3952 11.0553 53.6929 10.3129 53.6929 9.397C53.6929 8.48115 52.3952 7.73871 50.7943 7.73871C49.1935 7.73871 47.8958 8.48115 47.8958 9.397C47.8958 10.3129 49.1935 11.0553 50.7943 11.0553Z" fill="white"/>
<path d="M53.6929 9.39697V12.0226C53.6929 12.4372 53.4169 12.8517 52.8648 13.2663C51.7605 13.9573 49.8281 13.9573 48.7239 13.2663C48.1718 12.9899 47.8958 12.5754 47.8958 12.0226V9.39697C47.8958 9.81155 48.1718 10.2261 48.7239 10.6407C49.8281 11.3316 51.7605 11.3316 52.8648 10.6407C53.4169 10.2261 53.6929 9.81155 53.6929 9.39697Z" fill="#314C9F"/>
<path d="M65.8393 57.2111C65.2872 57.2111 64.8731 57.6256 64.8731 58.1784V74.6231C64.8731 75.3141 64.459 76.005 63.7689 76.4196C63.0788 76.8342 62.3886 76.8342 61.6985 76.4196L57.1436 73.794C56.1774 74.0704 55.0731 74.3467 54.1069 74.4849L60.5943 78.2161C61.2844 78.6307 61.9745 78.7688 62.6647 78.7688C63.3548 78.7688 64.045 78.6307 64.7351 78.2161C65.9774 77.5251 66.8055 76.1432 66.8055 74.6231V58.1784C66.9436 57.6256 66.3914 57.2111 65.8393 57.2111Z" fill="white"/>
<path d="M74.5352 54.0326C74.5352 53.4799 74.1212 52.7889 73.7071 52.5125C73.293 52.2362 72.8789 52.5125 72.8789 53.0653C72.8789 53.6181 73.293 54.309 73.7071 54.5854C74.1212 54.7236 74.5352 54.4472 74.5352 54.0326Z" fill="white"/>
<path d="M74.2593 54.5854C74.5353 54.4472 74.6733 54.3091 74.6733 54.0327C74.6733 53.4799 74.2593 52.789 73.8452 52.5126C73.5691 52.3744 73.4311 52.3744 73.2931 52.5126H73.155C73.2931 52.3744 73.5691 52.3744 73.7071 52.5126C74.1212 52.789 74.5353 53.4799 74.5353 54.0327C74.5353 54.3091 74.3973 54.4472 74.2593 54.5854Z" fill="white"/>
<path d="M40.8563 73.3794C40.4423 73.3794 40.1662 73.2412 40.0282 72.8266C39.7521 72.2738 39.8901 71.7211 40.4422 71.4447L73.0169 52.6507C73.9831 52.098 74.8113 54.0326 73.9831 54.4472L41.4084 73.2412C41.2704 73.3794 41.1324 73.3794 40.8563 73.3794Z" fill="white"/>
<path d="M50.9324 65.3644V46.294C50.9324 45.7412 51.3465 45.3267 51.8986 45.3267C52.4507 45.3267 52.8648 45.7412 52.8648 46.294V65.3644C53.0028 66.4699 50.9324 66.6081 50.9324 65.3644Z" fill="white"/>
<path d="M70.3943 54.1709V35.1005C70.3943 34.5477 70.8084 34.1332 71.3605 34.1332C71.9126 34.1332 72.3267 34.5477 72.3267 35.1005V54.1709C72.4647 55.2764 70.3943 55.2764 70.3943 54.1709Z" fill="white"/>
<path d="M74.5352 34.4095C74.5352 33.8568 74.1212 33.1658 73.7071 32.8894C73.293 32.613 72.8789 32.8894 72.8789 33.4422C72.8789 33.995 73.293 34.6859 73.7071 34.9623C74.1212 35.1005 74.5352 34.9623 74.5352 34.4095Z" fill="white"/>
<path d="M74.2593 34.9623C74.5353 34.8241 74.6733 34.6859 74.6733 34.4095C74.6733 33.8567 74.2593 33.1658 73.8452 32.8894C73.5691 32.7512 73.4311 32.7512 73.2931 32.8894H73.155C73.2931 32.7512 73.5691 32.7512 73.7071 32.8894C74.1212 33.1658 74.5353 33.8567 74.5353 34.4095C74.5353 34.6859 74.3973 34.8241 74.2593 34.9623Z" fill="white"/>
<path d="M40.8563 53.7563C40.4423 53.7563 40.1662 53.6181 40.0282 53.2035C39.7521 52.6507 39.8901 52.098 40.4422 51.8216L73.0169 33.0276C73.9831 32.4748 74.8113 34.4095 73.9831 34.8241L41.4084 53.6181C41.2704 53.7562 41.1324 53.7563 40.8563 53.7563Z" fill="white"/>
<path d="M64.8732 37.7261V10.6407C64.8732 9.39698 64.1831 8.42964 63.2169 7.73869L53.6929 2.21105C53.1408 1.93467 52.7267 2.07286 52.4507 2.21105C52.3126 2.34924 51.8985 2.62562 51.8985 3.17838V8.84421C51.8985 9.67336 49.8281 9.81155 49.8281 8.84421V3.31658C49.8281 2.07286 50.3802 1.10552 51.4845 0.552756C52.4507 -7.34698e-06 53.6929 -7.34698e-06 54.7971 0.552756L64.3211 6.08039C65.9774 7.04773 66.9436 8.84421 66.9436 10.7789V37.7261C66.9436 38.5553 64.8732 38.6935 64.8732 37.7261Z" fill="#314C9F"/>
<path d="M36.5774 42.0101C36.5774 38.8317 36.5774 37.1734 36.5774 33.995C37.8196 34.9623 38.3718 35.2387 39.614 35.7915C39.614 38.9699 39.614 40.6282 39.614 43.8066C38.3718 43.2538 37.8196 42.9774 36.5774 42.0101Z" fill="#314C9F"/>
<path d="M39.4761 43.5302C38.3719 43.1156 37.8198 42.701 36.7156 41.8719C36.7156 38.6935 36.7156 37.1734 36.7156 33.995C37.8198 34.8241 38.3719 35.1005 39.4761 35.6533C39.4761 38.8317 39.4761 40.49 39.4761 43.5302Z" fill="white"/>
<path d="M38.6477 35.7915C38.2336 35.5151 37.9575 35.3769 37.5435 35.1005V34.9623C37.9575 35.3769 38.2336 35.5151 38.6477 35.7915Z" fill="#314C9F"/>
<path d="M39.0619 36.7588C38.2337 36.3442 37.8196 36.206 36.9915 35.5151V35.3769C37.8196 36.0678 38.2337 36.206 39.0619 36.7588ZM39.0619 37.0352C38.2337 36.6206 37.8196 36.4824 36.9915 35.7915V35.9297C37.8196 36.4824 38.2337 36.7588 39.0619 37.0352ZM39.0619 37.3116C38.2337 36.897 37.8196 36.7588 36.9915 36.0678V36.206C37.8196 36.897 38.2337 37.0352 39.0619 37.3116C39.0619 37.4498 39.0619 37.4498 39.0619 37.3116ZM39.0619 37.7261C38.2337 37.3116 37.8196 37.1734 36.9915 36.4824V36.6206C37.8196 37.1734 38.2337 37.4498 39.0619 37.7261ZM39.0619 38.0025C38.2337 37.5879 37.8196 37.4498 36.9915 36.7588V36.897C37.8196 37.5879 38.2337 37.8643 39.0619 38.0025C39.0619 38.1407 39.0619 38.1407 39.0619 38.0025ZM39.0619 38.4171C38.2337 38.0025 37.8196 37.8643 36.9915 37.1734V37.3116C37.8196 37.8643 38.2337 38.1407 39.0619 38.4171ZM39.0619 38.6935C38.2337 38.2789 37.8196 38.1407 36.9915 37.4498V37.5879C37.8196 38.2789 38.2337 38.5553 39.0619 38.6935C39.0619 38.8317 39.0619 38.8317 39.0619 38.6935ZM39.0619 39.108C38.2337 38.6935 37.8196 38.5553 36.9915 37.8643V38.0025C37.8196 38.5553 38.2337 38.8317 39.0619 39.108C39.0619 39.108 39.0619 39.2462 39.0619 39.108ZM39.0619 39.5226C38.2337 39.108 37.8196 38.9699 36.9915 38.2789V38.4171C37.8196 38.9699 38.2337 39.2462 39.0619 39.5226Z" fill="#314C9F"/>
<path d="M39.0619 40.49C38.2337 40.0754 37.8196 39.9372 36.9915 39.2463V39.1081C37.8196 39.799 38.2337 40.0754 39.0619 40.49ZM39.0619 40.7664C38.2337 40.3518 37.8196 40.2136 36.9915 39.5227V39.6609C37.8196 40.2136 38.2337 40.49 39.0619 40.7664ZM39.0619 41.0428C38.2337 40.6282 37.8196 40.49 36.9915 39.799V39.9372C37.8196 40.6282 38.2337 40.9046 39.0619 41.0428C39.0619 41.181 39.0619 41.181 39.0619 41.0428ZM39.0619 41.4573C38.2337 41.0428 37.8196 40.9046 36.9915 40.2136V40.3518C37.8196 40.9046 38.2337 41.181 39.0619 41.4573ZM39.0619 41.8719C38.2337 41.4573 37.8196 41.3191 36.9915 40.6282V40.7664C37.8196 41.3191 38.2337 41.5955 39.0619 41.8719ZM39.0619 42.1483C38.2337 41.7337 37.8196 41.5955 36.9915 40.9046V41.0428C37.8196 41.5955 38.2337 41.8719 39.0619 42.1483C39.0619 42.1483 39.0619 42.2865 39.0619 42.1483ZM39.0619 42.5629C38.2337 42.1483 37.8196 42.0101 36.9915 41.3191V41.4573C37.8196 42.0101 38.2337 42.2865 39.0619 42.5629Z" fill="#314C9F"/>
<path d="M32.9887 95.0754L23.0507 89.2714L19.738 80.1508L29.8141 85.9548L32.9887 95.0754Z" fill="#314C9F"/>
<path d="M32.4367 84.4347L33.9551 94.6608L32.9889 95.0754L29.8142 85.9548L32.4367 84.4347Z" fill="#314C9F"/>
<path d="M15.7354 105.163L17.1156 93.4171L19.7382 91.7588L16.5635 104.611L15.7354 105.163Z" fill="#314C9F"/>
<path d="M17.1156 93.4171L3.17472 85.402L1.79443 97.01L15.7353 105.163L17.1156 93.4171Z" fill="#314C9F"/>
<path d="M0 79.8743C0 83.0527 1.24225 87.4748 6.62535 90.7914C16.4254 96.8718 35.3352 93.5553 35.7493 79.7361L0 79.8743Z" fill="#314C9F"/>
<path d="M0 38.2789V79.7362C0 82.3618 1.65634 84.8492 4.96901 86.9221C11.8704 91.0678 23.1887 91.206 30.3662 87.1985C34.093 85.1256 35.8873 82.3618 35.8873 79.7362V38.2789H0Z" fill="#314C9F"/>
<path d="M29.1239 27.3618C22.7746 23.4924 13.8028 23.4924 7.17746 27.0854C4.00282 28.7437 0.138028 32.1985 0 38.417C0 41.0427 1.65634 43.5301 4.96901 45.603C11.8704 49.7487 23.1887 49.8869 30.3662 45.8794C34.093 43.8065 35.8873 41.0427 35.8873 38.417C35.7493 31.5075 30.7803 28.3291 29.1239 27.3618Z" fill="#314C9F"/>
<path d="M21.9466 29.2965C19.8762 28.0527 16.2875 28.0527 14.079 29.1583C11.8706 30.402 11.8706 32.4749 13.941 33.7186C16.0114 34.9623 19.6002 34.9623 21.8086 33.8568C23.879 32.6131 24.0171 30.6784 21.9466 29.2965Z" fill="white"/>
<path d="M18.0817 29.9874C19.6825 29.9874 20.9803 29.245 20.9803 28.3291C20.9803 27.4133 19.6825 26.6708 18.0817 26.6708C16.4808 26.6708 15.1831 27.4133 15.1831 28.3291C15.1831 29.245 16.4808 29.9874 18.0817 29.9874Z" fill="white"/>
<path d="M20.9803 28.3291V30.9547C20.9803 31.3693 20.7042 31.7839 20.1521 32.1984C19.0479 32.8894 17.1155 32.8894 16.0113 32.1984C15.4592 31.9221 15.1831 31.5075 15.1831 30.9547V28.3291C15.1831 28.7437 15.4592 29.1582 16.0113 29.5728C17.1155 30.2638 19.0479 30.2638 20.1521 29.5728C20.7042 29.1582 20.9803 28.7437 20.9803 28.3291Z" fill="#314C9F"/>
<path d="M33.1267 76.1432C32.5746 76.1432 32.1605 76.5578 32.1605 77.1105V93.5553C32.1605 94.2462 31.7464 94.9372 31.0563 95.3517C30.3661 95.7663 29.676 95.7663 28.9858 95.3517L24.4309 92.7261C23.4647 93.0025 22.3605 93.2789 21.3943 93.4171L27.8816 97.1482C28.5718 97.5628 29.2619 97.701 29.952 97.701C30.6422 97.701 31.3323 97.5628 32.0225 97.1482C33.2647 96.4573 34.0929 95.0754 34.0929 93.5553V77.1105C34.0929 76.5578 33.6788 76.1432 33.1267 76.1432Z" fill="white"/>
<path d="M41.6847 72.9648C41.6847 72.412 41.2706 71.7211 40.8565 71.4447C40.4424 71.1683 40.0283 71.4447 40.0283 71.9974C40.0283 72.5502 40.4424 73.2412 40.8565 73.5175C41.4086 73.6557 41.6847 73.5175 41.6847 72.9648Z" fill="white"/>
<path d="M41.4087 73.5176C41.6847 73.3794 41.8228 73.2412 41.8228 72.9648C41.8228 72.412 41.4087 71.7211 40.9946 71.4447C40.7185 71.3065 40.5805 71.3065 40.4425 71.4447H40.3044C40.4425 71.3065 40.7185 71.3065 40.8566 71.4447C41.2706 71.7211 41.6847 72.412 41.6847 72.9648C41.6847 73.2412 41.6847 73.3794 41.4087 73.5176Z" fill="white"/>
<path d="M19.3241 85.9548C18.91 85.9548 18.634 85.8166 18.4959 85.402C18.2199 84.8492 18.3579 84.2965 18.91 84.0201L40.3044 71.7211C41.2706 71.1683 42.0988 73.103 41.2706 73.5176L19.8762 85.8166C19.7382 85.8166 19.4621 85.9548 19.3241 85.9548Z" fill="white"/>
<path d="M19.7381 85.5402C19.7381 84.9874 19.324 84.2964 18.91 84.02C18.4959 83.7437 18.0818 84.02 18.0818 84.5728C18.0818 85.1256 18.4959 85.8165 18.91 86.0929C19.324 86.3693 19.7381 86.0929 19.7381 85.5402Z" fill="white"/>
<path d="M19.4621 86.0929C19.7382 85.9548 19.8762 85.8166 19.8762 85.5402C19.8762 84.9874 19.4621 84.2965 19.0481 84.0201C18.772 83.8819 18.634 83.8819 18.4959 84.0201H18.3579C18.4959 83.8819 18.772 83.8819 18.91 84.0201C19.3241 84.2965 19.7382 84.9874 19.7382 85.5402C19.7382 85.8166 19.6002 86.0929 19.4621 86.0929Z" fill="url(#paint1_linear_22_859)"/>
<path d="M22.9128 81.6708V62.6005C22.9128 62.0477 23.3269 61.6331 23.879 61.6331C24.4312 61.6331 24.8452 62.0477 24.8452 62.6005V81.6708C24.9833 82.7763 22.9128 82.7763 22.9128 81.6708Z" fill="white"/>
<path d="M41.6847 53.3417C41.6847 52.7889 41.2706 52.0979 40.8565 51.8216C40.4424 51.5452 40.0283 51.8216 40.0283 52.3743C40.0283 52.9271 40.4424 53.618 40.8565 53.8944C41.4086 54.0326 41.6847 53.8944 41.6847 53.3417Z" fill="white"/>
<path d="M41.4087 53.8944C41.6847 53.7562 41.8228 53.618 41.8228 53.3416C41.8228 52.7889 41.4087 52.0979 40.9946 51.8215C40.7185 51.6833 40.5805 51.6833 40.4425 51.8215H40.3044C40.4425 51.6833 40.7185 51.6833 40.8566 51.8215C41.2706 52.0979 41.6847 52.7889 41.6847 53.3416C41.6847 53.618 41.6847 53.7562 41.4087 53.8944Z" fill="white"/>
<path d="M20.8424 65.3643C20.4283 65.3643 20.1523 65.2261 20.0142 64.8115C19.7382 64.2587 19.8762 63.706 20.4283 63.4296L40.3044 51.9597C41.2706 51.407 42.0988 53.3417 41.2706 53.7562L21.3945 65.2261C21.2565 65.3643 20.9804 65.3643 20.8424 65.3643Z" fill="white"/>
<path d="M21.2564 65.0879C21.2564 64.5351 20.8424 63.8442 20.4283 63.5678C20.0142 63.2914 19.6001 63.5678 19.6001 64.1205C19.6001 64.6733 20.0142 65.3643 20.4283 65.6406C20.8424 65.917 21.2564 65.6406 21.2564 65.0879Z" fill="white"/>
<path d="M20.9804 65.6406C21.2565 65.5024 21.3945 65.3642 21.3945 65.0879C21.3945 64.5351 20.9804 63.8441 20.5664 63.5678C20.2903 63.4296 20.1523 63.4296 20.0142 63.5678H19.8762C20.0142 63.4296 20.2903 63.4296 20.4283 63.5678C20.8424 63.8441 21.2565 64.5351 21.2565 65.0879C21.2565 65.3642 21.2565 65.5024 20.9804 65.6406Z" fill="white"/>
<path d="M32.0226 56.6583V29.5728C32.0226 28.3291 31.3325 27.3618 30.3663 26.6708L20.8423 21.1432C20.2902 20.8668 19.8761 21.005 19.6001 21.1432C19.462 21.2814 19.048 21.5578 19.048 22.1105V27.7764C19.048 28.6055 16.9775 28.7437 16.9775 27.7764V22.1105C16.9775 20.8668 17.5297 19.8995 18.6339 19.3467C19.6001 18.7939 20.8423 18.7939 21.9466 19.3467L31.4705 24.8743C33.1268 25.8417 34.093 27.6382 34.093 29.5728V56.5201C34.093 57.4874 32.0226 57.6256 32.0226 56.6583Z" fill="#314C9F"/>
<path d="M3.72681 60.9422C3.72681 57.7638 3.72681 56.1055 3.72681 52.9271C4.96906 53.8945 5.52117 54.1708 6.76343 54.7236C6.76343 57.902 6.76343 59.5603 6.76343 62.7387C5.6592 62.1859 4.96906 61.9095 3.72681 60.9422Z" fill="#314C9F"/>
<path d="M6.76349 62.6005C5.65927 62.1859 5.10715 61.7713 4.00293 60.9422C4.00293 57.7638 4.00293 56.2437 4.00293 53.0653C5.10715 53.8945 5.65927 54.1708 6.76349 54.7236C6.76349 57.902 6.76349 59.4221 6.76349 62.6005Z" fill="white"/>
<path d="M5.7971 54.7236C5.38301 54.4472 5.10696 54.309 4.69287 54.0327V53.8945C5.24498 54.309 5.38301 54.4472 5.7971 54.7236Z" fill="#314C9F"/>
<path d="M6.34923 55.691C5.52106 55.2764 5.10698 55.1382 4.27881 54.5855V54.4473C5.10698 55 5.52106 55.2764 6.34923 55.691ZM6.34923 55.9674C5.52106 55.5528 5.10698 55.2764 4.27881 54.7236V54.8618C5.10698 55.4146 5.52106 55.691 6.34923 55.9674ZM6.34923 56.2437C5.52106 55.8292 5.10698 55.691 4.27881 55V55.1382C5.10698 55.8292 5.52106 56.1056 6.34923 56.2437C6.34923 56.3819 6.34923 56.3819 6.34923 56.2437ZM6.34923 56.6583C5.52106 56.2437 5.10698 56.1056 4.27881 55.4146V55.5528C5.10698 56.1056 5.52106 56.3819 6.34923 56.6583ZM6.34923 56.9347C5.52106 56.6583 5.10698 56.3819 4.27881 55.8292V55.9674C5.10698 56.5201 5.52106 56.7965 6.34923 56.9347C6.34923 57.0729 6.34923 57.0729 6.34923 56.9347ZM6.34923 57.3493C5.52106 56.9347 5.10698 56.7965 4.27881 56.1056V56.2437C5.10698 56.7965 5.52106 57.0729 6.34923 57.3493C6.34923 57.3493 6.34923 57.4875 6.34923 57.3493ZM6.34923 57.7638C5.52106 57.3493 5.10698 57.2111 4.27881 56.5201V56.6583C5.10698 57.2111 5.52106 57.4875 6.34923 57.7638ZM6.34923 58.0402C5.52106 57.6257 5.10698 57.4875 4.27881 56.7965V56.9347C5.10698 57.6257 5.52106 57.7638 6.34923 58.0402C6.34923 58.0402 6.34923 58.1784 6.34923 58.0402ZM6.34923 58.4548C5.52106 58.0402 5.10698 57.7638 4.27881 57.2111V57.3493C5.10698 57.902 5.52106 58.1784 6.34923 58.4548Z" fill="#314C9F"/>
<path d="M6.34923 59.4221C5.52106 59.0076 5.10698 58.8694 4.27881 58.1784V58.0402C5.10698 58.7312 5.52106 59.0076 6.34923 59.4221ZM6.34923 59.6985C5.52106 59.2839 5.10698 59.1457 4.27881 58.4548V58.593C5.10698 59.1458 5.52106 59.4221 6.34923 59.6985ZM6.34923 60.1131C5.52106 59.6985 5.10698 59.4221 4.27881 58.8694V59.0076C5.10698 59.5603 5.52106 59.8367 6.34923 60.1131ZM6.34923 60.3895C5.52106 59.9749 5.10698 59.8367 4.27881 59.1457V59.2839C5.10698 59.8367 5.52106 60.1131 6.34923 60.3895C6.34923 60.3895 6.34923 60.5277 6.34923 60.3895ZM6.34923 60.804C5.52106 60.3895 5.10698 60.2513 4.27881 59.5603V59.6985C5.10698 60.2513 5.52106 60.5277 6.34923 60.804ZM6.34923 61.0804C5.52106 60.6659 5.10698 60.5277 4.27881 59.8367V59.9749C5.10698 60.6659 5.52106 60.804 6.34923 61.0804C6.34923 61.2186 6.34923 61.2186 6.34923 61.0804ZM6.34923 61.495C5.52106 61.0804 5.10698 60.804 4.27881 60.2513V60.3895C5.10698 60.9422 5.52106 61.2186 6.34923 61.495Z" fill="#314C9F"/>
<path d="M10.0762 87.1985V110.276C10.0762 111.244 12.1466 111.106 12.1466 110.138V87.1985H10.0762Z" fill="white"/>
<path d="M7.86765 94.5226L5.24512 93.1407V77.2487L7.86765 78.6306V94.5226Z" fill="white"/>
<path d="M20.4282 87.1984L7.86768 94.5225V78.6306L20.4282 71.3065V87.1984Z" fill="white"/>
<path d="M7.86765 78.6306L5.24512 77.2487L17.9437 69.9246L20.4282 71.3065L7.86765 78.6306Z" fill="white"/>
<path d="M10.2142 84.4346C9.93817 84.5728 9.66211 84.9874 9.66211 85.4019C9.66211 85.6783 9.93817 85.8165 10.2142 85.6783C10.4903 85.5401 10.7663 85.1256 10.7663 84.711C10.7663 84.4346 10.4903 84.1582 10.2142 84.4346Z" fill="#314C9F"/>
<path d="M10.6284 84.4346C10.4903 84.4346 10.4903 84.4346 10.3523 84.4346C10.2143 84.4346 10.2143 84.5728 10.2143 84.5728C10.0763 84.711 10.0763 84.711 10.0763 84.8492C10.0763 84.9874 9.93823 85.1256 9.93823 85.2638C9.93823 85.402 9.93823 85.5402 10.0763 85.5402L10.3523 85.6784C10.2143 85.6784 10.2143 85.5402 10.2143 85.402C10.2143 85.2638 10.2143 85.1256 10.3523 84.9874C10.3523 84.8492 10.4903 84.8492 10.4903 84.711C10.4903 84.5728 10.6284 84.5728 10.6284 84.5728C10.7664 84.4346 10.9044 84.4346 10.9044 84.5728L10.6284 84.4346Z" fill="#314C9F"/>
<path d="M10.4905 84.711C10.2144 84.8492 10.0764 85.2638 10.0764 85.5402C10.0764 85.8165 10.3525 85.9547 10.4905 85.8165C10.7666 85.6784 11.0426 85.2638 11.0426 84.9874C11.0426 84.711 10.7666 84.5728 10.4905 84.711Z" fill="#314C9F"/>
<path d="M12.2848 83.1909C12.0087 83.3291 11.7327 83.7436 11.7327 84.1582C11.7327 84.5728 12.0087 84.711 12.2848 84.4346C12.5608 84.2964 12.8369 83.8818 12.8369 83.4673C12.8369 83.1909 12.6989 83.0527 12.2848 83.1909Z" fill="#314C9F"/>
<path d="M12.6989 83.329C12.5609 83.329 12.5609 83.329 12.4229 83.329C12.2848 83.329 12.2848 83.4672 12.2848 83.4672C12.1468 83.6054 12.1468 83.6054 12.1468 83.7436C12.1468 83.8818 12.0088 84.02 12.0088 84.1582C12.0088 84.2964 12.0088 84.4346 12.1468 84.4346L12.4229 84.5728C12.2848 84.5728 12.2848 84.4346 12.2848 84.2964C12.2848 84.1582 12.2848 84.02 12.4229 83.8818C12.4229 83.7436 12.5609 83.7436 12.5609 83.6054C12.5609 83.4672 12.6989 83.4672 12.6989 83.4672C12.837 83.329 12.975 83.329 12.975 83.4672L12.6989 83.329Z" fill="#314C9F"/>
<path d="M12.699 83.4672C12.4229 83.6054 12.2849 84.02 12.2849 84.2964C12.2849 84.5728 12.561 84.711 12.699 84.5728C12.9751 84.4346 13.1131 84.02 13.1131 83.7436C13.1131 83.4672 12.9751 83.329 12.699 83.4672Z" fill="#314C9F"/>
<path d="M10.2142 87.1984C9.93817 87.3366 9.66211 87.8894 9.66211 88.1658C9.66211 88.4422 9.93817 88.7186 10.2142 88.4422C10.4903 88.304 10.7663 87.8894 10.7663 87.4748C10.7663 87.1984 10.4903 87.0602 10.2142 87.1984Z" fill="#314C9F"/>
<path d="M10.6284 87.3367C10.4903 87.3367 10.4903 87.3367 10.3523 87.3367C10.2143 87.3367 10.2143 87.4749 10.2143 87.4749C10.0763 87.6131 10.0763 87.6131 10.0763 87.7512C10.0763 87.8894 9.93823 88.0276 9.93823 88.1658C9.93823 88.304 9.93823 88.4422 10.0763 88.4422L10.3523 88.5804C10.2143 88.5804 10.2143 88.4422 10.2143 88.304C10.2143 88.1658 10.2143 88.0276 10.3523 87.8894C10.3523 87.7512 10.4903 87.7512 10.4903 87.6131C10.4903 87.4749 10.6284 87.4749 10.6284 87.4749C10.7664 87.3367 10.9044 87.3367 10.9044 87.4749L10.6284 87.3367Z" fill="#314C9F"/>
<path d="M10.4905 87.4749C10.2144 87.6131 10.0764 88.0276 10.0764 88.304C10.0764 88.5804 10.3525 88.7186 10.4905 88.5804C10.7666 88.4422 11.0426 88.0276 11.0426 87.7513C11.0426 87.4749 10.7666 87.3367 10.4905 87.4749Z" fill="#314C9F"/>
<path d="M12.2848 85.9547C12.0087 86.0929 11.7327 86.5075 11.7327 86.9221C11.7327 87.3366 12.0087 87.4748 12.2848 87.1984C12.5608 87.0602 12.8369 86.6457 12.8369 86.2311C12.8369 85.9547 12.6989 85.8165 12.2848 85.9547Z" fill="#314C9F"/>
<path d="M12.6989 86.0929C12.5609 86.0929 12.5609 86.0929 12.4229 86.0929C12.2848 86.0929 12.2848 86.2311 12.2848 86.2311C12.1468 86.3693 12.1468 86.3693 12.1468 86.5075C12.1468 86.6457 12.0088 86.7839 12.0088 86.922C12.0088 87.0602 12.0088 87.1984 12.1468 87.1984L12.4229 87.3366C12.2848 87.3366 12.2848 87.1984 12.2848 87.0602C12.2848 86.922 12.2848 86.7839 12.4229 86.6457C12.4229 86.5075 12.5609 86.5075 12.5609 86.3693C12.5609 86.2311 12.6989 86.2311 12.6989 86.2311C12.837 86.0929 12.975 86.0929 12.975 86.2311L12.6989 86.0929Z" fill="#314C9F"/>
<path d="M12.699 86.2311C12.4229 86.3693 12.2849 86.7839 12.2849 87.0602C12.2849 87.3366 12.561 87.4748 12.699 87.3366C12.9751 87.1984 13.1131 86.7839 13.1131 86.5075C13.1131 86.2311 12.9751 86.0929 12.699 86.2311Z" fill="#314C9F"/>
<path d="M10.2142 89.9622C9.93817 90.2386 9.66211 90.6532 9.66211 90.9296C9.66211 91.3442 9.93817 91.4823 10.2142 91.206C10.4903 91.0678 10.7663 90.6532 10.7663 90.2386C10.7663 89.9622 10.4903 89.824 10.2142 89.9622Z" fill="#314C9F"/>
<path d="M10.6284 90.1004C10.4903 90.1004 10.4903 90.1004 10.3523 90.1004C10.2143 90.1004 10.2143 90.2386 10.2143 90.2386C10.0763 90.3768 10.0763 90.3768 10.0763 90.515C10.0763 90.6532 9.93823 90.7914 9.93823 90.9296C9.93823 91.0677 9.93823 91.2059 10.0763 91.2059L10.3523 91.3441C10.2143 91.3441 10.2143 91.2059 10.2143 91.0677C10.2143 90.9296 10.2143 90.7914 10.3523 90.6532C10.3523 90.515 10.4903 90.515 10.4903 90.3768C10.4903 90.2386 10.6284 90.2386 10.6284 90.2386C10.7664 90.1004 10.9044 90.1004 10.9044 90.2386L10.6284 90.1004Z" fill="#314C9F"/>
<path d="M10.4905 90.3768C10.2144 90.515 10.0764 90.9296 10.0764 91.206C10.0764 91.4824 10.3525 91.6205 10.4905 91.4823C10.7666 91.206 11.0426 90.9296 11.0426 90.6532C11.0426 90.2386 10.7666 90.1004 10.4905 90.3768Z" fill="#314C9F"/>
<path d="M12.2848 88.8567C12.0087 88.9949 11.7327 89.4095 11.7327 89.8241C11.7327 90.2387 12.0087 90.3768 12.2848 90.1005C12.5608 89.9623 12.8369 89.5477 12.8369 89.1331C12.8369 88.7185 12.6989 88.5804 12.2848 88.8567Z" fill="#314C9F"/>
<path d="M12.6989 88.8568C12.5609 88.8568 12.5609 88.8568 12.4229 88.8568C12.2848 88.8568 12.2848 88.9949 12.2848 88.9949C12.1468 89.1331 12.1468 89.1331 12.1468 89.2713C12.1468 89.4095 12.0088 89.5477 12.0088 89.6859C12.0088 89.8241 12.0088 89.9623 12.1468 89.9623L12.4229 90.2387C12.2848 90.2387 12.2848 90.1005 12.2848 89.9623C12.2848 89.8241 12.2848 89.6859 12.4229 89.5477C12.4229 89.4095 12.5609 89.4095 12.5609 89.2713C12.5609 89.1331 12.6989 89.1331 12.6989 89.1331C12.837 88.9949 12.975 88.9949 12.975 89.1331L12.6989 88.8568Z" fill="#314C9F"/>
<path d="M12.699 89.1331C12.4229 89.2713 12.2849 89.6859 12.2849 89.9623C12.2849 90.2387 12.561 90.3769 12.699 90.2387C12.9751 90.1005 13.1131 89.6859 13.1131 89.4095C13.1131 88.9949 12.9751 88.9949 12.699 89.1331Z" fill="#314C9F"/>
<path d="M18.4959 78.216V74.0703L9.66211 79.1834V83.3291L18.4959 78.216Z" fill="#314C9F"/>
<path opacity="0.4" d="M18.3579 78.0778V74.2085L18.4959 74.0703V78.216L9.66211 83.3291V83.1909L18.3579 78.0778Z" fill="#7A7A7A"/>
<path d="M18.4961 80.9798L18.082 81.2562V80.4271L18.4961 80.1507V80.9798Z" fill="#314C9F"/>
<path d="M18.22 80.0125L17.8059 80.2889V81.118L18.082 81.2562V80.4271L18.496 80.1507L18.22 80.0125Z" fill="#314C9F"/>
<path d="M16.9778 81.809L16.5637 82.0854V81.2562L16.9778 80.9799V81.809Z" fill="#314C9F"/>
<path d="M16.8396 80.8417L16.4255 81.1181V81.9472L16.5636 82.0854V81.2562L16.9776 80.9799L16.8396 80.8417Z" fill="#314C9F"/>
<path d="M15.5974 82.6382L15.1833 82.9146V82.0854L15.5974 81.809V82.6382Z" fill="#314C9F"/>
<path d="M15.3213 81.6708L14.9072 81.9472V82.7764L15.1833 82.9146V82.0854L15.5974 81.809L15.3213 81.6708Z" fill="#314C9F"/>
<path d="M18.4961 83.8819L18.082 84.1583V83.3291L18.4961 83.0527V83.8819Z" fill="#314C9F"/>
<path d="M18.22 82.9146L17.8059 83.1909V84.0201L18.082 84.1583V83.3291L18.496 83.0527L18.22 82.9146Z" fill="#314C9F"/>
<path d="M16.9778 84.711L16.5637 84.9874V84.1583L16.9778 83.8819V84.711Z" fill="#314C9F"/>
<path d="M16.8396 83.7437L16.4255 84.0201V84.8493L16.5636 84.9874V84.1583L16.9776 83.8819L16.8396 83.7437Z" fill="#314C9F"/>
<path d="M15.5974 85.5402L15.1833 85.8166V84.9874L15.5974 84.7111V85.5402Z" fill="#314C9F"/>
<path d="M15.3213 84.5729L14.9072 84.8493V85.6784L15.1833 85.8166V84.9874L15.5974 84.7111L15.3213 84.5729Z" fill="#314C9F"/>
</g>
<defs>
<linearGradient id="paint0_linear_22_859" x1="83.2924" y1="114.935" x2="91.5372" y2="114.935" gradientUnits="userSpaceOnUse">
<stop stop-color="#C6C6C6"/>
<stop offset="1" stop-color="#D5D5D5"/>
</linearGradient>
<linearGradient id="paint1_linear_22_859" x1="18.6449" y1="83.8308" x2="19.9204" y2="86.0374" gradientUnits="userSpaceOnUse">
<stop stop-color="#EAEAEA"/>
<stop offset="1" stop-color="#D5D5D5"/>
</linearGradient>
<clipPath id="clip0_22_859">
<rect width="147" height="165" fill="white"/>
</clipPath>
</defs>
</svg>
